<svg width="56" height="56" viewBox="0 0 56 56" fill="none" xmlns="http://www.w3.org/2000/svg">
<g clip-path="url(#clip0)">
<path d="M27.6484 54.8555C42.4803 54.8555 54.5039 42.8319 54.5039 28C54.5039 13.1681 42.4803 1.14453 27.6484 1.14453C12.8166 1.14453 0.792969 13.1681 0.792969 28C0.792969 42.8319 12.8166 54.8555 27.6484 54.8555Z" fill="#F1404B" stroke="#252B41" stroke-width="1.2" stroke-miterlimit="10"/>
<path d="M3.80078 23.3809H6.59375V26.4961H9.70898V23.3809H12.6094V32.4043H9.70898V28.752H6.59375V32.4043H3.80078V23.3809Z" fill="white"/>
<path d="M20.1289 30.9004H16.9062L16.4766 32.4043H13.5762L17.0137 23.3809H20.1289L23.5664 32.4043H20.5586L20.1289 30.9004ZM19.4844 28.9668L18.5176 25.7441L17.5508 28.9668H19.4844Z" fill="white"/>
<path d="M30.334 28.752L32.8047 29.5039C32.5898 30.1484 32.375 30.793 32.0527 31.2227C31.7305 31.6523 31.3008 31.9746 30.7637 32.2969C30.2266 32.5117 29.582 32.6191 28.7227 32.6191C27.7559 32.6191 26.8965 32.5117 26.252 32.1895C25.6074 31.8672 25.0703 31.4375 24.6406 30.6855C24.2109 29.9336 23.9961 29.0742 23.9961 27.8926C23.9961 26.3887 24.4258 25.3145 25.1777 24.4551C26.0371 23.7031 27.1113 23.2734 28.6152 23.2734C29.7969 23.2734 30.6562 23.4883 31.3008 23.918C31.9453 24.3477 32.4824 25.0996 32.8047 26.0664L30.2266 26.6035C30.1191 26.2812 30.0117 26.1738 29.9043 25.959C29.7969 25.7441 29.582 25.5293 29.3672 25.4219C29.1523 25.3145 28.8301 25.207 28.6152 25.207C27.9707 25.207 27.4336 25.4219 27.1113 25.959C26.8965 26.2812 26.6816 26.9258 26.6816 27.6777C26.6816 28.6445 26.7891 29.3965 27.1113 29.7187C27.4336 30.041 27.8633 30.2559 28.4004 30.2559C28.9375 30.2559 29.3672 30.1484 29.582 29.8262C30.0117 29.7187 30.2266 29.2891 30.334 28.752Z" fill="white"/>
<path d="M40.3242 28.752L42.7949 29.5039C42.5801 30.1484 42.3652 30.793 42.043 31.2227C41.7207 31.6523 41.291 31.9746 40.7539 32.2969C40.2168 32.5117 39.5723 32.6191 38.7129 32.6191C37.7461 32.6191 36.8867 32.5117 36.2422 32.1895C35.5977 31.8672 35.0605 31.4375 34.6309 30.6855C34.2012 29.9336 33.9863 29.0742 33.9863 27.8926C33.9863 26.3887 34.416 25.3145 35.168 24.4551C36.0273 23.7031 37.1016 23.2734 38.6055 23.2734C39.7871 23.2734 40.6465 23.4883 41.291 23.918C41.9355 24.3477 42.4727 25.0996 42.7949 26.0664L40.3242 26.6035C40.2168 26.2812 40.1094 26.1738 40.002 25.959C39.8945 25.7441 39.6797 25.5293 39.4648 25.4219C39.25 25.3145 38.9277 25.207 38.7129 25.207C38.0684 25.207 37.5312 25.4219 37.209 25.959C36.9941 26.2812 36.7793 26.9258 36.7793 27.6777C36.7793 28.6445 36.8867 29.3965 37.209 29.7187C37.5312 30.041 37.9609 30.2559 38.498 30.2559C39.0352 30.2559 39.4648 30.1484 39.6797 29.8262C40.002 29.7187 40.2168 29.2891 40.3242 28.752Z" fill="white"/>
<path d="M44.1914 23.3809H48.918C49.9922 23.3809 50.7441 23.5957 51.1738 24.1328C51.7109 24.5625 51.9258 25.3145 51.9258 26.1738C51.9258 27.0332 51.6035 27.7852 51.0664 28.3223C50.5293 28.8594 49.6699 29.0742 48.4883 29.0742H46.9844V32.4043H44.1914V23.3809ZM46.9844 27.248H47.6289C48.166 27.248 48.5957 27.1406 48.8105 26.9258C49.0254 26.7109 49.1328 26.4961 49.1328 26.1738C49.1328 25.8516 49.0254 25.6367 48.8105 25.4219C48.5957 25.207 48.2734 25.0996 47.7363 25.0996H46.877V27.248H46.9844Z" fill="white"/>
<path d="M13.3613 16.1836L10.4609 13.3906L10.8906 12.8535L12.0723 13.9277L13.0391 12.9609L11.8574 11.8867L12.2871 11.3496L15.1875 14.1426L14.7578 14.6797L13.4687 13.498L12.6094 14.4648L13.8984 15.6465L13.3613 16.1836Z" fill="white"/>
<path d="M14.65 12.1016L14.1129 12.4238C14.0054 12.1016 13.898 11.8867 14.0054 11.6719C14.0054 11.457 14.2203 11.2422 14.4351 11.0273C14.65 10.8125 14.8648 10.7051 14.9722 10.7051C15.0797 10.7051 15.2945 10.7051 15.4019 10.7051C15.5093 10.8125 15.7242 10.9199 15.939 11.2422L16.4761 11.9941C16.5836 12.209 16.7984 12.3164 16.9058 12.4238C17.0132 12.5312 17.1207 12.6387 17.2281 12.6387L16.691 13.0684L16.4761 12.8535C16.4761 13.0684 16.4761 13.1758 16.3687 13.2832C16.2613 13.3906 16.2613 13.498 16.1539 13.6055C15.939 13.7129 15.7242 13.8203 15.5093 13.8203C15.2945 13.8203 15.0797 13.7129 14.9722 13.498C14.8648 13.3906 14.7574 13.2832 14.7574 13.0684C14.7574 12.8535 14.7574 12.8535 14.7574 12.6387C14.7574 12.5312 14.8648 12.3164 15.0797 12.1016C15.2945 11.8867 15.4019 11.6719 15.4019 11.5645C15.2945 11.457 15.1871 11.3496 15.1871 11.3496C15.1871 11.3496 15.0797 11.3496 14.9722 11.3496C14.8648 11.3496 14.8648 11.457 14.7574 11.457C14.65 11.5645 14.65 11.5645 14.5425 11.6719C14.65 11.8867 14.65 11.9941 14.65 12.1016ZM15.7242 12.1016C15.7242 12.209 15.6168 12.3164 15.5093 12.4238C15.4019 12.6387 15.2945 12.7461 15.2945 12.8535C15.2945 12.9609 15.2945 13.0684 15.4019 13.0684C15.5093 13.1758 15.5093 13.1758 15.6168 13.1758C15.7242 13.1758 15.8316 13.1758 15.939 13.0684C16.0464 12.9609 16.0464 12.9609 16.0464 12.8535C16.0464 12.7461 16.0464 12.6387 16.0464 12.5312C16.0464 12.4238 15.939 12.3164 15.8316 12.1016H15.7242Z" fill="white"/>
<path d="M17.2285 12.7461L16.9063 12.209L17.0137 10.7051C17.0137 10.4902 17.0137 10.2754 17.0137 10.168C16.9062 10.168 16.9062 10.2754 16.7988 10.3828L16.0469 10.8125L15.7246 10.168L17.4434 9.09375L17.7656 9.52344L17.6582 11.1348L17.5508 11.6719C17.6582 11.5645 17.7656 11.457 17.873 11.457L18.7324 10.9199L19.0547 11.457L17.2285 12.7461Z" fill="white"/>
<path d="M18.7323 9.41602L18.1952 9.52344C18.0878 9.20117 18.1952 8.98633 18.1952 8.77148C18.3026 8.55664 18.5175 8.44922 18.7323 8.3418C18.9472 8.23438 19.162 8.12695 19.3768 8.12695C19.5917 8.12695 19.6991 8.23437 19.8065 8.23437C19.914 8.3418 20.0214 8.55664 20.2362 8.87891L20.5585 9.73828C20.6659 9.95313 20.7733 10.168 20.8808 10.2754C20.9882 10.3828 21.0956 10.4902 21.203 10.5977L20.5585 10.9199L20.3436 10.7051C20.3436 10.9199 20.2362 11.0273 20.1288 11.1348C20.0214 11.2422 19.914 11.3496 19.8065 11.3496C19.5917 11.457 19.3768 11.457 19.162 11.3496C18.9472 11.2422 18.8397 11.1348 18.7323 10.9199C18.6249 10.8125 18.6249 10.5977 18.6249 10.4902C18.6249 10.3828 18.6249 10.2754 18.7323 10.0605C18.8397 9.95312 18.9472 9.8457 19.162 9.63086C19.3768 9.41602 19.5917 9.30859 19.6991 9.20117C19.4843 9.09375 19.4843 8.98633 19.3768 8.87891C19.3768 8.87891 19.2694 8.77148 19.162 8.77148C19.0546 8.77148 19.0546 8.77148 18.9472 8.87891C18.8397 8.87891 18.7323 8.98633 18.7323 9.09375C18.7323 9.20117 18.7323 9.30859 18.7323 9.41602ZM19.8065 9.63086C19.6991 9.73828 19.6991 9.73828 19.4843 9.95313C19.3768 10.0605 19.2694 10.168 19.162 10.2754C19.0546 10.3828 19.162 10.4902 19.162 10.4902C19.162 10.5977 19.2694 10.7051 19.3768 10.7051C19.4843 10.7051 19.5917 10.7051 19.6991 10.7051C19.8065 10.7051 19.8065 10.5977 19.914 10.4902C20.0214 10.3828 20.0214 10.2754 20.0214 10.168C20.0214 10.0605 19.914 9.95313 19.914 9.73828L19.8065 9.63086Z" fill="white"/>
<path d="M21.9551 10.3828L21.3105 10.5977L20.3438 7.80469L20.8809 7.58984L20.9883 8.01953C20.9883 7.80469 21.0957 7.69727 21.0957 7.58984C21.2031 7.48242 21.2031 7.48242 21.3105 7.375C21.418 7.375 21.6328 7.375 21.7402 7.375V8.12695C21.6328 8.12695 21.5254 8.12695 21.418 8.12695C21.3105 8.12695 21.3105 8.23438 21.2031 8.3418C21.2031 8.44922 21.2031 8.55664 21.2031 8.77148C21.2031 8.98633 21.3105 9.20117 21.5254 9.63086L21.9551 10.3828Z" fill="white"/>
<path d="M24.9634 9.52344L24.4263 9.63086L24.3188 9.20117C24.2114 9.41601 24.2114 9.52344 24.104 9.63086C23.9966 9.73828 23.8892 9.8457 23.6743 9.8457C23.4595 9.95312 23.1372 9.8457 22.9224 9.63086C22.7075 9.41601 22.4927 9.09375 22.3853 8.55664C22.2778 8.01953 22.2778 7.69727 22.3853 7.375C22.4927 7.16016 22.7075 6.94531 22.9224 6.94531C23.0298 6.94531 23.1372 6.94531 23.3521 6.94531C23.4595 6.94531 23.5669 7.05273 23.7817 7.16016L23.4595 5.76367L24.104 5.65625L24.9634 9.52344ZM22.9224 8.44922C23.0298 8.66406 23.0298 8.87891 23.1372 8.98633C23.2446 9.09375 23.2446 9.20117 23.3521 9.20117C23.4595 9.20117 23.5669 9.30859 23.6743 9.20117C23.7817 9.20117 23.8892 9.09375 23.9966 8.87891C24.104 8.66406 24.104 8.44922 23.9966 8.12695C23.8892 7.80469 23.7817 7.58984 23.6743 7.48242C23.5669 7.375 23.3521 7.26758 23.2446 7.375C23.1372 7.375 23.0298 7.48242 22.9224 7.69726C22.8149 7.91211 22.8149 8.12695 22.9224 8.44922Z" fill="white"/>
<path d="M30.2266 9.30859H29.4746L29.1523 8.3418H27.7559L27.4336 9.20117H26.6816L28.0781 5.22656H28.8301L30.2266 9.30859ZM29.0449 7.69727L28.6152 6.19336L28.0781 7.58984L29.0449 7.69727Z" fill="white"/>
<path d="M32.4824 9.63086L31.8379 9.52344L32.0527 8.01953C32.0527 7.69727 32.1602 7.48242 32.1602 7.375C32.1602 7.26758 32.1602 7.16016 32.0527 7.16016C31.9453 7.05273 31.9453 7.05273 31.8379 7.05273C31.7305 7.05273 31.623 7.05273 31.5156 7.16016C31.4082 7.26758 31.3008 7.26758 31.3008 7.375C31.1934 7.48242 31.1934 7.69727 31.0859 8.01953L30.8711 9.30859L30.2266 9.20117L30.6562 6.30078L31.3008 6.4082V6.94531C31.4082 6.83789 31.623 6.73047 31.7305 6.62305C31.8379 6.51562 32.0527 6.51562 32.1602 6.62305C32.375 6.62305 32.4824 6.73047 32.5898 6.83789C32.6973 6.94531 32.8047 7.05273 32.8047 7.26758C32.8047 7.375 32.8047 7.69727 32.8047 7.91211L32.4824 9.63086Z" fill="white"/>
<path d="M33.8794 7.91211L33.3423 7.58984C33.4497 7.375 33.6646 7.16016 33.8794 7.05273C34.0942 6.94531 34.3091 6.94531 34.6313 7.05273C34.8462 7.16016 35.061 7.26758 35.1685 7.375C35.2759 7.48242 35.3833 7.58984 35.3833 7.80469C35.3833 7.91211 35.3833 8.23438 35.2759 8.55664L35.061 9.41602C34.9536 9.63086 34.9536 9.8457 34.9536 9.95313C34.9536 10.0605 34.9536 10.168 34.9536 10.3828L34.3091 10.168V9.8457C34.2017 9.95312 33.9868 9.95312 33.8794 10.0605C33.772 10.0605 33.5571 10.0605 33.4497 10.0605C33.2349 9.95312 33.02 9.8457 32.9126 9.63086C32.8052 9.41602 32.8052 9.20117 32.9126 8.98633C32.9126 8.87891 33.02 8.66406 33.1274 8.55664C33.2349 8.44922 33.3423 8.3418 33.4497 8.3418C33.5571 8.3418 33.772 8.3418 33.9868 8.3418C34.3091 8.3418 34.5239 8.3418 34.6313 8.3418C34.6313 8.23438 34.7388 8.12695 34.7388 8.01953C34.7388 7.91211 34.7388 7.91211 34.6313 7.91211C34.6313 7.91211 34.5239 7.80469 34.4165 7.80469C34.3091 7.80469 34.2017 7.80469 34.0942 7.80469C34.0942 7.69727 33.9868 7.80469 33.8794 7.91211ZM34.5239 8.77148C34.4165 8.77148 34.3091 8.77148 34.0942 8.77148C33.8794 8.77148 33.772 8.77148 33.6646 8.77148C33.5571 8.77148 33.5571 8.87891 33.5571 8.98633C33.5571 9.09375 33.5571 9.20117 33.5571 9.30859C33.5571 9.41602 33.6646 9.41602 33.772 9.52344C33.8794 9.52344 33.9868 9.52344 34.0942 9.52344C34.2017 9.52344 34.3091 9.41602 34.3091 9.41602C34.4165 9.30859 34.4165 9.20117 34.5239 8.98633V8.77148Z" fill="white"/>
<path d="M35.0605 10.4902L36.5645 6.73047L37.209 6.94531L35.7051 10.7051L35.0605 10.4902Z" fill="white"/>
<path d="M37.1016 8.12695L37.7461 8.3418L37.3164 10.4902L38.7129 8.87891L39.3574 9.20117L37.3164 11.3496L36.8867 11.7793C36.7793 11.8867 36.5645 11.9941 36.457 12.1016C36.3496 12.1016 36.2422 12.209 36.1348 12.209C36.0273 12.209 35.9199 12.209 35.7051 12.1016C35.5977 11.9941 35.4902 11.9941 35.3828 11.8867L35.5977 11.3496C35.7051 11.457 35.7051 11.457 35.8125 11.457C35.9199 11.5645 36.0273 11.5645 36.1348 11.457C36.2422 11.457 36.3496 11.3496 36.457 11.1348L37.1016 8.12695Z" fill="white"/>
<path d="M38.3906 11.0273L39.0352 11.2422C38.9277 11.5645 38.9277 11.7793 39.25 11.8867C39.3574 11.9941 39.4648 11.9941 39.5723 11.9941C39.6797 11.9941 39.7871 11.9941 39.7871 11.8867C39.7871 11.7793 39.7871 11.7793 39.7871 11.7793C39.7871 11.7793 39.7871 11.6719 39.6797 11.5645C39.3574 11.1348 39.1426 10.8125 39.0352 10.7051C38.9277 10.4902 39.0352 10.2754 39.1426 10.0605C39.25 9.8457 39.4648 9.73828 39.6797 9.63086C39.8945 9.63086 40.2168 9.63086 40.4316 9.8457C40.6465 10.0605 40.8613 10.168 40.9688 10.3828C41.0762 10.5977 41.0762 10.8125 40.9688 11.0273L40.4316 10.8125C40.5391 10.5977 40.4316 10.3828 40.2168 10.2754C40.1094 10.2754 40.002 10.168 39.8945 10.168C39.7871 10.168 39.7871 10.168 39.6797 10.2754C39.6797 10.3828 39.6797 10.3828 39.6797 10.4902C39.6797 10.5977 39.7871 10.7051 40.002 11.0273C40.2168 11.3496 40.4316 11.5645 40.4316 11.7793C40.4316 11.9941 40.4316 12.209 40.3242 12.3164C40.2168 12.5312 40.002 12.7461 39.6797 12.7461C39.4648 12.7461 39.1426 12.7461 38.8203 12.5312C38.6055 12.3164 38.3906 12.1016 38.2832 11.8867C38.2832 11.5645 38.2832 11.3496 38.3906 11.0273Z" fill="white"/>
<path d="M40.002 13.1758L41.8281 10.9199L42.3652 11.3496L40.5391 13.6055L40.002 13.1758ZM42.1504 10.5977L42.5801 10.0605L43.1172 10.4902L42.6875 11.0273L42.1504 10.5977Z" fill="white"/>
<path d="M41.2913 13.0684L41.8284 13.3906C41.6136 13.6055 41.721 13.9277 41.9359 14.0352C42.0433 14.1426 42.1507 14.25 42.2581 14.25C42.3656 14.25 42.473 14.25 42.473 14.1426L42.5804 14.0352C42.5804 14.0352 42.5804 13.9277 42.473 13.8203C42.1507 13.3906 42.0433 13.0684 42.0433 12.8535C42.0433 12.6387 42.1507 12.4238 42.2581 12.209C42.473 11.9941 42.6878 11.8867 42.9027 11.8867C43.1175 11.8867 43.4398 11.9941 43.6546 12.209C43.8695 12.4238 43.9769 12.6387 44.0843 12.8535C44.0843 13.0684 44.0843 13.2832 43.9769 13.498L43.4398 13.1758C43.5472 12.9609 43.5472 12.7461 43.3323 12.6387C43.2249 12.5312 43.1175 12.4238 43.0101 12.4238C42.9027 12.4238 42.9027 12.4238 42.7952 12.5312C42.7952 12.5312 42.6878 12.6387 42.7952 12.7461C42.7952 12.8535 42.9027 12.9609 43.1175 13.2832C43.3323 13.6055 43.4398 13.8203 43.4398 14.0352C43.4398 14.25 43.3323 14.3574 43.2249 14.5723C43.0101 14.7871 42.7952 14.8945 42.5804 14.8945C42.2581 14.8945 42.0433 14.7871 41.8284 14.5723C41.6136 14.3574 41.5062 14.1426 41.3988 13.8203C41.0765 13.6055 41.0765 13.3906 41.2913 13.0684Z" fill="white"/>
<path d="M9.81641 38.3125L9.92383 39.0645C9.49414 39.1719 9.06445 39.1719 8.84961 39.0645C8.52734 38.957 8.3125 38.7422 8.20508 38.4199C7.99023 37.9902 7.99023 37.668 8.20508 37.2383C8.41992 36.8086 8.84961 36.3789 9.38672 36.1641C10.0313 35.8418 10.5684 35.7344 11.1055 35.8418C11.5352 35.9492 11.8574 36.1641 12.0723 36.5937C12.2871 36.916 12.2871 37.2383 12.1797 37.668C12.0723 37.8828 11.9648 38.0977 11.6426 38.4199L11.2129 37.8828C11.4277 37.7754 11.5352 37.5605 11.5352 37.4531C11.5352 37.2383 11.5352 37.1309 11.5352 36.916C11.4277 36.7012 11.2129 36.5937 10.998 36.4863C10.7832 36.4863 10.3535 36.4863 9.92383 36.7012C9.49414 36.916 9.17188 37.1309 9.06445 37.3457C8.95703 37.5605 8.95703 37.7754 9.06445 37.9902C9.17188 38.2051 9.2793 38.3125 9.49414 38.3125C9.2793 38.4199 9.49414 38.4199 9.81641 38.3125Z" fill="white"/>
<path d="M9.60156 40.7832L9.2793 40.2461L11.75 38.6348L11.9648 39.1719L11.6426 39.3867C11.8574 39.3867 12.0723 39.3867 12.0723 39.3867C12.1797 39.3867 12.2871 39.4941 12.2871 39.6016C12.3945 39.709 12.3945 39.9238 12.3945 40.0312L11.8574 40.2461C11.8574 40.1387 11.8574 40.0313 11.75 39.9238C11.75 39.8164 11.6426 39.8164 11.5352 39.8164C11.4277 39.8164 11.3203 39.8164 11.1055 39.9238C10.998 40.0313 10.6758 40.1387 10.2461 40.3535L9.60156 40.7832Z" fill="white"/>
<path d="M10.3535 41.9648L12.7168 40.1387L13.1465 40.6758L10.7832 42.502L10.3535 41.9648ZM13.0391 39.9238L13.5762 39.4941L14.0059 40.0313L13.4687 40.4609L13.0391 39.9238Z" fill="white"/>
<path d="M14.2207 41.9648L13.6836 42.3945L13.3613 42.0723L12.502 42.8242C12.2871 43.0391 12.1797 43.1465 12.1797 43.1465C12.1797 43.2539 12.1797 43.2539 12.1797 43.3613C12.1797 43.3613 12.2871 43.4687 12.3945 43.4687L11.9648 43.8984C11.8574 43.791 11.6426 43.6836 11.5352 43.5762C11.4277 43.4687 11.3203 43.3613 11.3203 43.2539C11.3203 43.1465 11.3203 43.0391 11.4277 42.9316C11.5352 42.8242 11.6426 42.7168 11.8574 42.5019L12.8242 41.6426V41.3203L13.2539 40.8906L13.4687 41.1055L13.8984 40.6758L14.6504 40.8906L13.8984 41.5352L14.2207 41.9648Z" fill="white"/>
<path d="M12.3945 44.3281L14.4355 42.2871L14.8652 42.7168L12.8242 44.7578L12.3945 44.3281ZM14.7578 41.9648L15.2949 41.4277L15.7246 41.8574L15.1875 42.3945L14.7578 41.9648Z" fill="white"/>
<path d="M16.4766 45.0801L15.9395 44.7578C16.0469 44.543 16.0469 44.3282 15.832 44.1133C15.7246 44.0059 15.6172 44.0059 15.4023 44.0059C15.2949 44.0059 15.0801 44.2207 14.8652 44.4356C14.6504 44.7578 14.543 44.9727 14.543 45.0801C14.543 45.295 14.543 45.4024 14.7578 45.5098C14.8652 45.6172 14.9727 45.6172 15.0801 45.6172C15.1875 45.6172 15.2949 45.5098 15.5098 45.4024L15.9395 45.9395C15.4023 46.3692 14.8652 46.4766 14.4355 46.0469C14.1133 45.8321 14.0059 45.5098 14.0059 45.1875C14.0059 44.8653 14.2207 44.543 14.4355 44.2207C14.7578 43.791 15.0801 43.5762 15.4023 43.5762C15.7246 43.4688 16.0469 43.5762 16.3691 43.791C16.584 44.0059 16.6914 44.2207 16.7988 44.4356C16.9062 44.6504 16.584 44.7578 16.4766 45.0801Z" fill="white"/>
<path d="M17.2285 45.6172L16.7988 45.1875C17.0137 44.9727 17.2285 44.8652 17.4434 44.8652C17.6582 44.8652 17.873 44.8652 18.1953 45.0801C18.4102 45.1875 18.625 45.4023 18.625 45.5098C18.7324 45.6172 18.7324 45.832 18.7324 45.9395C18.7324 46.0469 18.625 46.2617 18.4102 46.584L17.9805 47.3359C17.873 47.5508 17.7656 47.7656 17.6582 47.873C17.6582 47.9805 17.5508 48.0879 17.5508 48.3027L17.0137 47.9805L17.1211 47.6582C16.9063 47.6582 16.7988 47.7656 16.6914 47.7656C16.584 47.7656 16.3691 47.7656 16.2617 47.6582C16.0469 47.5508 15.9395 47.3359 15.9395 47.1211C15.9395 46.9063 15.9395 46.6914 16.0469 46.4766C16.1543 46.3691 16.2617 46.2617 16.3691 46.1543C16.4766 46.0469 16.584 46.0469 16.7988 46.0469C16.9063 46.0469 17.1211 46.0469 17.3359 46.1543C17.6582 46.2617 17.873 46.2617 17.9805 46.3691C18.0879 46.2617 18.0879 46.1543 18.0879 46.0469C18.0879 45.9395 18.0879 45.9395 18.0879 45.832C18.0879 45.7246 17.9805 45.7246 17.873 45.6172C17.7656 45.5098 17.6582 45.5098 17.5508 45.5098C17.4434 45.5098 17.3359 45.5098 17.2285 45.6172ZM17.6582 46.584C17.5508 46.584 17.4434 46.584 17.2285 46.4766C17.0137 46.3691 16.9063 46.3691 16.7988 46.3691C16.6914 46.3691 16.6914 46.4766 16.584 46.4766C16.4766 46.584 16.4766 46.6914 16.4766 46.7988C16.4766 46.9062 16.584 47.0137 16.584 47.0137C16.6914 47.0137 16.7988 47.1211 16.9063 47.1211C17.0137 47.1211 17.1211 47.1211 17.2285 47.0137C17.3359 46.9062 17.4434 46.7988 17.5508 46.6914L17.6582 46.584Z" fill="white"/>
<path d="M18.1953 48.5176L20.0215 44.8652L20.5586 45.1875L18.7324 48.8398L18.1953 48.5176Z" fill="white"/>
<path d="M24.748 49.1621L25.3925 49.5918C25.1777 50.0215 24.9628 50.3437 24.6405 50.4511C24.3183 50.5586 24.1034 50.666 23.6737 50.5586C23.2441 50.4511 22.9218 50.2363 22.707 49.8066C22.4921 49.3769 22.3847 48.8398 22.5995 48.1953C22.707 47.5508 23.0292 47.0136 23.3515 46.6914C23.6737 46.3691 24.1034 46.3691 24.5331 46.4765C24.8554 46.584 25.1777 46.7988 25.3925 47.0136C25.4999 47.2285 25.6073 47.5508 25.6073 47.873H24.8554C24.8554 47.6582 24.8554 47.4433 24.748 47.3359C24.6405 47.2285 24.5331 47.1211 24.3183 47.1211C24.1034 47.1211 23.8886 47.1211 23.6737 47.3359C23.4589 47.5508 23.3515 47.873 23.2441 48.3027C23.1366 48.8398 23.1366 49.1621 23.2441 49.3769C23.3515 49.5918 23.5663 49.8066 23.7812 49.8066C23.996 49.8066 24.1034 49.8066 24.3183 49.6992C24.4257 49.5918 24.6405 49.4844 24.748 49.1621Z" fill="white"/>
<path d="M25.9299 49.377C25.9299 49.0547 26.0374 48.8398 26.1448 48.625C26.2522 48.4102 26.467 48.1953 26.6819 48.0879C26.8967 47.9805 27.1116 47.9805 27.3264 47.9805C27.7561 47.9805 27.9709 48.1953 28.1858 48.5176C28.4006 48.8398 28.5081 49.1621 28.5081 49.5918C28.5081 49.9141 28.4006 50.1289 28.2932 50.4512C28.1858 50.666 27.9709 50.8809 27.7561 50.9883C27.5413 51.0957 27.3264 51.2031 27.1116 51.0957C26.7893 51.0957 26.467 50.8809 26.2522 50.666C25.9299 50.2363 25.8225 49.8066 25.9299 49.377ZM26.5745 49.377C26.5745 49.6992 26.5745 49.9141 26.6819 50.0215C26.7893 50.1289 26.8967 50.2363 27.1116 50.2363C27.3264 50.2363 27.4338 50.1289 27.5413 50.0215C27.6487 49.9141 27.7561 49.6992 27.7561 49.377C27.7561 49.0547 27.7561 48.8398 27.6487 48.7324C27.5413 48.625 27.4338 48.5176 27.219 48.5176C27.0042 48.5176 26.8967 48.625 26.7893 48.7324C26.6819 48.8398 26.5745 49.1621 26.5745 49.377Z" fill="white"/>
<path d="M31.4082 50.7734L30.7637 50.8809L30.6562 49.377C30.6562 49.0547 30.5488 48.8398 30.5488 48.7324C30.5488 48.625 30.4414 48.5176 30.4414 48.5176C30.334 48.5176 30.334 48.4102 30.2266 48.4102C30.1191 48.4102 30.0117 48.4102 29.9043 48.5176C29.7969 48.625 29.7969 48.7324 29.7969 48.8398C29.7969 48.9473 29.7969 49.1621 29.7969 49.4844L29.9043 50.7734L29.1523 50.9883L28.9375 48.0879H29.582V48.5176C29.6895 48.3027 29.7969 48.1953 29.9043 48.0879C30.0117 47.9805 30.2266 47.9805 30.334 47.873C30.5488 47.873 30.6563 47.873 30.8711 47.9805C31.0859 48.0879 31.0859 48.1953 31.1934 48.3027C31.3008 48.4102 31.3008 48.625 31.3008 48.9473L31.4082 50.7734Z" fill="white"/>
<path d="M32.8047 47.5508L32.9121 48.1953L32.4824 48.3027L32.6973 49.4844C32.6973 49.6992 32.8047 49.9141 32.8047 49.9141C32.8047 50.0215 32.9121 50.0215 33.0195 50.0215C33.127 50.0215 33.127 50.0215 33.2344 49.9141L33.4492 50.4512C33.3418 50.5586 33.127 50.666 33.0195 50.666C32.8047 50.666 32.6973 50.666 32.5898 50.666C32.4824 50.5586 32.375 50.5586 32.375 50.3438C32.375 50.2363 32.2676 50.0215 32.1602 49.6992L31.9453 48.4102L31.623 48.5176L31.4082 47.7656L31.7305 47.6582L31.623 47.1211L32.1602 46.584L32.375 47.5508H32.8047Z" fill="white"/>
<path d="M34.5234 50.0215L33.8789 50.2363L33.127 47.4434L33.6641 47.2285L33.7715 47.6582C33.7715 47.4434 33.8789 47.3359 33.8789 47.2285C33.9863 47.1211 33.9863 47.1211 34.0937 47.0137C34.2012 47.0137 34.416 47.0137 34.5234 47.0137V47.7656C34.416 47.7656 34.3086 47.6582 34.2012 47.7656C34.0937 47.7656 34.0937 47.873 33.9863 47.873C33.9863 47.9805 33.8789 48.0879 33.9863 48.3027C33.9863 48.5176 34.0937 48.7324 34.2012 49.2695L34.5234 50.0215Z" fill="white"/>
<path d="M35.168 48.3027C35.0605 48.0879 35.0605 47.7656 35.0605 47.5508C35.0605 47.3359 35.168 47.0137 35.2754 46.9063C35.3828 46.6914 35.5977 46.584 35.8125 46.4766C36.1348 46.3691 36.5645 46.3691 36.8867 46.584C37.209 46.7988 37.4238 47.0137 37.6387 47.4434C37.7461 47.7656 37.8535 47.9805 37.7461 48.3027C37.7461 48.625 37.6387 48.8398 37.5312 48.9473C37.4238 49.1621 37.209 49.2695 36.9941 49.377C36.6719 49.4844 36.3496 49.4844 36.0273 49.377C35.5977 49.0547 35.3828 48.7324 35.168 48.3027ZM35.8125 48.0879C35.9199 48.4102 36.0273 48.5176 36.2422 48.625C36.457 48.7324 36.5644 48.7324 36.7793 48.625C36.8867 48.5176 36.9941 48.4102 37.1016 48.3027C37.1016 48.0879 37.1016 47.8731 36.9941 47.6582C36.8867 47.3359 36.7793 47.2285 36.5645 47.1211C36.3496 47.0137 36.2422 47.0137 36.1348 47.1211C36.0273 47.2285 35.9199 47.3359 35.8125 47.4434C35.7051 47.5508 35.7051 47.873 35.8125 48.0879Z" fill="white"/>
<path d="M38.7129 48.4102L36.7793 44.8652L37.3164 44.543L39.25 48.0879L38.7129 48.4102Z" fill="white"/>
<path d="M42.3652 46.0469L39.6797 43.0391L40.5391 42.2871C40.8613 41.9648 41.0762 41.8574 41.1836 41.75C41.3984 41.6426 41.6133 41.6426 41.8281 41.75C42.043 41.8574 42.2578 41.9648 42.4727 42.1797C42.6875 42.3945 42.7949 42.6094 42.7949 42.8242C42.7949 43.0391 42.7949 43.2539 42.7949 43.4687C42.6875 43.6836 42.5801 43.8984 42.2578 44.1133L41.9356 44.4355L43.0098 45.6172L42.3652 46.0469ZM40.6465 43.0391L41.3984 43.8984L41.7207 43.6836C41.9355 43.4687 42.043 43.3613 42.043 43.2539C42.043 43.1465 42.1504 43.0391 42.043 42.9316C42.043 42.8242 41.9356 42.7168 41.9356 42.6094C41.8281 42.502 41.7207 42.3945 41.6133 42.3945C41.5059 42.3945 41.3984 42.3945 41.291 42.3945C41.1836 42.3945 41.0762 42.502 40.8613 42.7168L40.6465 43.0391Z" fill="white"/>
<path d="M43.6543 42.8242C43.4395 42.6094 43.2246 42.3945 43.1172 42.1797C43.0098 41.9648 43.0098 41.75 43.0098 41.5352C43.0098 41.3203 43.1172 41.1055 43.2246 40.8906C43.4394 40.5684 43.7617 40.4609 44.1914 40.4609C44.6211 40.4609 44.9434 40.5684 45.2656 40.8906C45.4805 41.1055 45.6953 41.3203 45.8027 41.5352C45.9102 41.75 45.9102 41.9648 45.9102 42.2871C45.9102 42.502 45.8027 42.7168 45.6953 42.9316C45.4805 43.2539 45.1582 43.3613 44.8359 43.3613C44.5137 43.3613 44.084 43.1465 43.6543 42.8242ZM44.084 42.2871C44.2988 42.502 44.5137 42.6094 44.7285 42.6094C44.9434 42.6094 45.0508 42.502 45.1582 42.3945C45.2656 42.2871 45.2656 42.0723 45.2656 41.9648C45.2656 41.75 45.0508 41.5352 44.8359 41.4277C44.6211 41.2129 44.4062 41.1055 44.1914 41.1055C43.9766 41.1055 43.8691 41.2129 43.7617 41.3203C43.6543 41.4277 43.6543 41.6426 43.6543 41.75C43.7617 41.9648 43.8691 42.0723 44.084 42.2871Z" fill="white"/>
<path d="M43.9766 39.3867L43.332 38.957L43.6543 38.4199L44.2988 38.8496L43.9766 39.3867ZM46.7695 41.2129L44.2988 39.6016L44.6211 39.0645L47.0918 40.6758L46.7695 41.2129Z" fill="white"/>
<path d="M48.7031 37.8828L48.3809 38.4199L47.0918 37.7754C46.877 37.668 46.6621 37.5605 46.5547 37.5605C46.4473 37.5605 46.3398 37.5605 46.3398 37.5605C46.2324 37.5605 46.2324 37.668 46.125 37.7754C46.125 37.8828 46.0176 37.9902 46.125 38.0977C46.125 38.2051 46.2324 38.3125 46.3398 38.4199C46.4473 38.5273 46.6621 38.6348 46.877 38.7422L48.0586 39.3867L47.7363 39.9238L45.1582 38.5273L45.4805 37.9902L45.9102 38.2051C45.8027 37.9902 45.8027 37.8828 45.6953 37.668C45.5879 37.4531 45.6953 37.3457 45.8027 37.2383C45.9102 37.0234 46.0176 36.916 46.125 36.916C46.2324 36.8086 46.4473 36.8086 46.5547 36.8086C46.6621 36.8086 46.877 36.916 47.1992 37.0234L48.7031 37.8828Z" fill="white"/>
<path d="M46.6621 34.9824L47.1992 35.1973L47.0918 35.627L48.166 36.0566C48.3809 36.1641 48.5957 36.1641 48.5957 36.1641C48.7031 36.1641 48.7031 36.1641 48.8105 36.0566C48.8105 35.9492 48.8105 35.9492 48.8105 35.8418L49.3477 36.0566C49.3477 36.2715 49.3477 36.3789 49.2402 36.5937C49.1328 36.7012 49.1328 36.8086 49.0254 36.916C48.918 37.0234 48.8105 37.0234 48.5957 37.0234C48.4883 37.0234 48.2734 36.916 47.9512 36.8086L46.7695 36.3789L46.6621 36.7012L46.125 36.4863L46.2324 36.1641L45.6953 35.9492L45.4805 35.1973L46.4473 35.627L46.6621 34.9824Z" fill="white"/>
<path d="M37.3164 38.2051C34.6309 40.7832 30.9785 42.2871 27.2188 42.1797C23.459 42.0723 19.9141 40.5684 17.2285 37.8828C16.3691 37.0234 15.7246 36.0566 15.0801 35.0898H13.4688C14.1133 36.4863 15.0801 37.7754 16.1543 38.957C19.0547 41.9648 22.9219 43.6836 27.1113 43.6836C27.2188 43.6836 27.3262 43.6836 27.4336 43.6836C31.5156 43.6836 35.2754 42.1797 38.2832 39.2793C39.5723 37.9902 40.6465 36.5938 41.3984 35.0898H39.8945C39.1426 36.1641 38.3906 37.2383 37.3164 38.2051Z" fill="white"/>
<path d="M27.7559 13.8203C32.6973 13.9277 36.9941 16.6133 39.4648 20.4805H41.0762C38.498 15.7539 33.4492 12.5312 27.7559 12.4238C21.7402 12.3164 16.4766 15.539 13.791 20.4805H15.4023C18.0879 16.3984 22.5996 13.7129 27.7559 13.8203Z" fill="white"/>
<path d="M26.1445 7.91211C26.5005 7.91211 26.7891 7.62354 26.7891 7.26758C26.7891 6.91161 26.5005 6.62305 26.1445 6.62305C25.7886 6.62305 25.5 6.91161 25.5 7.26758C25.5 7.62354 25.7886 7.91211 26.1445 7.91211Z" fill="white"/>
<path d="M21.3105 48.5176C21.6665 48.5176 21.9551 48.229 21.9551 47.873C21.9551 47.5171 21.6665 47.2285 21.3105 47.2285C20.9546 47.2285 20.666 47.5171 20.666 47.873C20.666 48.229 20.9546 48.5176 21.3105 48.5176Z" fill="white"/>
<path d="M39.5723 46.0469C39.9282 46.0469 40.2168 45.7583 40.2168 45.4023C40.2168 45.0464 39.9282 44.7578 39.5723 44.7578C39.2163 44.7578 38.9277 45.0464 38.9277 45.4023C38.9277 45.7583 39.2163 46.0469 39.5723 46.0469Z" fill="white"/>
</g>
<defs>
<clipPath id="clip0">
<rect width="55" height="55" fill="white" transform="translate(0.148438 0.5)"/>
</clipPath>
</defs>
</svg>
