<svg width="45" height="46" viewBox="0 0 45 46" fill="none" xmlns="http://www.w3.org/2000/svg">
<g clip-path="url(#clip0)">
<path d="M40.2102 44.6245H4.91016" stroke="white" stroke-width="1.2" stroke-miterlimit="10" stroke-linecap="round" stroke-linejoin="round"/>
<path d="M0.910156 39.9245V4.02449C0.910156 2.22449 2.41016 0.724487 4.21016 0.724487H40.9102C42.7102 0.724487 44.2102 2.22449 44.2102 4.02449V39.9245" stroke="white" stroke-width="1.2" stroke-miterlimit="10" stroke-linecap="round" stroke-linejoin="round"/>
<path d="M25.6102 6.82446H19.4102V16.0245H25.6102V6.82446Z" stroke="white" stroke-width="1.2" stroke-miterlimit="10" stroke-linecap="round" stroke-linejoin="round"/>
<path d="M22.6104 16.0245V17.4245" stroke="white" stroke-width="1.2" stroke-miterlimit="10" stroke-linecap="round" stroke-linejoin="round"/>
<path d="M22.9105 22.1245H17.8105C14.2105 22.1245 11.3105 25.3245 11.3105 29.4245C11.3105 33.4245 14.2105 36.7245 17.8105 36.7245H31.8105C33.6105 36.7245 35.1105 35.1245 35.1105 33.1245C35.1105 31.1245 33.6105 29.5245 31.8105 29.5245H28.4105C27.0105 29.5245 25.8105 28.2245 25.8105 26.6245V25.1245C25.9105 23.3245 24.3105 22.1245 22.9105 22.1245Z" stroke="white" stroke-width="1.2" stroke-miterlimit="10" stroke-linecap="round" stroke-linejoin="round"/>
<path d="M16.41 28.9245C17.3488 28.9245 18.11 28.1634 18.11 27.2245C18.11 26.2857 17.3488 25.5245 16.41 25.5245C15.4711 25.5245 14.71 26.2857 14.71 27.2245C14.71 28.1634 15.4711 28.9245 16.41 28.9245Z" stroke="white" stroke-width="1.2" stroke-miterlimit="10" stroke-linecap="round" stroke-linejoin="round"/>
<path d="M4.91016 44.6245C7.1193 44.6245 8.91016 42.8337 8.91016 40.6245C8.91016 38.4154 7.1193 36.6245 4.91016 36.6245C2.70102 36.6245 0.910156 38.4154 0.910156 40.6245C0.910156 42.8337 2.70102 44.6245 4.91016 44.6245Z" stroke="white" stroke-width="1.2" stroke-miterlimit="10" stroke-linecap="round" stroke-linejoin="round"/>
<path d="M24.1104 44.6245C26.3195 44.6245 28.1104 42.8337 28.1104 40.6245C28.1104 38.4154 26.3195 36.6245 24.1104 36.6245C21.9012 36.6245 20.1104 38.4154 20.1104 40.6245C20.1104 42.8337 21.9012 44.6245 24.1104 44.6245Z" stroke="white" stroke-width="1.2" stroke-miterlimit="10" stroke-linecap="round" stroke-linejoin="round"/>
<path d="M40.21 44.6245C42.4191 44.6245 44.21 42.8337 44.21 40.6245C44.21 38.4154 42.4191 36.6245 40.21 36.6245C38.0008 36.6245 36.21 38.4154 36.21 40.6245C36.21 42.8337 38.0008 44.6245 40.21 44.6245Z" stroke="white" stroke-width="1.2" stroke-miterlimit="10" stroke-linecap="round" stroke-linejoin="round"/>
<path d="M4.70996 36.6245H40.31" stroke="white" stroke-width="1.2" stroke-miterlimit="10" stroke-linecap="round" stroke-linejoin="round"/>
<path d="M0.910156 11.4244H19.4102" stroke="white" stroke-width="1.2" stroke-miterlimit="10" stroke-linecap="round" stroke-linejoin="round"/>
<path d="M25.6104 11.4244H44.2104" stroke="white" stroke-width="1.2" stroke-miterlimit="10" stroke-linecap="round" stroke-linejoin="round"/>
</g>
<defs>
<clipPath id="clip0">
<rect width="44.5" height="45.1" fill="white" transform="translate(0.310547 0.124512)"/>
</clipPath>
</defs>
</svg>
