<svg width="56" height="56" viewBox="0 0 56 56" fill="none" xmlns="http://www.w3.org/2000/svg">
<g clip-path="url(#clip0)">
<path d="M21.5925 44.318C23.4596 44.318 24.9731 42.8044 24.9731 40.9374C24.9731 39.0703 23.4596 37.5568 21.5925 37.5568C19.7255 37.5568 18.2119 39.0703 18.2119 40.9374C18.2119 42.8044 19.7255 44.318 21.5925 44.318Z" fill="white"/>
<path d="M14.4417 30.4055H24.8436L20.1628 16.4929C19.7727 15.1927 18.4725 14.2825 17.0422 14.2825H10.541V25.0745V26.5048C10.541 28.7152 12.2313 30.4055 14.4417 30.4055Z" fill="white"/>
<path d="M8.32987 36.2565C10.6703 36.2565 12.6207 38.0769 13.0107 40.2873H13.1407H17.0415C17.4315 37.9468 19.2519 36.2565 21.7223 36.2565C24.0627 36.2565 26.0131 38.0769 26.4032 40.2873H29.1337V31.7057H14.441C11.5805 31.7057 9.24004 29.3653 9.24004 26.5048V25.7246H4.29914C2.9989 25.7246 1.82869 26.5048 1.30859 27.675C1.30859 27.805 1.30859 27.935 1.30859 27.935C1.30859 31.9657 2.21876 35.8665 3.90907 39.2471C4.55919 37.5568 6.24949 36.2565 8.32987 36.2565Z" fill="white"/>
<path d="M34.2052 40.2872H44.4771V29.7553H39.9263V34.3061C39.9263 34.6962 39.6662 34.9563 39.2761 34.9563C38.8861 34.9563 38.626 34.6962 38.626 34.3061V29.7553H34.0752V40.2872H34.2052Z" fill="white"/>
<path d="M34.2051 17.9232V28.4551H44.477V17.9232H39.9261V22.604C39.9261 22.9941 39.6661 23.2541 39.276 23.2541C38.8859 23.2541 38.6259 22.9941 38.6259 22.604V17.9232H34.2051Z" fill="white"/>
<path d="M11.7114 40.9374C11.7114 39.117 10.1511 37.5568 8.33081 37.5568C6.51048 37.5568 4.9502 39.117 4.9502 40.9374C4.9502 41.0674 4.9502 41.0674 4.9502 41.1974C5.47029 42.2376 6.12041 43.1478 6.90055 44.0579C7.29062 44.318 7.81072 44.448 8.33081 44.448C10.1511 44.318 11.7114 42.8877 11.7114 40.9374Z" fill="white"/>
<path d="M27.4432 1.80023C13.9207 1.80023 2.73871 12.2021 1.43848 25.4645C2.21862 24.8144 3.25881 24.4243 4.299 24.4243H9.23989V13.5024C9.23989 13.1123 9.49994 12.8522 9.89001 12.8522H17.0413C18.9917 12.8522 20.812 14.1525 21.3321 15.9728L26.143 30.4054H29.0035V11.422C29.0035 11.0319 29.2635 10.7719 29.6536 10.7719C30.0437 10.7719 30.3037 11.0319 30.3037 11.422V40.2872H32.7742V17.273C32.7742 16.883 33.0342 16.6229 33.4243 16.6229H45.1264C45.5165 16.6229 45.7765 16.883 45.7765 17.273V40.9374C45.7765 41.3274 45.5165 41.5875 45.1264 41.5875H33.4243H29.5236H26.0129C25.6229 43.9279 23.8025 45.6182 21.3321 45.6182C18.9917 45.6182 17.0413 43.7979 16.6512 41.5875H12.7505H12.6205C12.3605 43.9279 10.4101 45.6182 7.93966 45.6182C12.7505 50.8191 19.5118 54.0697 27.1832 54.0697C41.6158 54.0697 53.3179 42.3676 53.3179 27.935C53.3179 13.5024 41.8758 1.80023 27.4432 1.80023Z" fill="#F1404B"/>
<path d="M27.4438 0.5C12.6211 0.5 0.39886 12.4622 0.00878906 27.2849C0.00878906 27.5449 0.00878906 27.805 0.00878906 28.065C0.00878906 30.6655 0.39886 33.1359 1.04898 35.4764C1.56907 37.1667 2.21919 38.857 2.99933 40.4173C3.9095 42.1076 4.94969 43.6679 6.1199 45.2281C11.1908 51.4693 18.8622 55.63 27.5738 55.63C42.7866 55.63 55.0088 43.2778 55.0088 28.195C55.0088 13.1123 42.6565 0.5 27.4438 0.5ZM1.30903 27.935C1.30903 27.805 1.30903 27.6749 1.30903 27.6749C1.82912 26.5047 2.99933 25.7246 4.29957 25.7246H9.24047V26.5047C9.24047 29.3652 11.5809 31.7057 14.4414 31.7057H29.1341V40.2872H26.4036C26.0135 37.9468 24.1932 36.2565 21.7227 36.2565C19.3823 36.2565 17.432 38.0768 17.0419 40.2872H13.1412H13.0112C12.7511 37.9468 10.8008 36.2565 8.3303 36.2565C6.37995 36.2565 4.68964 37.5567 3.9095 39.247C2.21919 35.8664 1.30903 31.9657 1.30903 27.935ZM10.5407 26.5047V25.0745V14.2825H17.0419C18.4721 14.2825 19.6424 15.1927 20.1625 16.4929L24.7133 30.4054H14.3114C12.231 30.4054 10.5407 28.7151 10.5407 26.5047ZM24.9733 40.9374C24.9733 42.7577 23.413 44.318 21.5927 44.318C19.7724 44.318 18.2121 42.7577 18.2121 40.9374C18.2121 39.117 19.7724 37.5567 21.5927 37.5567C23.5431 37.5567 24.9733 39.117 24.9733 40.9374ZM6.90004 44.0579C6.24992 43.1478 5.59981 42.2376 4.94969 41.1974C4.94969 41.0674 4.94969 41.0674 4.94969 40.9374C4.94969 39.117 6.50997 37.5567 8.3303 37.5567C10.1506 37.5567 11.7109 39.117 11.7109 40.9374C11.7109 42.7577 10.1506 44.318 8.3303 44.318C7.81021 44.318 7.29011 44.1879 6.90004 44.0579ZM27.4438 54.1998C19.9024 54.1998 13.0112 50.9492 8.20028 45.7482C10.5407 45.7482 12.4911 43.9279 12.8811 41.7175H13.0112H16.9119C17.3019 44.0579 19.1223 45.7482 21.5927 45.7482C23.9331 45.7482 25.8835 43.9279 26.2736 41.7175H29.7842H33.6849H45.387C45.7771 41.7175 46.0372 41.4575 46.0372 41.0674V17.2731C46.0372 16.883 45.7771 16.6229 45.387 16.6229H33.6849C33.2948 16.6229 33.0348 16.883 33.0348 17.2731V40.2872H30.5643V11.422C30.5643 11.0319 30.3043 10.7719 29.9142 10.7719C29.5242 10.7719 29.2641 11.0319 29.2641 11.422V30.4054H26.4036L21.5927 15.9728C20.9426 14.1525 19.2523 12.8522 17.3019 12.8522H9.89059C9.50051 12.8522 9.24047 13.1123 9.24047 13.5024V24.2943H4.29957C3.25938 24.2943 2.21919 24.6844 1.43905 25.3345C2.73929 12.2021 13.9213 1.80024 27.4438 1.80024C41.8764 1.80024 53.5785 13.5024 53.5785 27.935C53.5785 42.3676 41.8764 54.1998 27.4438 54.1998ZM39.406 23.2541C39.796 23.2541 40.0561 22.9941 40.0561 22.604V17.9232H44.6069V28.4551H34.335V17.9232H38.8859V22.604C38.7558 22.9941 39.0159 23.2541 39.406 23.2541ZM38.7558 29.7553V34.3061C38.7558 34.6962 39.0159 34.9563 39.406 34.9563C39.796 34.9563 40.0561 34.6962 40.0561 34.3061V29.7553H44.6069V40.2872H34.335V29.7553H38.7558Z" fill="#252B41"/>
</g>
<defs>
<clipPath id="clip0">
<rect width="55" height="55" fill="white" transform="translate(0.00878906 0.5)"/>
</clipPath>
</defs>
</svg>
