<svg width="46" height="46" viewBox="0 0 46 46" fill="none" xmlns="http://www.w3.org/2000/svg">
<g clip-path="url(#clip0)">
<path d="M2.19238 1.35767H42.2924" stroke="white" stroke-width="1.2" stroke-miterlimit="10" stroke-linecap="round" stroke-linejoin="round"/>
<path d="M33.293 1.35767V15.0577" stroke="white" stroke-width="1.2" stroke-miterlimit="10" stroke-linecap="round" stroke-linejoin="round"/>
<path d="M35.3925 45.0577C34.8925 45.0577 34.3925 44.9577 33.9925 44.7577C30.8925 43.9577 28.5925 41.4577 27.4925 38.5577C26.2925 35.4577 26.4924 32.2577 26.7924 29.0577C26.9924 26.3577 27.2924 23.6577 27.7924 21.0577C27.8924 20.2577 28.0924 19.3577 28.3924 18.6577C29.1924 17.0577 30.4925 15.8577 33.4925 15.7577C35.1925 15.6577 36.8924 16.1577 37.9924 17.5577C38.7924 18.4577 39.1925 19.5577 39.3925 20.6577C39.6925 21.8577 39.6924 23.0577 40.0924 24.2577C40.5924 25.5577 41.8925 26.3577 42.6925 27.4577C43.6925 29.0577 44.4925 30.5577 44.8925 32.4577C45.5925 36.5577 44.5924 41.6577 40.7924 43.9577C39.1924 44.8577 37.2925 45.2577 35.3925 45.0577Z" stroke="white" stroke-width="1.2" stroke-miterlimit="10" stroke-linecap="round" stroke-linejoin="round"/>
<path d="M38.7926 39.0577C40.1181 39.0577 41.1926 37.9832 41.1926 36.6577C41.1926 35.3322 40.1181 34.2577 38.7926 34.2577C37.4671 34.2577 36.3926 35.3322 36.3926 36.6577C36.3926 37.9832 37.4671 39.0577 38.7926 39.0577Z" stroke="white" stroke-width="1.2" stroke-miterlimit="10" stroke-linecap="round" stroke-linejoin="round"/>
<path d="M33.2926 21.4577H25.7926C24.6926 21.4577 23.8926 20.5577 23.8926 19.5577V17.6577" stroke="white" stroke-width="1.2" stroke-miterlimit="10" stroke-linecap="round" stroke-linejoin="round"/>
<path d="M10.9932 1.35767V15.0577" stroke="white" stroke-width="1.2" stroke-miterlimit="10" stroke-linecap="round" stroke-linejoin="round"/>
<path d="M13.1932 45.0577C12.6932 45.0577 12.1932 44.9577 11.7932 44.7577C8.69323 43.9577 6.39323 41.4577 5.29323 38.5577C4.09323 35.4577 4.29323 32.2577 4.59323 29.0577C4.79323 26.3577 5.09323 23.6577 5.59323 21.0577C5.69323 20.2577 5.89323 19.3577 6.19323 18.6577C6.99323 17.0577 8.29323 15.8577 11.2932 15.7577C12.9932 15.6577 14.6932 16.1577 15.7932 17.5577C16.5932 18.4577 16.9932 19.5577 17.1932 20.6577C17.4932 21.8577 17.4932 23.0577 17.8932 24.2577C18.3932 25.5577 19.6932 26.3577 20.4932 27.4577C21.4932 29.0577 22.2932 30.5577 22.6932 32.4577C23.3932 36.5577 22.3932 41.6577 18.5932 43.9577C16.9932 44.8577 14.9932 45.2577 13.1932 45.0577Z" stroke="white" stroke-width="1.2" stroke-miterlimit="10" stroke-linecap="round" stroke-linejoin="round"/>
<path d="M16.4928 39.0577C17.8183 39.0577 18.8928 37.9832 18.8928 36.6577C18.8928 35.3322 17.8183 34.2577 16.4928 34.2577C15.1673 34.2577 14.0928 35.3322 14.0928 36.6577C14.0928 37.9832 15.1673 39.0577 16.4928 39.0577Z" stroke="white" stroke-width="1.2" stroke-miterlimit="10" stroke-linecap="round" stroke-linejoin="round"/>
<path d="M10.9928 21.4577H3.49277C2.39277 21.4577 1.59277 20.5577 1.59277 19.5577V17.6577" stroke="white" stroke-width="1.2" stroke-miterlimit="10" stroke-linecap="round" stroke-linejoin="round"/>
</g>
<defs>
<clipPath id="clip0">
<rect width="44.7" height="45" fill="white" transform="translate(0.993164 0.75769)"/>
</clipPath>
</defs>
</svg>
