<svg width="51" height="21" viewBox="0 0 51 21" fill="none" xmlns="http://www.w3.org/2000/svg">
<path d="M1.17973 10.5376L10.5059 19.9126C10.7488 20.1567 11.1422 20.1567 11.3851 19.9126C11.628 19.6684 11.628 19.2729 11.3851 19.0288L3.12022 10.7207L49.9153 10.7207C50.259 10.7207 50.5371 10.4411 50.5371 10.0957C50.5371 9.7502 50.259 9.47065 49.9153 9.47065L3.12022 9.47064L11.3851 1.16258C11.628 0.918417 11.628 0.52291 11.3851 0.278809C11.2637 0.156758 11.1045 0.0957035 10.9455 0.0957035C10.7864 0.0957034 10.6273 0.156758 10.5058 0.278809L1.17968 9.65381C0.936845 9.89791 0.936849 10.2934 1.17973 10.5376Z" fill="#F34E4E"/>
</svg>
