<?xml version="1.0" encoding="utf-8"?>
<!-- Generator: Adobe Illustrator 21.1.0, SVG Export Plug-In . SVG Version: 6.00 Build 0)  -->
<svg version="1.1" id="Layer_1" xmlns="http://www.w3.org/2000/svg" xmlns:xlink="http://www.w3.org/1999/xlink" x="0px" y="0px"
	 viewBox="0 0 47 47" style="enable-background:new 0 0 47 47;" xml:space="preserve">
<path d="M46.8,14c-1.5-1.7-3.7-1.9-6.4-0.6c-3.7-2.3-10.2-3.1-20.3-2.6c-1.6,0.1-3.2,0.3-4.8,0.6c-0.5-1.3-1.2-2.6-2-3.8
	c-0.1-0.1-0.2-0.2-0.4-0.3s-0.3,0-0.5,0.1c-1.2,0.7-2.1,2-2.7,3.4C8.6,9.6,7.5,8.9,6.3,8.7c-0.2,0-0.3,0-0.5,0.1
	C5.7,8.8,5.6,9,5.6,9.1c-0.1,0.2-1.6,4.6-0.3,8c-0.6,0.7-1.2,1.5-1.7,2.2c-1,1.3-1.8,2.5-2.9,3.2c-0.1,0.1-0.2,0.2-0.3,0.3
	C0.1,23.7,0,24.5,0,25.4c0,0.9,0.2,1.7,0.6,2.5c0.1,0.1,0.1,0.2,0.3,0.3c0.1,0.1,0.2,0.1,0.3,0.1c2.1,0,3.6,0.6,5.2,1.1
	c1.8,0.7,3.8,1.2,5.8,1.3c0.1,0,0.1,0,0.2,0.1c0.5,1.8,1.5,5.6,1.3,8.3c0,0.1,0,0.2,0,0.3c0,0.1,0.1,0.2,0.1,0.2
	c0.1,0.1,0.1,0.1,0.2,0.2c0.1,0,0.2,0.1,0.3,0.1h3.3c0.2,0,0.3-0.1,0.5-0.2c0.1-0.1,0.2-0.3,0.2-0.4c0,0,0.2-1.5,0.4-3.9
	c0,0,0-0.1,0-0.1c0.2,1.3,0.3,2.6,0.3,3.9c0,0.1,0,0.2,0,0.3c0,0.1,0.1,0.2,0.1,0.2c0.1,0.1,0.1,0.1,0.2,0.2c0.1,0,0.2,0.1,0.3,0.1
	H23c0.2,0,0.3-0.1,0.5-0.2s0.2-0.3,0.2-0.4c0,0,0.2-1.5,0.4-3.9c0.1-0.7,0.3-1.5,0.6-2.2c1.8,0.1,3.6,0.2,5.4,0.1
	c0.4,1.8,0.8,4,0.7,5.8c0,0.1,0,0.2,0,0.3c0,0.1,0.1,0.2,0.1,0.2c0.1,0.1,0.1,0.1,0.2,0.2c0.1,0,0.2,0.1,0.3,0.1h3.3
	c0.2,0,0.3-0.1,0.5-0.2c0.1-0.1,0.2-0.3,0.2-0.4c0,0,0.2-1.5,0.4-3.9c0-0.2,0.1-0.4,0.1-0.6c0.3,1.4,0.4,2.9,0.4,4.4
	c0,0.1,0,0.2,0,0.3c0,0.1,0.1,0.2,0.1,0.2c0.1,0.1,0.1,0.1,0.2,0.2c0.1,0,0.2,0.1,0.3,0.1h3.3c0.2,0,0.3-0.1,0.5-0.2
	c0.1-0.1,0.2-0.3,0.2-0.4c0,0,0.2-1.5,0.4-3.9c0.2-0.9,0.4-1.8,0.8-2.7c0.9-2.4,2.2-5.6,2.2-10.6c0-0.3,0-0.6,0-0.9
	c0-0.5,0-0.9-0.1-1.4c-0.2-2-1.1-3.9-2.6-5.3c1.8-0.7,3.1-0.5,4.1,0.6c0.1,0.1,0.1,0.1,0.2,0.2c0.1,0,0.2,0.1,0.3,0.1
	c0.1,0,0.2,0,0.3,0c0.1,0,0.2-0.1,0.2-0.1c0.1-0.1,0.1-0.1,0.2-0.2c0-0.1,0.1-0.2,0.1-0.3c0-0.1,0-0.2,0-0.3
	C46.9,14.2,46.9,14.1,46.8,14L46.8,14z M6.7,10.2c1,0.5,1.8,1.2,2.4,2c-0.2,0.6-0.3,1.2-0.4,1.8c-0.8,0.6-1.6,1.2-2.3,1.9
	C5.9,13.9,6.4,11.4,6.7,10.2L6.7,10.2z M22.7,35.1c-0.1,1.4-0.2,2.5-0.3,3.2h-1.9c-0.1-2-0.4-3.9-0.8-5.8c1.2,0.2,2.5,0.4,3.7,0.5
	C23,33.7,22.8,34.4,22.7,35.1L22.7,35.1z M34.5,35.1c-0.1,1.4-0.2,2.5-0.3,3.2h-1.9c-0.1-1.8-0.3-3.5-0.7-5.2
	c1.2-0.1,2.5-0.2,3.7-0.5C34.8,33.4,34.6,34.3,34.5,35.1L34.5,35.1z M42.9,19.9c0.1,0.4,0.1,0.8,0.1,1.2c0,0.2,0,0.5,0,0.8v0
	c0,4.8-1.2,7.9-2.1,10.1c-0.5,1.2-0.8,2.2-0.9,3.1c-0.1,1.4-0.2,2.5-0.3,3.2h-1.9c0-2.2-0.6-4.9-1.1-6.8c0-0.2-0.1-0.3-0.3-0.4
	C36.3,31,36.1,31,35.9,31c0-0.1-0.1-0.3-0.1-0.4c0-0.1-0.1-0.2-0.1-0.2c-0.1-0.1-0.1-0.1-0.2-0.2c-0.1,0-0.2-0.1-0.3-0.1
	c-0.1,0-0.2,0-0.3,0c-0.1,0-0.2,0.1-0.2,0.1c-0.1,0.1-0.1,0.1-0.2,0.2c0,0.1-0.1,0.2-0.1,0.3c0,0.1,0,0.2,0,0.3
	c0,0.1,0.1,0.3,0.1,0.4c-1.5,0.3-3,0.4-4.5,0.5c-1.3,0.1-2.6,0.1-4,0c0.1-0.4,0.2-0.8,0.4-1.4c0-0.1,0-0.2,0-0.3
	c0-0.1,0-0.2-0.1-0.3c0-0.1-0.1-0.1-0.2-0.2c-0.1-0.1-0.2-0.1-0.2-0.1c-0.1,0-0.2,0-0.3,0c-0.1,0-0.2,0-0.3,0.1
	c-0.1,0-0.1,0.1-0.2,0.2c-0.1,0.1-0.1,0.2-0.1,0.2c-0.2,0.7-0.3,1.3-0.5,1.7c-1.8-0.1-3.6-0.4-5.4-0.7c-0.2,0-0.3,0-0.5,0.1
	c-0.1,0.1-0.3,0.2-0.3,0.4l-0.2,0.6c-0.5,1.2-0.8,2.2-0.9,3.1c-0.1,1.4-0.2,2.5-0.3,3.2h-1.9c0-2.9-0.9-6.4-1.5-8.4
	c0-0.1-0.1-0.2-0.1-0.2c-0.1-0.1-0.1-0.1-0.2-0.2c0-0.2,0-0.3-0.1-0.4c-0.1-0.1-0.2-0.2-0.4-0.3c-0.1,0-0.3,0-0.4,0
	c-0.1,0.1-0.3,0.1-0.3,0.3c0,0,0,0,0,0.1c-1.7-0.2-3.5-0.6-5.1-1.2c-1.6-0.7-3.4-1.1-5.2-1.2c-0.4-1.1-0.4-2.2,0-3.3
	c1.2-0.9,2.1-2.1,3-3.4C5.7,18.6,7,17.2,8.4,16c0,0.1,0,0.2,0,0.2c0,0.2,0,0.4,0.2,0.5c0.1,0.1,0.3,0.2,0.5,0.2c0,0,0,0,0.1,0
	c0.2,0,0.3-0.1,0.5-0.2c0.1-0.1,0.2-0.3,0.2-0.5c0.1-1.6,0.8-5.7,2.7-7.3c0.7,1.1,2.3,3.8,2.1,6.3c0,0.1,0,0.2,0,0.3
	c0,0.1,0.1,0.2,0.1,0.2c0.1,0.1,0.1,0.1,0.2,0.2c0.1,0,0.2,0.1,0.3,0.1c0.2,0,0.4,0,0.5-0.2c0.1-0.1,0.2-0.3,0.2-0.5
	c0.1-0.9,0-1.8-0.3-2.6c0.6-0.1,1.1-0.2,1.7-0.3c0,0.3,0,0.6,0,0.9c0,0.2,0,0.5,0,0.7c0,0.2,0.1,0.4,0.2,0.5
	c0.1,0.1,0.3,0.2,0.5,0.2h0c0.2,0,0.4-0.1,0.5-0.2c0.1-0.1,0.2-0.3,0.2-0.5c0-0.2,0-0.5,0-0.7c0-0.4,0-0.7,0-1
	c0.4,0,0.9-0.1,1.3-0.1c2.5-0.1,4.7-0.2,6.7-0.1c0.1,0.6,0.1,1.1,0.2,1.7c0,0.2,0.1,0.3,0.2,0.5c0.1,0.1,0.3,0.2,0.5,0.2h0
	c0.1,0,0.2,0,0.3-0.1c0.1,0,0.2-0.1,0.2-0.2c0.1-0.1,0.1-0.1,0.1-0.2c0-0.1,0-0.2,0-0.3c0-0.5-0.1-1.1-0.1-1.6
	c2.4,0.1,4.8,0.3,7.2,0.8c-0.3,0.4-0.5,0.8-0.8,1.2c-0.1,0.2-0.1,0.4,0,0.5c0.1,0.2,0.2,0.3,0.3,0.4c0.1,0,0.2,0.1,0.3,0.1
	c0.1,0,0.2,0,0.3,0s0.2-0.1,0.2-0.1c0.1-0.1,0.1-0.1,0.2-0.2c0.3-0.5,0.6-1,1-1.5C41.1,14.7,42.5,17,42.9,19.9L42.9,19.9z
	 M17.2,19.4c-0.2,0-0.3-0.2-0.4-0.3c-0.1-0.2-0.1-0.3-0.1-0.5c0.2-0.8,0.4-1.5,0.5-2.3c0-0.2,0.1-0.3,0.3-0.4
	c0.1-0.1,0.3-0.1,0.5-0.1c0.2,0,0.3,0.1,0.4,0.3c0.1,0.1,0.2,0.3,0.1,0.5c-0.1,0.8-0.3,1.6-0.5,2.4c0,0.1-0.1,0.2-0.1,0.2
	c-0.1,0.1-0.1,0.1-0.2,0.2c-0.1,0-0.2,0.1-0.3,0.1C17.4,19.4,17.3,19.4,17.2,19.4L17.2,19.4z M15.2,24.7c0.2,0.1,0.3,0.2,0.4,0.4
	c0.1,0.2,0,0.4,0,0.5c-0.4,0.7-0.7,1.4-1.1,2.1c-0.1,0.2-0.2,0.3-0.4,0.3c-0.2,0-0.4,0-0.5-0.1c-0.2-0.1-0.3-0.2-0.3-0.4
	c-0.1-0.2,0-0.4,0-0.5c0.4-0.7,0.7-1.4,1.1-2.1c0.1-0.2,0.2-0.3,0.4-0.4C14.8,24.7,15,24.7,15.2,24.7L15.2,24.7z M27.7,19.2
	c-0.1,0-0.2,0-0.3-0.1c-0.1,0-0.2-0.1-0.2-0.2c-0.1-0.1-0.1-0.1-0.1-0.2c0-0.1,0-0.2,0-0.3c0-0.8,0.1-1.6,0.1-2.3
	c0-0.2,0.1-0.4,0.2-0.5c0.1-0.1,0.3-0.2,0.5-0.2c0.1,0,0.2,0,0.3,0.1c0.1,0,0.2,0.1,0.2,0.1c0.1,0.1,0.1,0.1,0.2,0.2
	c0,0.1,0.1,0.2,0.1,0.3v0c0,0.8,0,1.6-0.1,2.4c0,0.2-0.1,0.3-0.2,0.5C28.1,19.1,27.9,19.2,27.7,19.2L27.7,19.2L27.7,19.2z M27,24.9
	c0.1,0,0.2,0.1,0.3,0.1c0.1,0,0.1,0.1,0.2,0.2c0.1,0.1,0.1,0.2,0.1,0.2c0,0.1,0,0.2,0,0.3c-0.1,0.8-0.3,1.6-0.5,2.4
	c0,0.2-0.1,0.3-0.2,0.4c-0.1,0.1-0.3,0.2-0.4,0.2c-0.1,0-0.1,0-0.1,0c-0.1,0-0.2-0.1-0.2-0.1c-0.1-0.1-0.1-0.1-0.2-0.2
	c0-0.1-0.1-0.2-0.1-0.3c0-0.1,0-0.2,0-0.3c0.2-0.8,0.3-1.5,0.5-2.3c0-0.1,0-0.2,0.1-0.3c0-0.1,0.1-0.1,0.2-0.2
	c0.1-0.1,0.2-0.1,0.2-0.1C26.8,24.9,26.9,24.9,27,24.9L27,24.9z M34.9,26c0.1,0.8,0.3,1.5,0.4,2.3c0,0.2,0,0.4-0.1,0.5
	c-0.1,0.2-0.3,0.3-0.4,0.3c-0.2,0-0.4,0-0.5-0.1c-0.2-0.1-0.3-0.3-0.3-0.4c-0.2-0.8-0.3-1.6-0.4-2.4c0-0.2,0-0.4,0.1-0.5
	c0.1-0.1,0.3-0.2,0.5-0.3c0.2,0,0.4,0,0.5,0.1C34.7,25.7,34.8,25.8,34.9,26L34.9,26z M34,24.4C33.9,24.4,33.9,24.4,34,24.4
	c-0.2,0-0.4-0.1-0.5-0.2c-0.1-0.1-0.2-0.3-0.2-0.5c-0.1-0.8-0.1-1.5-0.1-2.2v-0.2c0-0.2,0.1-0.4,0.2-0.5c0.1-0.1,0.3-0.2,0.5-0.2h0
	c0.1,0,0.2,0,0.3,0.1c0.1,0,0.2,0.1,0.2,0.2c0.1,0.1,0.1,0.1,0.1,0.2c0,0.1,0.1,0.2,0.1,0.3v0.2c0,0.7,0,1.4,0.1,2.1
	c0,0.2,0,0.4-0.2,0.5C34.3,24.3,34.1,24.4,34,24.4L34,24.4z M33.6,19.6c-0.1,0-0.1-0.1-0.2-0.2c-0.1-0.1-0.1-0.2-0.1-0.2
	c0-0.1,0-0.2,0-0.3c0.1-0.8,0.3-1.6,0.5-2.4c0.1-0.2,0.2-0.3,0.3-0.4c0.2-0.1,0.4-0.1,0.5-0.1c0.2,0.1,0.3,0.2,0.4,0.3
	c0.1,0.2,0.1,0.4,0.1,0.5c-0.2,0.7-0.3,1.5-0.4,2.2c0,0.2-0.1,0.3-0.2,0.4c-0.1,0.1-0.3,0.2-0.5,0.2c0,0-0.1,0-0.1,0
	C33.8,19.7,33.7,19.6,33.6,19.6z M23.3,22.4c0.2,0,0.3,0.1,0.4,0.3c0.1,0.2,0.1,0.3,0.1,0.5c0,0.2-0.1,0.3-0.3,0.4
	c-0.2,0.1-0.3,0.1-0.5,0.1c-0.8-0.2-1.6-0.3-2.3-0.4c-0.1,0-0.2,0-0.3-0.1c-0.1,0-0.2-0.1-0.2-0.2c-0.1-0.1-0.1-0.2-0.1-0.2
	c0-0.1,0-0.2,0-0.3c0-0.1,0-0.2,0.1-0.3c0-0.1,0.1-0.1,0.2-0.2c0.1-0.1,0.2-0.1,0.2-0.1c0.1,0,0.2,0,0.3,0
	C21.7,22.1,22.5,22.2,23.3,22.4L23.3,22.4z M18.5,21.8c0.2,0,0.4,0.1,0.5,0.2c0.1,0.1,0.2,0.3,0.2,0.5c0,0.1,0,0.2-0.1,0.3
	c0,0.1-0.1,0.2-0.2,0.2c-0.1,0.1-0.1,0.1-0.2,0.1c-0.1,0-0.2,0-0.3,0c-0.6,0-1.2,0-1.9,0.1c0,0.1-0.1,0.2-0.1,0.2
	c-0.1,0.2-0.2,0.3-0.4,0.4c-0.2,0.1-0.4,0.1-0.5,0c-0.2-0.1-0.3-0.2-0.4-0.4c-0.1-0.2-0.1-0.4,0-0.5c0.3-0.7,0.6-1.5,0.8-2.2
	c0-0.1,0.1-0.2,0.1-0.2c0.1-0.1,0.1-0.1,0.2-0.2c0.1,0,0.2-0.1,0.3-0.1c0.1,0,0.2,0,0.3,0c0.1,0,0.2,0.1,0.2,0.1s0.1,0.1,0.2,0.2
	c0,0.1,0.1,0.2,0.1,0.3c0,0.1,0,0.2,0,0.3c-0.1,0.2-0.1,0.4-0.2,0.6C17.6,21.8,18,21.7,18.5,21.8L18.5,21.8z M28,23.5
	c0.1,0,0.2,0.1,0.2,0.1c0.1,0.1,0.1,0.1,0.2,0.2c0,0.1,0.1,0.2,0.1,0.3c0,0.1,0,0.2,0,0.3c0,0.1-0.1,0.2-0.1,0.2
	c-0.1,0.1-0.1,0.1-0.2,0.2c-0.1,0-0.2,0.1-0.3,0.1c-0.1,0-0.2,0-0.3,0c-0.8-0.2-1.5-0.4-2.3-0.6c-0.2,0-0.3-0.2-0.4-0.3
	c-0.1-0.2-0.1-0.3-0.1-0.5c0-0.2,0.2-0.3,0.3-0.4s0.3-0.1,0.5-0.1c0.3,0.1,0.6,0.1,0.9,0.2c0,0,0,0,0,0c0.1-0.8,0.2-1.6,0.3-2.3
	c0-0.2,0.1-0.3,0.3-0.5c0.1-0.1,0.3-0.2,0.5-0.2c0.2,0,0.3,0.1,0.5,0.2c0.1,0.1,0.2,0.3,0.2,0.5c-0.1,0.8-0.2,1.6-0.3,2.4
	c0,0.1,0,0.1-0.1,0.2L28,23.5L28,23.5z M32.6,25c0.1,0,0.2,0.1,0.2,0.1c0.1,0.1,0.1,0.1,0.2,0.2c0,0.1,0.1,0.2,0.1,0.3
	c0,0.1,0,0.2,0,0.3c0,0.1-0.1,0.2-0.1,0.2c-0.1,0.1-0.1,0.1-0.2,0.2c-0.1,0-0.2,0.1-0.3,0.1c-0.1,0-0.2,0-0.3-0.1
	c-0.7-0.3-1.5-0.5-2.2-0.7c-0.1,0-0.2-0.1-0.2-0.1c-0.1-0.1-0.1-0.1-0.2-0.2c0-0.1-0.1-0.2-0.1-0.3c0-0.1,0-0.2,0-0.3
	c0-0.1,0.1-0.2,0.1-0.2c0.1-0.1,0.1-0.1,0.2-0.2c0.1,0,0.2-0.1,0.3-0.1c0.1,0,0.2,0,0.3,0C31.1,24.5,31.8,24.7,32.6,25L32.6,25z
	 M40.5,17.6c0.2-0.1,0.4-0.1,0.5,0c0.2,0.1,0.3,0.2,0.4,0.4c0.3,0.6,0.5,1.3,0.6,2c0,0.2,0,0.4-0.1,0.5c-0.1,0.1-0.3,0.2-0.5,0.3
	c-0.2,0-0.4,0-0.5-0.1s-0.2-0.3-0.3-0.5c-0.1-0.6-0.2-1.1-0.5-1.6c0-0.1-0.1-0.2-0.1-0.3c0-0.1,0-0.2,0-0.3c0-0.1,0.1-0.2,0.1-0.2
	C40.3,17.7,40.4,17.7,40.5,17.6L40.5,17.6z"/>
</svg>
