<?xml version="1.0" encoding="utf-8"?>
<!-- Generator: Adobe Illustrator 21.1.0, SVG Export Plug-In . SVG Version: 6.00 Build 0)  -->
<svg version="1.1" id="Layer_1" xmlns="http://www.w3.org/2000/svg" xmlns:xlink="http://www.w3.org/1999/xlink" x="0px" y="0px"
	 viewBox="0 0 58 58" style="enable-background:new 0 0 58 58;" xml:space="preserve">
<style type="text/css">
	.st0{fill:none;}
	.st1{fill:#FFFFFF;}
	.st2{fill:#E8424D;}
	.st3{fill:#252C41;}
</style>
<g>
	<path class="st0" d="M9.8,46.7C9.8,46.7,9.8,46.7,9.8,46.7c2.1,2.2,4.5,4.1,7.2,5.5C14.3,50.8,11.8,49,9.8,46.7z"/>
	<path class="st0" d="M20.4,53.7c-1.1-0.4-2.2-0.9-3.2-1.4C18.2,52.9,19.2,53.3,20.4,53.7z"/>
	<circle class="st1" cx="23.1" cy="42" r="3.4"/>
	<path class="st1" d="M18.5,15.3H12v10.9v1.5c0,2.1,1.7,3.9,3.9,3.9h10.4l-4.7-14C21.2,16.1,19.9,15.3,18.5,15.3z"/>
	<path class="st1" d="M9.8,37.3c2.4,0,4.3,1.8,4.7,4.1c0.1,0,0.1,0,0.2,0h3.9c0.3-2.3,2.3-4,4.6-4c2.4,0,4.3,1.8,4.6,4h2.8v-8.6
		H15.9c-2.9,0-5.2-2.3-5.2-5.2v-0.8H5.8c-1.3,0-2.5,0.8-3,1.9c0,0.1,0,0.2,0,0.3c0,4.1,1,7.9,2.6,11.3C6.1,38.6,7.8,37.3,9.8,37.3z"
		/>
	<path class="st1" d="M46.1,30.8h-4.5v4.6c0,0.4-0.3,0.7-0.7,0.7c-0.4,0-0.7-0.3-0.7-0.7v-4.6h-4.5v10.5h10.3V30.8z"/>
	<path class="st1" d="M46.1,18.9h-4.5v4.7c0,0.4-0.3,0.7-0.7,0.7c-0.4,0-0.7-0.3-0.7-0.7v-4.7h-4.5v10.5h10.3V18.9z"/>
	<path class="st1" d="M13.2,42c0-1.9-1.5-3.4-3.4-3.4c-1.9,0-3.4,1.5-3.4,3.4c0,0.1,0,0.1,0,0.2c0.6,1,1.2,1.9,1.9,2.8
		c0.4,0.2,0.9,0.3,1.4,0.3C11.6,45.4,13.2,43.9,13.2,42z"/>
	<path class="st2" d="M29,2.8C15.4,2.8,4.2,13.2,2.9,26.4c0.8-0.6,1.8-1,2.8-1h4.9V14.6c0-0.4,0.3-0.7,0.7-0.7h7.2
		c2,0,3.7,1.3,4.3,3.1l4.8,14.4h2.9v-19c0-0.4,0.3-0.7,0.7-0.7s0.7,0.3,0.7,0.7v28.9h2.5V18.3c0-0.4,0.3-0.7,0.7-0.7h11.7
		c0.4,0,0.7,0.3,0.7,0.7V42c0,0.4-0.3,0.7-0.7,0.7H35.1h-3.9h-3.5c-0.3,2.3-2.3,4-4.6,4c-2.4,0-4.3-1.8-4.6-4h-3.9
		c-0.1,0-0.1,0-0.2,0c-0.3,2.3-2.3,4.1-4.7,4.1c0,0,0,0,0,0c2.1,2.2,4.5,4.1,7.2,5.5c0,0,0.1,0,0.1,0.1c1,0.5,2.1,1,3.2,1.4
		c0.6,0.2,1.2,0.4,1.8,0.6c0.9,0.2,1.8,0.4,2.7,0.6c1.4,0.2,2.8,0.3,4.2,0.3c14.4,0,26.2-11.8,26.2-26.2S43.4,2.8,29,2.8z"/>
	<path class="st3" d="M14.4,42.7c0.1,0,0.1,0,0.2,0h3.9c0.3,2.3,2.3,4,4.6,4c2.4,0,4.3-1.8,4.6-4h3.5h3.9h11.7
		c0.4,0,0.7-0.3,0.7-0.7V18.3c0-0.4-0.3-0.7-0.7-0.7H35.1c-0.4,0-0.7,0.3-0.7,0.7v23.1h-2.5V12.4c0-0.4-0.3-0.7-0.7-0.7
		s-0.7,0.3-0.7,0.7v19h-2.9L22.9,17c-0.6-1.9-2.4-3.1-4.3-3.1h-7.2c-0.4,0-0.7,0.3-0.7,0.7v10.9H5.8c-1.1,0-2.1,0.4-2.8,1l-0.1,2.3
		c0.5-1.1,1.6-1.9,3-1.9h4.9v0.8c0,2.9,2.3,5.2,5.2,5.2h14.7v8.6h-2.8c-0.3-2.3-2.3-4-4.6-4c-2.4,0-4.3,1.8-4.6,4h-3.9
		c-0.1,0-0.1,0-0.2,0c-0.3-2.3-2.3-4.1-4.7-4.1c-2,0-3.7,1.3-4.4,3l1,1.9c0-0.1,0-0.1,0-0.2c0-1.9,1.5-3.4,3.4-3.4
		c1.9,0,3.4,1.5,3.4,3.4c0,1.9-1.5,3.4-3.4,3.4c-0.5,0-1-0.1-1.4-0.3l1.4,1.7C12.2,46.7,14.1,45,14.4,42.7z M35.8,18.9h4.5v4.7
		c0,0.4,0.3,0.7,0.7,0.7c0.4,0,0.7-0.3,0.7-0.7v-4.7h4.5v10.5H35.8V18.9z M35.8,30.8h4.5v4.6c0,0.4,0.3,0.7,0.7,0.7
		c0.4,0,0.7-0.3,0.7-0.7v-4.6h4.5v10.5H35.8V30.8z M15.9,31.4c-2.1,0-3.9-1.7-3.9-3.9v-1.5V15.3h6.5c1.4,0,2.6,0.9,3.1,2.2l4.7,14
		H15.9z M23.1,38.6c1.9,0,3.4,1.5,3.4,3.4c0,1.9-1.5,3.4-3.4,3.4c-1.9,0-3.4-1.5-3.4-3.4C19.8,40.2,21.3,38.6,23.1,38.6z"/>
	<path class="st3" d="M29,1.5c-14.9,0-27.1,12-27.5,26.8c0,0.2,0,0.5,0,0.7c0,2.6,0.4,5,1,7.4c0.5,1.7,1.1,3.4,1.9,5
		c0.9,1.7,1.9,3.3,3.1,4.8c5,6.3,12.8,10.3,21.5,10.3c15.2,0,27.5-12.3,27.5-27.5S44.2,1.5,29,1.5z M29,55.2c-1.4,0-2.8-0.1-4.2-0.3
		c-0.9-0.1-1.8-0.3-2.7-0.6c-0.6-0.2-1.2-0.3-1.8-0.6c-1.1-0.4-2.2-0.9-3.2-1.4c0,0-0.1,0-0.1-0.1c-2.7-1.4-5.1-3.3-7.2-5.5
		c0,0,0,0,0,0l0,0c0,0,0,0,0,0l-1.4-1.7c-0.7-0.9-1.3-1.9-1.9-2.8l-1-1.9C3.8,36.9,2.8,33.1,2.8,29c0-0.1,0-0.2,0-0.3l0.1-2.3
		C4.2,13.2,15.4,2.8,29,2.8c14.4,0,26.2,11.8,26.2,26.2S43.4,55.2,29,55.2z"/>
	<path class="st3" d="M17.1,52.3c0,0-0.1,0-0.1-0.1C17,52.3,17.1,52.3,17.1,52.3z"/>
	<path class="st3" d="M24.8,54.9c-0.9-0.1-1.8-0.3-2.7-0.6C23,54.5,23.9,54.7,24.8,54.9z"/>
	<polygon class="st3" points="9.8,46.7 9.8,46.7 9.8,46.7 	"/>
</g>
<g>
	<path class="st1" d="M29,1.5c15.2,0,27.5,12.3,27.5,27.5S44.2,56.5,29,56.5S1.5,44.2,1.5,29S13.8,1.5,29,1.5 M29,0C13,0,0,13,0,29
		s13,29,29,29s29-13,29-29S45,0,29,0L29,0z"/>
</g>
</svg>
