<?xml version="1.0" encoding="utf-8"?>
<!-- Generator: Adobe Illustrator 21.1.0, SVG Export Plug-In . SVG Version: 6.00 Build 0)  -->
<svg version="1.1" id="Layer_1" xmlns="http://www.w3.org/2000/svg" xmlns:xlink="http://www.w3.org/1999/xlink" x="0px" y="0px"
	 viewBox="0 0 58 58" style="enable-background:new 0 0 58 58;" xml:space="preserve">
<style type="text/css">
	.st0{fill:#E8424D;}
	.st1{fill:#252C41;}
	.st2{fill:#FFFFFF;}
</style>
<g>
	<g>
		<path class="st0" d="M29,55.8c-14.8,0-26.8-12-26.8-26.8S14.2,2.3,29,2.3s26.8,12,26.8,26.8S43.7,55.8,29,55.8z"/>
		<path class="st1" d="M29,3c14.3,0,26,11.7,26,26S43.3,55,29,55S3,43.3,3,29S14.7,3,29,3 M29,1.5C13.8,1.5,1.5,13.8,1.5,29
			S13.8,56.5,29,56.5S56.5,44.2,56.5,29S44.2,1.5,29,1.5L29,1.5z"/>
	</g>
	<g>
		<path class="st2" d="M4.6,24.3h2.9v3.2h3.2v-3.2h2.9v9.2h-2.9v-3.7H7.5v3.7H4.6V24.3z"/>
		<path class="st2" d="M21.3,32H18l-0.5,1.5h-3l3.5-9.2h3.2l3.5,9.2h-3L21.3,32z M20.7,30l-1-3.3l-1,3.3H20.7z"/>
		<path class="st2" d="M31.7,29.7l2.5,0.8c-0.2,0.7-0.4,1.3-0.8,1.8c-0.4,0.5-0.8,0.8-1.4,1.1c-0.5,0.2-1.2,0.4-2.1,0.4
			c-1,0-1.9-0.1-2.5-0.4c-0.6-0.3-1.2-0.8-1.7-1.5c-0.5-0.7-0.7-1.7-0.7-2.8c0-1.5,0.4-2.7,1.2-3.5c0.8-0.8,2-1.2,3.5-1.2
			c1.2,0,2.1,0.2,2.8,0.7c0.7,0.5,1.2,1.2,1.5,2.2l-2.6,0.6c-0.1-0.3-0.2-0.5-0.3-0.6c-0.2-0.2-0.4-0.4-0.6-0.5
			c-0.2-0.1-0.5-0.2-0.8-0.2c-0.7,0-1.2,0.3-1.5,0.8c-0.3,0.4-0.4,1-0.4,1.8c0,1,0.2,1.7,0.5,2.1c0.3,0.4,0.8,0.6,1.3,0.6
			c0.6,0,1-0.2,1.3-0.5C31.4,30.8,31.6,30.3,31.7,29.7z"/>
		<path class="st2" d="M41.9,29.7l2.5,0.8c-0.2,0.7-0.4,1.3-0.8,1.8c-0.4,0.5-0.8,0.8-1.4,1.1c-0.5,0.2-1.2,0.4-2.1,0.4
			c-1,0-1.9-0.1-2.5-0.4c-0.6-0.3-1.2-0.8-1.7-1.5c-0.5-0.7-0.7-1.7-0.7-2.8c0-1.5,0.4-2.7,1.2-3.5c0.8-0.8,2-1.2,3.5-1.2
			c1.2,0,2.1,0.2,2.8,0.7c0.7,0.5,1.2,1.2,1.5,2.2l-2.6,0.6c-0.1-0.3-0.2-0.5-0.3-0.6c-0.2-0.2-0.4-0.4-0.6-0.5
			c-0.2-0.1-0.5-0.2-0.8-0.2c-0.7,0-1.2,0.3-1.5,0.8c-0.3,0.4-0.4,1-0.4,1.8c0,1,0.2,1.7,0.5,2.1c0.3,0.4,0.8,0.6,1.3,0.6
			c0.6,0,1-0.2,1.3-0.5C41.6,30.8,41.8,30.3,41.9,29.7z"/>
		<path class="st2" d="M45.9,24.3h4.8c1.1,0,1.8,0.2,2.4,0.7s0.8,1.2,0.8,2.1c0,0.9-0.3,1.7-0.9,2.2s-1.4,0.8-2.6,0.8h-1.6v3.4h-2.9
			V24.3z M48.8,28.2h0.7c0.6,0,1-0.1,1.2-0.3c0.2-0.2,0.3-0.4,0.3-0.7c0-0.3-0.1-0.5-0.3-0.7c-0.2-0.2-0.6-0.3-1.1-0.3h-0.8V28.2z"
			/>
	</g>
	<g>
		<path class="st2" d="M14.4,16.9l-3-2.9l0.5-0.5l1.2,1.1l0.9-1l-1.2-1.1l0.5-0.5l3,2.9l-0.5,0.5l-1.3-1.3l-1,1l1.3,1.3L14.4,16.9z"
			/>
		<path class="st2" d="M15.7,12.7L15.2,13c-0.1-0.3-0.2-0.5-0.1-0.7c0-0.2,0.2-0.4,0.4-0.6c0.2-0.2,0.4-0.3,0.6-0.3
			c0.2,0,0.3,0,0.4,0.1c0.1,0.1,0.3,0.2,0.5,0.5l0.6,0.7c0.2,0.2,0.3,0.3,0.4,0.4c0.1,0.1,0.2,0.2,0.3,0.2l-0.5,0.4l-0.3-0.2
			c0,0.2,0,0.3-0.1,0.5c-0.1,0.1-0.1,0.2-0.3,0.3c-0.2,0.2-0.4,0.2-0.6,0.2c-0.2,0-0.4-0.1-0.6-0.4c-0.1-0.1-0.2-0.3-0.2-0.4
			c0-0.1,0-0.3,0-0.4c0-0.1,0.1-0.3,0.3-0.5c0.2-0.2,0.3-0.4,0.4-0.6c-0.1-0.1-0.2-0.2-0.2-0.2c-0.1,0-0.1,0-0.2,0
			c-0.1,0-0.2,0.1-0.2,0.1c-0.1,0.1-0.2,0.2-0.2,0.2C15.7,12.5,15.7,12.6,15.7,12.7z M16.8,12.7c0,0.1-0.1,0.2-0.2,0.3
			c-0.1,0.2-0.2,0.3-0.2,0.4c0,0.1,0,0.2,0.1,0.3c0.1,0.1,0.2,0.1,0.3,0.2c0.1,0,0.2,0,0.3-0.1c0.1-0.1,0.1-0.1,0.2-0.2
			c0-0.1,0-0.2,0-0.3c0-0.1-0.1-0.2-0.3-0.4L16.8,12.7z"/>
		<path class="st2" d="M18.3,13.4L18,12.8l0.1-1.6c0-0.3,0-0.4,0.1-0.6c-0.1,0-0.1,0.1-0.3,0.2l-0.7,0.5l-0.3-0.6l1.8-1.1l0.3,0.5
			l-0.1,1.6l-0.1,0.5c0.2-0.1,0.2-0.2,0.3-0.2l0.9-0.5l0.4,0.6L18.3,13.4z"/>
		<path class="st2" d="M19.9,10l-0.6,0.1c-0.1-0.3,0-0.6,0-0.7c0.1-0.2,0.3-0.4,0.6-0.5c0.3-0.1,0.5-0.2,0.6-0.2
			c0.2,0,0.3,0.1,0.4,0.1c0.1,0.1,0.2,0.3,0.4,0.6l0.4,0.8c0.1,0.2,0.2,0.4,0.3,0.5c0.1,0.1,0.2,0.2,0.3,0.3l-0.6,0.3l-0.2-0.3
			c0,0.2-0.1,0.3-0.2,0.4c-0.1,0.1-0.2,0.2-0.3,0.3c-0.2,0.1-0.4,0.1-0.6,0c-0.2-0.1-0.4-0.2-0.5-0.5c-0.1-0.2-0.1-0.3-0.1-0.4
			c0-0.1,0-0.3,0.1-0.4c0.1-0.1,0.2-0.3,0.4-0.4c0.2-0.2,0.4-0.3,0.5-0.5c-0.1-0.2-0.1-0.2-0.2-0.3c0,0-0.1-0.1-0.2-0.1
			c-0.1,0-0.2,0-0.3,0.1c-0.1,0.1-0.2,0.1-0.2,0.2C19.9,9.8,19.9,9.9,19.9,10z M21,10.2c-0.1,0.1-0.2,0.2-0.3,0.3
			c-0.2,0.1-0.3,0.2-0.3,0.3c0,0.1,0,0.2,0,0.3c0,0.1,0.1,0.2,0.2,0.2c0.1,0,0.2,0,0.3,0c0.1,0,0.2-0.1,0.2-0.2
			c0.1-0.1,0.1-0.2,0.1-0.3c0-0.1-0.1-0.2-0.2-0.5L21,10.2z"/>
		<path class="st2" d="M23.1,10.9l-0.6,0.2l-1-2.8l0.6-0.2l0.1,0.4c0-0.2,0.1-0.4,0.1-0.5c0.1-0.1,0.1-0.2,0.2-0.2
			c0.1-0.1,0.3-0.1,0.5,0l0,0.7c-0.1,0-0.2-0.1-0.3,0c-0.1,0-0.2,0.1-0.2,0.2c0,0.1-0.1,0.2,0,0.4c0,0.2,0.1,0.5,0.3,0.9L23.1,10.9z
			"/>
		<path class="st2" d="M26.2,10.1l-0.6,0.1l-0.1-0.4c-0.1,0.2-0.1,0.3-0.3,0.5c-0.1,0.1-0.2,0.2-0.4,0.2c-0.3,0.1-0.5,0-0.8-0.2
			c-0.3-0.2-0.5-0.6-0.6-1.1c-0.1-0.5-0.1-0.9,0-1.2c0.1-0.3,0.4-0.5,0.6-0.6c0.1,0,0.3,0,0.4,0c0.1,0,0.3,0.1,0.4,0.2l-0.3-1.4
			L25.3,6L26.2,10.1z M24.2,8.9c0.1,0.3,0.1,0.5,0.2,0.6c0.1,0.1,0.2,0.2,0.3,0.2c0.1,0,0.2,0.1,0.3,0c0.1,0,0.2-0.1,0.3-0.3
			c0.1-0.2,0.1-0.4,0-0.7c-0.1-0.3-0.2-0.6-0.3-0.7c-0.1-0.1-0.3-0.2-0.4-0.1c-0.1,0-0.3,0.1-0.3,0.3C24.1,8.4,24.1,8.7,24.2,8.9z"
			/>
		<path class="st2" d="M31.7,9.8l-0.8,0l-0.3-0.9l-1.4,0L29,9.8l-0.7,0l1.4-4.1l0.7,0L31.7,9.8z M30.4,8.2L30,6.6l-0.5,1.5L30.4,8.2
			z"/>
		<path class="st2" d="M34,10.2l-0.7-0.1l0.2-1.5c0-0.3,0.1-0.5,0.1-0.6c0-0.1,0-0.2-0.1-0.3c-0.1-0.1-0.1-0.1-0.2-0.1
			c-0.1,0-0.2,0-0.3,0.1c-0.1,0.1-0.2,0.1-0.2,0.3c-0.1,0.1-0.1,0.3-0.2,0.7L32.4,10l-0.7-0.1l0.5-3L32.8,7l-0.1,0.4
			c0.1-0.1,0.3-0.3,0.4-0.3c0.1-0.1,0.3-0.1,0.5-0.1c0.2,0,0.3,0.1,0.5,0.2c0.1,0.1,0.2,0.3,0.2,0.4c0,0.2,0,0.4,0,0.7L34,10.2z"/>
		<path class="st2" d="M35.4,8.5l-0.5-0.3c0.2-0.3,0.3-0.4,0.5-0.5c0.2-0.1,0.4-0.1,0.8,0c0.3,0.1,0.5,0.2,0.6,0.3
			c0.1,0.1,0.2,0.2,0.2,0.4c0,0.1,0,0.4-0.1,0.7l-0.3,0.9c-0.1,0.2-0.1,0.4-0.1,0.6c0,0.1,0,0.3,0,0.4l-0.6-0.2l0-0.3
			c-0.1,0.1-0.3,0.2-0.4,0.2c-0.1,0-0.3,0-0.4,0c-0.2-0.1-0.4-0.2-0.5-0.4c-0.1-0.2-0.1-0.4,0-0.7c0-0.2,0.1-0.3,0.2-0.4
			c0.1-0.1,0.2-0.2,0.3-0.2c0.1,0,0.3-0.1,0.6,0c0.3,0,0.5,0,0.7,0c0-0.2,0.1-0.3,0.1-0.3c0-0.1,0-0.1-0.1-0.2
			c-0.1,0-0.1-0.1-0.2-0.1c-0.1,0-0.2,0-0.3,0C35.6,8.2,35.5,8.3,35.4,8.5z M36.1,9.3c-0.1,0-0.2,0-0.4,0c-0.2,0-0.4,0-0.4,0.1
			c-0.1,0-0.1,0.1-0.2,0.2c0,0.1,0,0.2,0,0.3c0,0.1,0.1,0.2,0.2,0.2c0.1,0,0.2,0,0.3,0c0.1,0,0.2-0.1,0.2-0.2
			c0.1-0.1,0.1-0.2,0.2-0.4L36.1,9.3z"/>
		<path class="st2" d="M36.6,11l1.5-3.9l0.6,0.2l-1.5,3.9L36.6,11z"/>
		<path class="st2" d="M38.7,8.6l0.6,0.3l-0.4,2.2l1.5-1.6L41,9.8l-2.1,2.2l-0.4,0.4c-0.2,0.2-0.3,0.3-0.4,0.3
			c-0.1,0.1-0.2,0.1-0.4,0.1c-0.1,0-0.3,0-0.4-0.1c-0.1-0.1-0.2-0.1-0.3-0.2l0.2-0.6c0.1,0.1,0.2,0.1,0.2,0.2c0.1,0.1,0.2,0.1,0.3,0
			c0.1,0,0.2-0.1,0.4-0.3L38.7,8.6z"/>
		<path class="st2" d="M40,11.7l0.6,0.3c-0.1,0.3-0.1,0.5,0.2,0.7c0.1,0.1,0.2,0.1,0.3,0.1c0.1,0,0.2-0.1,0.2-0.1
			c0-0.1,0.1-0.1,0-0.2c0-0.1-0.1-0.1-0.1-0.2c-0.4-0.4-0.6-0.7-0.6-0.9c-0.1-0.2,0-0.5,0.1-0.7c0.2-0.2,0.4-0.4,0.6-0.4
			c0.2,0,0.5,0,0.8,0.2c0.3,0.2,0.4,0.4,0.5,0.6c0.1,0.2,0.1,0.4,0,0.7l-0.6-0.2c0.1-0.2,0-0.4-0.2-0.6c-0.1-0.1-0.2-0.1-0.3-0.1
			c-0.1,0-0.1,0-0.2,0.1c0,0.1,0,0.1,0,0.2c0,0.1,0.2,0.2,0.4,0.5c0.3,0.3,0.4,0.5,0.4,0.7c0,0.2,0,0.4-0.2,0.6
			c-0.2,0.2-0.4,0.4-0.6,0.4c-0.3,0-0.6,0-0.9-0.2c-0.3-0.2-0.4-0.4-0.5-0.6C39.9,12.2,39.9,12,40,11.7z"/>
		<path class="st2" d="M41.7,13.9l1.9-2.4l0.5,0.4l-1.9,2.4L41.7,13.9z M43.8,11.2l0.5-0.6l0.5,0.4l-0.5,0.6L43.8,11.2z"/>
		<path class="st2" d="M43,13.7l0.6,0.4c-0.2,0.3-0.2,0.5,0.1,0.7c0.1,0.1,0.2,0.2,0.3,0.2c0.1,0,0.2,0,0.2-0.1c0,0,0.1-0.1,0.1-0.1
			c0-0.1,0-0.1-0.1-0.2c-0.3-0.5-0.5-0.8-0.5-1c0-0.2,0.1-0.5,0.3-0.7c0.2-0.2,0.4-0.3,0.7-0.3c0.2,0,0.5,0.1,0.7,0.4
			c0.2,0.2,0.4,0.4,0.4,0.7c0,0.2,0,0.4-0.2,0.7L45,13.9c0.1-0.2,0.1-0.4-0.1-0.6c-0.1-0.1-0.2-0.2-0.3-0.2c-0.1,0-0.1,0-0.2,0.1
			c0,0-0.1,0.1,0,0.2c0,0.1,0.1,0.3,0.3,0.6c0.2,0.3,0.3,0.6,0.3,0.8c0,0.2-0.1,0.4-0.3,0.6c-0.2,0.2-0.4,0.3-0.7,0.3
			c-0.3,0-0.5-0.1-0.8-0.4c-0.2-0.2-0.4-0.5-0.4-0.7C42.7,14.3,42.8,14,43,13.7z"/>
	</g>
	<g>
		<path class="st2" d="M10.8,39.6l0.1,0.7c-0.5,0.1-0.8,0.1-1.1,0c-0.3-0.1-0.5-0.4-0.7-0.7c-0.2-0.4-0.2-0.8,0-1.2
			c0.2-0.5,0.6-0.8,1.2-1.1c0.6-0.3,1.2-0.4,1.7-0.3c0.4,0.1,0.8,0.4,1,0.8c0.2,0.3,0.2,0.7,0.1,1c-0.1,0.2-0.3,0.5-0.6,0.7L11.9,39
			c0.2-0.1,0.3-0.3,0.3-0.5c0.1-0.2,0-0.3,0-0.5c-0.1-0.2-0.3-0.4-0.6-0.4c-0.3-0.1-0.6,0-1.1,0.3c-0.5,0.2-0.8,0.5-0.9,0.7
			c-0.1,0.2-0.1,0.5,0,0.7c0.1,0.2,0.2,0.3,0.4,0.3C10.2,39.7,10.5,39.7,10.8,39.6z"/>
		<path class="st2" d="M10.5,42.1l-0.4-0.6l2.5-1.6l0.3,0.5l-0.4,0.2c0.2,0,0.4,0,0.5,0c0.1,0,0.2,0.1,0.2,0.2
			c0.1,0.1,0.1,0.3,0.1,0.4l-0.7,0.2c0-0.1,0-0.2-0.1-0.3c-0.1-0.1-0.1-0.1-0.2-0.1c-0.1,0-0.2,0-0.4,0.1c-0.2,0.1-0.4,0.2-0.8,0.5
			L10.5,42.1z"/>
		<path class="st2" d="M11.3,43.3l2.4-1.8l0.4,0.5l-2.4,1.8L11.3,43.3z M14,41.2l0.6-0.4l0.4,0.5l-0.6,0.4L14,41.2z"/>
		<path class="st2" d="M15.2,43.3l-0.5,0.4l-0.3-0.3l-0.9,0.8c-0.2,0.2-0.3,0.3-0.3,0.3c0,0.1,0,0.1,0,0.2c0,0,0.1,0.1,0.2,0.1
			L13,45.3c-0.2-0.1-0.3-0.2-0.4-0.3c-0.1-0.1-0.2-0.3-0.2-0.4c0-0.1,0-0.3,0.1-0.4c0.1-0.1,0.2-0.3,0.5-0.5l1-0.9l-0.2-0.2l0.5-0.4
			l0.2,0.2l0.4-0.4l0.8,0.2l-0.8,0.7L15.2,43.3z"/>
		<path class="st2" d="M13.4,45.7l2.1-2.1L16,44l-2.1,2.1L13.4,45.7z M15.8,43.3l0.5-0.5l0.5,0.5l-0.5,0.5L15.8,43.3z"/>
		<path class="st2" d="M17.5,46.5l-0.6-0.3c0.2-0.3,0.1-0.5-0.1-0.7c-0.1-0.1-0.3-0.1-0.4-0.1c-0.2,0-0.3,0.2-0.6,0.4
			c-0.2,0.3-0.3,0.5-0.4,0.7c0,0.2,0,0.3,0.2,0.4c0.1,0.1,0.2,0.1,0.3,0.1c0.1,0,0.3-0.1,0.4-0.2l0.4,0.5c-0.6,0.5-1.1,0.5-1.6,0.1
			c-0.3-0.3-0.5-0.6-0.4-0.9c0-0.4,0.2-0.7,0.5-1c0.3-0.4,0.7-0.6,1-0.7c0.3-0.1,0.7,0,0.9,0.2c0.2,0.2,0.4,0.4,0.4,0.6
			S17.7,46.2,17.5,46.5z"/>
		<path class="st2" d="M18.4,47.1l-0.4-0.4c0.2-0.2,0.4-0.3,0.7-0.4c0.2,0,0.5,0,0.7,0.2c0.2,0.1,0.4,0.3,0.5,0.4
			c0.1,0.1,0.1,0.3,0.1,0.4c0,0.1-0.1,0.4-0.3,0.7l-0.5,0.8c-0.1,0.2-0.2,0.4-0.3,0.5c0,0.1-0.1,0.3-0.1,0.4l-0.6-0.3l0.1-0.3
			c-0.2,0.1-0.3,0.1-0.5,0.1c-0.1,0-0.3-0.1-0.4-0.1c-0.2-0.1-0.3-0.3-0.4-0.5c0-0.2,0-0.4,0.1-0.7c0.1-0.1,0.2-0.3,0.3-0.3
			c0.1-0.1,0.2-0.1,0.4-0.1c0.1,0,0.3,0,0.6,0.1c0.3,0.1,0.5,0.2,0.7,0.2c0.1-0.1,0.1-0.2,0.1-0.3c0-0.1,0-0.1,0-0.2
			c0-0.1-0.1-0.1-0.2-0.2c-0.1-0.1-0.2-0.1-0.3-0.1C18.6,46.9,18.5,47,18.4,47.1z M18.8,48.1c-0.1,0-0.2-0.1-0.4-0.1
			c-0.2-0.1-0.3-0.1-0.4-0.1c-0.1,0-0.2,0.1-0.2,0.2c-0.1,0.1-0.1,0.2-0.1,0.3c0,0.1,0.1,0.2,0.2,0.2c0.1,0,0.2,0.1,0.3,0.1
			c0.1,0,0.2,0,0.3-0.1c0.1-0.1,0.2-0.2,0.3-0.4L18.8,48.1z"/>
		<path class="st2" d="M19.3,50l1.8-3.7l0.6,0.3l-1.8,3.7L19.3,50z"/>
		<path class="st2" d="M26,50.7l0.6,0.4c-0.2,0.4-0.4,0.7-0.7,0.9c-0.3,0.2-0.6,0.2-1,0.1c-0.4-0.1-0.8-0.3-1-0.7
			c-0.2-0.5-0.3-1-0.1-1.7c0.1-0.7,0.4-1.2,0.8-1.5c0.3-0.3,0.8-0.4,1.2-0.3c0.4,0.1,0.7,0.3,0.9,0.6c0.1,0.2,0.2,0.5,0.2,0.9
			l-0.7,0c0-0.2,0-0.4-0.2-0.6c-0.1-0.1-0.2-0.2-0.4-0.3c-0.3-0.1-0.5,0-0.7,0.2c-0.2,0.2-0.4,0.5-0.5,1c-0.1,0.5-0.1,0.9,0,1.1
			c0.1,0.2,0.3,0.4,0.5,0.5c0.2,0,0.4,0,0.5-0.1C25.7,51.1,25.9,51,26,50.7z"/>
		<path class="st2" d="M27.2,50.8c0-0.3,0.1-0.6,0.2-0.8c0.1-0.2,0.3-0.4,0.5-0.5c0.2-0.1,0.4-0.2,0.7-0.1c0.4,0,0.7,0.2,0.9,0.5
			c0.2,0.3,0.3,0.7,0.3,1.1c0,0.3-0.1,0.6-0.2,0.8c-0.1,0.2-0.3,0.4-0.5,0.5c-0.2,0.1-0.4,0.2-0.7,0.2c-0.4,0-0.7-0.2-0.9-0.5
			C27.3,51.8,27.2,51.4,27.2,50.8z M27.9,50.9c0,0.3,0,0.5,0.1,0.7c0.1,0.2,0.3,0.2,0.4,0.3c0.2,0,0.3-0.1,0.4-0.2
			c0.1-0.1,0.2-0.4,0.2-0.7c0-0.3,0-0.5-0.1-0.7c-0.1-0.2-0.3-0.2-0.4-0.3c-0.2,0-0.3,0.1-0.4,0.2C28,50.4,27.9,50.6,27.9,50.9z"/>
		<path class="st2" d="M32.8,52.3l-0.7,0.1L32,50.8c0-0.3-0.1-0.5-0.1-0.6c0-0.1-0.1-0.2-0.2-0.2c-0.1,0-0.2-0.1-0.2-0.1
			c-0.1,0-0.2,0.1-0.3,0.1c-0.1,0.1-0.1,0.2-0.2,0.3c0,0.1,0,0.4,0,0.7l0.1,1.4l-0.7,0.1l-0.3-3l0.6-0.1l0,0.4
			c0.1-0.2,0.2-0.3,0.3-0.4c0.1-0.1,0.3-0.2,0.4-0.2c0.2,0,0.4,0,0.5,0.1s0.2,0.2,0.3,0.4c0.1,0.2,0.1,0.4,0.1,0.7L32.8,52.3z"/>
		<path class="st2" d="M34.2,49l0.1,0.6l-0.4,0.1l0.2,1.2c0.1,0.3,0.1,0.4,0.1,0.4c0,0.1,0.1,0.1,0.2,0.1c0.1,0,0.1-0.1,0.2-0.1
			l0.2,0.6c-0.1,0.1-0.3,0.2-0.5,0.2c-0.2,0-0.3,0-0.4,0c-0.1-0.1-0.2-0.2-0.3-0.3c0-0.1-0.1-0.3-0.2-0.6l-0.3-1.3L33,49.9l-0.1-0.6
			l0.3-0.1L33,48.6l0.6-0.6l0.2,1L34.2,49z"/>
		<path class="st2" d="M36,51.6l-0.6,0.2l-0.8-2.9l0.6-0.2l0.1,0.4c0-0.2,0.1-0.4,0.2-0.5c0.1-0.1,0.1-0.1,0.3-0.2
			c0.1,0,0.3,0,0.5,0l0,0.7c-0.1-0.1-0.2-0.1-0.3,0c-0.1,0-0.2,0.1-0.2,0.2c0,0.1-0.1,0.2,0,0.4c0,0.2,0.1,0.5,0.2,0.9L36,51.6z"/>
		<path class="st2" d="M36.7,49.8c-0.1-0.3-0.2-0.5-0.1-0.8c0-0.3,0.1-0.5,0.2-0.7c0.1-0.2,0.3-0.3,0.5-0.4c0.4-0.2,0.7-0.1,1.1,0.1
			c0.3,0.2,0.6,0.5,0.7,0.9c0.1,0.3,0.2,0.6,0.2,0.8c0,0.3-0.1,0.5-0.2,0.7c-0.1,0.2-0.3,0.3-0.5,0.4c-0.3,0.1-0.7,0.1-1,0
			C37.2,50.6,36.9,50.3,36.7,49.8z M37.4,49.6c0.1,0.3,0.3,0.5,0.4,0.6c0.2,0.1,0.3,0.1,0.5,0c0.2-0.1,0.3-0.2,0.3-0.4
			c0-0.2,0-0.4-0.1-0.7c-0.1-0.3-0.3-0.5-0.4-0.6s-0.3-0.1-0.5,0c-0.2,0.1-0.3,0.2-0.3,0.4C37.2,49.1,37.2,49.3,37.4,49.6z"/>
		<path class="st2" d="M40.3,49.9l-2-3.6l0.6-0.3l2,3.6L40.3,49.9z"/>
		<path class="st2" d="M44.1,47.4l-2.8-3.1l0.8-0.8c0.3-0.3,0.5-0.4,0.6-0.5c0.2-0.1,0.4-0.1,0.7,0c0.2,0.1,0.5,0.2,0.7,0.5
			c0.2,0.2,0.3,0.4,0.4,0.7c0.1,0.2,0,0.4,0,0.6c-0.1,0.2-0.3,0.4-0.6,0.7l-0.3,0.3l1,1.2L44.1,47.4z M42.3,44.4l0.8,0.9l0.3-0.3
			c0.2-0.2,0.3-0.3,0.4-0.4c0-0.1,0.1-0.2,0-0.3c0-0.1-0.1-0.2-0.2-0.3c-0.1-0.1-0.2-0.2-0.3-0.2c-0.1,0-0.2,0-0.3,0
			c-0.1,0-0.2,0.2-0.5,0.3L42.3,44.4z"/>
		<path class="st2" d="M45.4,44.1c-0.2-0.2-0.4-0.4-0.5-0.6c-0.1-0.2-0.2-0.5-0.1-0.7c0-0.2,0.1-0.4,0.3-0.6c0.3-0.3,0.6-0.5,1-0.4
			c0.4,0,0.7,0.2,1.1,0.4c0.2,0.2,0.4,0.4,0.5,0.7c0.1,0.3,0.2,0.5,0.1,0.7c0,0.2-0.1,0.4-0.3,0.6c-0.2,0.3-0.5,0.4-0.9,0.5
			C46.2,44.6,45.8,44.5,45.4,44.1z M45.8,43.6c0.2,0.2,0.5,0.3,0.6,0.3c0.2,0,0.4-0.1,0.5-0.2c0.1-0.1,0.1-0.3,0.1-0.5
			c0-0.2-0.2-0.4-0.4-0.6c-0.2-0.2-0.4-0.3-0.6-0.3c-0.2,0-0.4,0.1-0.5,0.2c-0.1,0.1-0.1,0.3-0.1,0.5C45.5,43.2,45.6,43.4,45.8,43.6
			z"/>
		<path class="st2" d="M45.8,40.6l-0.6-0.4l0.4-0.6l0.6,0.4L45.8,40.6z M48.6,42.5l-2.5-1.7l0.4-0.6l2.5,1.7L48.6,42.5z"/>
		<path class="st2" d="M50.5,39.2l-0.3,0.6L48.9,39c-0.3-0.1-0.5-0.2-0.6-0.3c-0.1,0-0.2,0-0.3,0c-0.1,0-0.1,0.1-0.2,0.2
			c-0.1,0.1-0.1,0.2,0,0.3c0,0.1,0.1,0.2,0.2,0.3c0.1,0.1,0.3,0.2,0.6,0.4l1.2,0.6l-0.3,0.6l-2.7-1.4l0.3-0.5l0.4,0.2
			c-0.1-0.2-0.2-0.3-0.2-0.5c0-0.2,0-0.3,0.1-0.5c0.1-0.2,0.2-0.3,0.4-0.4c0.1-0.1,0.3-0.1,0.5-0.1c0.2,0,0.4,0.1,0.6,0.2L50.5,39.2
			z"/>
		<path class="st2" d="M48.5,36.2l0.6,0.2l-0.2,0.4l1.1,0.4c0.2,0.1,0.4,0.1,0.4,0.1c0.1,0,0.1,0,0.2-0.1c0-0.1,0-0.1,0-0.3l0.6,0.2
			c0,0.2,0,0.3-0.1,0.5c-0.1,0.2-0.1,0.3-0.3,0.3c-0.1,0.1-0.2,0.1-0.4,0.1c-0.1,0-0.3-0.1-0.6-0.2l-1.2-0.5l-0.1,0.3L48,37.5
			l0.1-0.3L47.5,37l-0.2-0.8l1,0.4L48.5,36.2z"/>
	</g>
	<g>
		<g>
			<path class="st2" d="M38.9,39.4c-2.8,2.7-6.5,4.1-10.3,4.1c-3.9-0.1-7.5-1.7-10.2-4.4c-0.9-0.9-1.6-1.9-2.2-2.9h-1.6
				c0.7,1.4,1.6,2.7,2.8,3.9c3,3.1,6.9,4.8,11.2,4.9c0.1,0,0.2,0,0.3,0c4.2,0,8.1-1.6,11.1-4.5c1.3-1.3,2.4-2.7,3.2-4.3h-1.6
				C40.8,37.4,40,38.5,38.9,39.4z"/>
		</g>
		<g>
			<path class="st2" d="M29.1,14.5c5.1,0.1,9.5,2.8,12,6.8h1.7c-2.7-4.8-7.8-8.2-13.7-8.3c-6.1-0.1-11.5,3.2-14.3,8.3h1.7
				C19.2,17.1,23.9,14.4,29.1,14.5z"/>
		</g>
	</g>
	<g>
		<circle class="st2" cx="27.5" cy="7.8" r="0.6"/>
	</g>
	<g>
		<circle class="st2" cx="22.5" cy="49.3" r="0.6"/>
	</g>
	<g>
		<circle class="st2" cx="41.3" cy="46.8" r="0.6"/>
	</g>
</g>
<g>
	<path class="st2" d="M29,1.5c15.2,0,27.5,12.3,27.5,27.5S44.2,56.5,29,56.5S1.5,44.2,1.5,29S13.8,1.5,29,1.5 M29,0C13,0,0,13,0,29
		s13,29,29,29s29-13,29-29S45,0,29,0L29,0z"/>
</g>
</svg>
