<?xml version="1.0" encoding="utf-8"?>
<!-- Generator: Adobe Illustrator 21.1.0, SVG Export Plug-In . SVG Version: 6.00 Build 0)  -->
<svg version="1.1" id="Layer_1" xmlns="http://www.w3.org/2000/svg" xmlns:xlink="http://www.w3.org/1999/xlink" x="0px" y="0px"
	 viewBox="0 0 47 47" style="enable-background:new 0 0 47 47;" xml:space="preserve">
<path d="M46.7,13.7c-3.2-2.1-6-0.9-7-0.3c-3-2.2-7.2-3.5-12-3.5c-0.1,0-0.1,0-0.2,0C19.4,10,15,11.9,14.8,12c0,0,0,0-0.1,0
	c-4.3-4.4-8.1-3.7-8.3-3.7C6.3,8.5,6.1,8.6,6,8.8C5.9,8.9,5.9,9.1,6,9.3L8.2,15c-0.8,0.7-3.7,3.3-5.2,6.8H0.6
	c-0.2,0-0.4,0.1-0.5,0.2C0,22.2,0,22.4,0,22.6l0.8,6c0,0.2,0.1,0.4,0.3,0.5c0.2,0.1,5,2.9,8.1,3.3v5.3c0,0.4,0.3,0.6,0.6,0.6h2.6
	c0.1,0,0.2,0,0.4-0.1c0.1-0.1,2-1.4,2.8-5.2c0.2,0.1,0.5,0.1,0.8,0.2c0.6,1.2,1.5,3.4,1.3,4.3c0,0.2,0,0.4,0.1,0.6
	c0.1,0.2,0.3,0.3,0.5,0.3h2.5c0.2,0,0.5-0.1,0.6-0.4c0.1-0.2,1-2.1,1.1-3.8c1.2,0.1,2.4,0.2,3.7,0.2c1.3,0,2.7-0.1,4.1-0.2
	c-0.2,1.2-0.5,2.9-0.8,3.5c-0.1,0.2-0.1,0.4,0,0.6c0.1,0.2,0.3,0.3,0.5,0.3H33c0.2,0,0.4-0.1,0.5-0.2c0.1-0.1,2.4-2.7,2-5.5
	c0.4-0.1,0.7-0.3,1.1-0.4c0.1,0.2,0.2,0.3,0.3,0.5c0.8,1.1,1,4.1,1,5.1c0,0.2,0.1,0.3,0.2,0.5c0.1,0.1,0.3,0.2,0.5,0.2H42
	c0.3,0,0.6-0.2,0.6-0.5c0,0,1.2-5.5,1.9-8.5c0.7-3,0.8-5.7-0.8-10.8c-0.5-1.7-1.5-3.2-2.9-4.5c1-0.5,2.9-1,5.2,0.5
	c0.1,0.1,0.2,0.1,0.4,0.1c0.2,0,0.4-0.1,0.5-0.3C47.1,14.3,47.1,13.9,46.7,13.7z M20.4,37H19c0-1.1-0.6-2.6-1-3.5
	c1,0.2,2.1,0.4,3.2,0.5C21.1,35,20.7,36.3,20.4,37z M32.7,37.2H31c0.3-1.1,0.5-2.6,0.6-3.3c0.9-0.2,1.8-0.4,2.7-0.6
	C34.4,34.9,33.2,36.6,32.7,37.2z M42.5,19.2c1.5,4.9,1.4,7.3,0.8,10.2c-0.6,2.4-1.5,6.5-1.8,8h-2.3c0-1.3-0.2-4-1.2-5.3
	c-1.1-1.5-2.4-5.3-2.3-9c0-0.4-0.3-0.7-0.6-0.7c0,0,0,0,0,0c-0.4,0-0.6,0.3-0.6,0.6c0,3.1,0.7,6.2,1.7,8.3c-2.4,1-5.1,1.5-7.7,1.7
	c-0.2-0.3-0.4-0.6-0.6-0.9c-0.2-0.3-0.6-0.4-0.9-0.2c-0.3,0.2-0.4,0.6-0.2,0.9c0.1,0.1,0.1,0.2,0.2,0.3c-6.9,0.1-13.1-1.8-13.2-1.9
	c-0.3-0.1-0.7,0.1-0.8,0.4c-0.1,0.3,0.1,0.7,0.4,0.8c0.1,0,0.5,0.2,1.1,0.3c-0.6,2.7-1.7,4-2.1,4.3h-1.7v-5.2c0-0.4-0.3-0.6-0.6-0.6
	c-2.3,0-6.6-2.4-7.8-3l-0.6-4.9h2c0.3,0,0.5-0.2,0.6-0.4c1.2-3.1,3.6-5.5,4.7-6.4l0.6,1.5c0.1,0.3,0.3,0.4,0.6,0.4
	c0.1,0,0.2,0,0.2,0c0.3-0.1,0.5-0.5,0.4-0.8l-3-7.7c1.4,0.1,4.3,0.7,7.4,4.6c0.2,0.3,0.6,0.3,0.9,0.1c0.3-0.2,0.3-0.6,0.1-0.9
	c-0.1-0.1-0.2-0.3-0.3-0.4c0.9-0.3,3.7-1.3,8.2-1.7c0,0.2-0.1,0.4-0.2,0.7c-0.1,0.4,0.1,0.7,0.5,0.8c0,0,0.1,0,0.1,0
	c0.3,0,0.6-0.2,0.6-0.5c0.1-0.4,0.2-0.8,0.2-1c0.7,0,1.5-0.1,2.3-0.1C35,11.1,41.1,14.3,42.5,19.2z M24,24.7c0,0-0.1,0-0.1,0
	c-0.3,0-0.6-0.2-0.6-0.5c-0.2-1-0.3-2-0.4-3c0-0.4,0.2-0.7,0.6-0.7c0.4,0,0.7,0.2,0.7,0.6c0.1,1,0.2,2,0.3,2.9
	C24.6,24.3,24.4,24.6,24,24.7z M26.3,29.5c0.1,0.3,0,0.7-0.3,0.9c-0.1,0-0.2,0.1-0.3,0.1c-0.2,0-0.5-0.1-0.6-0.4
	c-0.4-0.9-0.8-1.9-1.1-2.9c-0.1-0.3,0.1-0.7,0.4-0.8c0.3-0.1,0.7,0.1,0.8,0.4C25.5,27.7,25.9,28.6,26.3,29.5z M22.9,18.1
	c0-1,0.1-2,0.2-3c0-0.4,0.4-0.6,0.7-0.6c0.4,0,0.6,0.4,0.6,0.7c-0.1,1-0.2,2-0.2,2.9c0,0.4-0.3,0.6-0.6,0.6c0,0,0,0,0,0
	C23.2,18.7,22.9,18.4,22.9,18.1z"/>
</svg>
