<?xml version="1.0" encoding="utf-8"?>
<!-- Generator: Adobe Illustrator 21.1.0, SVG Export Plug-In . SVG Version: 6.00 Build 0)  -->
<svg version="1.1" id="Layer_1" xmlns="http://www.w3.org/2000/svg" xmlns:xlink="http://www.w3.org/1999/xlink" x="0px" y="0px"
	 viewBox="0 0 47 47" style="enable-background:new 0 0 47 47;" xml:space="preserve">
<path d="M46.9,11.9C46.9,11.9,46.9,11.9,46.9,11.9c0-0.1,0-0.2-0.1-0.3c0,0-0.1-0.1-0.1-0.1c0,0-0.1-0.1-0.1-0.1c0,0,0,0-0.1-0.1
	l-8.5-5.2C38,6.1,37.9,6.1,37.8,6c-0.2,0-4.3-0.3-12.2,5.5c-4.1,3.1-5.5,4-9.7,4.4l-1,0.1c-5,0.4-11.8,1.1-14.3,8.2c0,0,0,0,0,0.1
	c0,0,0,0.1,0,0.1c0,0,0,0,0,0L0.2,35.1c0,0.2,0.1,0.4,0.2,0.5c0.2,0.2,4.7,4.1,9,5.2c0.1,0,0.2,0.1,0.3,0.1c0,0,0,0,0,0
	c0,0,0,0,0.1,0c0.1,0,0.2,0,0.3-0.1c0.1-0.1,11.5-7,14.1-8.1c0.3-0.1,1-0.4,1.9-0.6c2.5-0.8,6.6-2.1,10.3-3.8
	c4.8-2.2,9.4-5.2,10.2-6.2c0.1-0.1,0.2-0.3,0.2-0.4L46.9,11.9C46.9,11.9,46.9,11.9,46.9,11.9z M1.8,25.6l7.3,4.6v3.5
	c-0.5-0.1-1.1-0.3-1.5-0.5c-0.7-0.3-1.1-0.7-1.6-1.2c-0.5-0.5-1-1-1.8-1.4c-1-0.5-2-0.9-2.4-1L1.8,25.6z M10.4,29.9
	c0.5-0.9,3.8-6.5,9.2-6.9l1.2-0.1c5.5-0.3,8.1-0.5,11-2.9c4-3.1,9.8-6.9,13.9-7.5v3.4c-3,0.2-5.6,1.9-7.5,3.1
	c-0.5,0.4-1.2,0.9-2,1.4c-1.6,1.1-4.2,3-4.7,3.1c-0.1,0-0.1,0-0.2-0.1c-0.4-0.3-0.9-0.4-1.8,0c-0.3,0.1-0.7,0.3-1.3,0.7
	c-0.8,0.5-2,1.1-3.3,1.6c-1,0.4-1.9,0.7-2.9,1c-1.5,0.5-2.9,1-4.2,1.6c-2.8,1.4-5.8,3.6-7.3,4.7V29.9z M15,17.3l1.1-0.1
	c4.5-0.4,6.1-1.5,10.3-4.6C33,7.7,36.8,7.3,37.5,7.3l6.9,4.2C39,12.9,32.3,18,30.9,19.1c-2.6,2.1-4.9,2.2-10.3,2.6l-1.2,0.1
	c-5.6,0.3-9,5.3-10,7.1L2,24.2C4.4,18.3,10.3,17.7,15,17.3z M1.6,30.8c0.5,0.2,1.1,0.4,1.9,0.8c0.6,0.3,1.1,0.8,1.5,1.2
	c0.5,0.5,1.1,1.1,2,1.5c0.6,0.3,1.5,0.5,2.1,0.6v4.5c-3.3-1-6.7-3.7-7.6-4.5L1.6,30.8z M36,27.1c-3.7,1.7-7.8,3-10.2,3.7
	c-1,0.3-1.6,0.5-2,0.7c-2.3,0.9-10.7,6-13.4,7.6v-4.3c1-0.7,4.7-3.5,7.9-5.2c1.2-0.6,2.5-1.1,4-1.5c1-0.3,2-0.7,3-1.1
	c1.4-0.5,2.6-1.2,3.4-1.7c0.5-0.3,0.9-0.5,1.1-0.6c0.5-0.2,0.6-0.2,0.7-0.1c0.2,0.1,0.4,0.3,0.9,0.3c0.7,0,2-0.8,5.6-3.3
	c0.8-0.5,1.5-1,2-1.4c1.7-1.2,4.1-2.7,6.8-2.9v4.1C44.6,22.4,40.5,25.1,36,27.1z"/>
</svg>
