<svg width="38" height="49" viewBox="0 0 38 49" fill="none" xmlns="http://www.w3.org/2000/svg">
<path d="M32.6046 0.2948C34.2328 0.2948 35.4765 0.792292 36.3358 1.78727C37.2403 2.73703 37.6926 3.95815 37.6926 5.45062C37.6926 6.98832 37.2629 8.4808 36.4036 9.92804L15.8482 45.5439C15.215 46.6293 14.4236 47.4434 13.4738 47.9861C12.5693 48.4836 11.6195 48.7324 10.6245 48.7324C9.04161 48.7324 7.63959 48.2123 6.41847 47.1721C5.19736 46.0866 4.5868 44.7751 4.5868 43.2374C4.5868 42.1519 4.90338 41.0665 5.53655 39.981L22.9714 10.1994H6.01143C3.93101 10.1994 2.41593 9.79237 1.46617 8.97829C0.56164 8.16421 0.109375 6.94309 0.109375 5.31494C0.109375 3.64156 0.584253 2.39783 1.53401 1.58375C2.48377 0.724451 3.97624 0.2948 6.01143 0.2948H32.6046Z" fill="#252B41"/>
</svg>
