<svg width="50" height="51" viewBox="0 0 50 51" fill="none" xmlns="http://www.w3.org/2000/svg">
<path d="M47.9637 16.0514C46.4461 14.4046 44.3231 14.1948 41.654 15.419C38.0043 13.1081 31.6223 12.3534 21.6082 12.8319C20.0195 12.902 18.439 13.099 16.8817 13.421C16.3695 12.0962 15.6917 10.8415 14.8645 9.68698C14.7661 9.55573 14.6238 9.46418 14.4636 9.42898C14.3034 9.39378 14.1358 9.41727 13.9915 9.49518C12.7805 10.1522 11.9379 11.437 11.3559 12.821C10.2977 11.6686 9.20747 10.971 8.10317 10.7643C7.94198 10.7349 7.77559 10.7641 7.63404 10.8466C7.49249 10.9292 7.38511 11.0596 7.33129 11.2143C7.26528 11.4073 5.79184 15.7893 7.03325 19.1167C6.41137 19.8479 5.86723 20.5796 5.35356 21.2745C4.38911 22.5745 3.55668 23.6964 2.49887 24.4241C2.37903 24.5064 2.28858 24.6247 2.24067 24.762C1.95102 25.5491 1.82001 26.3859 1.85521 27.2239C1.89041 28.0619 2.09111 28.8847 2.44575 29.6448C2.50392 29.7514 2.58943 29.8407 2.6935 29.9034C2.79757 29.9661 2.91646 29.9999 3.03793 30.0014C5.05864 30.0253 6.55122 30.5542 8.1309 31.1139C9.94451 31.8424 11.8625 32.2775 13.8129 32.403C13.8649 32.4214 13.9375 32.4464 14.0286 32.4768C14.5364 34.2717 15.479 37.9967 15.3516 40.6253C15.3471 40.7177 15.3614 40.8101 15.3937 40.8969C15.426 40.9836 15.4756 41.0629 15.5394 41.13C15.6033 41.197 15.6801 41.2503 15.7652 41.2868C15.8502 41.3233 15.9419 41.3421 16.0344 41.3421H19.2532C19.4197 41.3421 19.5804 41.2814 19.7053 41.1713C19.8302 41.0611 19.9105 40.9092 19.9313 40.744C19.9332 40.7292 20.1192 39.2448 20.302 36.9456C20.3047 36.9065 20.3118 36.8675 20.3165 36.8284C20.5549 38.0799 20.6609 39.3531 20.6329 40.6268C20.6284 40.7193 20.6427 40.8117 20.675 40.8985C20.7073 40.9852 20.7568 41.0645 20.8207 41.1315C20.8845 41.1986 20.9613 41.2519 21.0464 41.2884C21.1315 41.3248 21.2231 41.3436 21.3157 41.3436H24.5383C24.7052 41.3436 24.8662 41.2826 24.9912 41.1721C25.1162 41.0616 25.1964 40.9092 25.2168 40.7436C25.2188 40.7292 25.4004 39.2452 25.5829 36.9499C25.6944 36.2192 25.9007 35.5061 26.1965 34.8288C27.9636 34.9565 29.7366 34.9788 31.5063 34.8956C31.9024 36.6342 32.2977 38.8725 32.2094 40.6264C32.205 40.7187 32.2193 40.811 32.2515 40.8976C32.2837 40.9842 32.3332 41.0634 32.3969 41.1303C32.4605 41.1973 32.5371 41.2506 32.622 41.2872C32.7069 41.3237 32.7983 41.3426 32.8907 41.3428H36.1133C36.2802 41.3429 36.4412 41.2819 36.5662 41.1713C36.6912 41.0608 36.7714 40.9084 36.7918 40.7428C36.7918 40.7284 36.9754 39.2444 37.1582 36.9483C37.1782 36.7387 37.2151 36.5312 37.2688 36.3276C37.5639 37.7403 37.7007 39.1815 37.6766 40.6245C37.6719 40.7171 37.6861 40.8096 37.7182 40.8966C37.7504 40.9835 37.8 41.063 37.8638 41.1302C37.9277 41.1974 38.0046 41.2509 38.0898 41.2875C38.175 41.324 38.2667 41.3429 38.3594 41.3428H41.5782C41.7447 41.3429 41.9054 41.2822 42.0303 41.172C42.1552 41.0619 42.2355 40.91 42.2563 40.7448C42.2563 40.7299 42.4442 39.2452 42.627 36.9467C42.7821 36.0404 43.0525 35.1575 43.4317 34.3198C44.3301 31.9893 45.559 28.7995 45.5625 23.8764C45.5836 23.546 45.5938 23.2612 45.5938 23.0069C45.5949 22.54 45.5654 22.0735 45.5055 21.6104C45.3066 19.6075 44.3846 17.7456 42.9122 16.3733C44.6782 15.7194 45.9809 15.9171 46.9582 16.9776C47.0186 17.0452 47.0919 17.1001 47.1737 17.1392C47.2555 17.1782 47.3443 17.2006 47.4348 17.205C47.5254 17.2094 47.6159 17.1958 47.7011 17.1649C47.7863 17.134 47.8646 17.0864 47.9312 17.025C47.9979 16.9636 48.0517 16.8895 48.0895 16.8071C48.1273 16.7247 48.1483 16.6356 48.1513 16.545C48.1543 16.4544 48.1393 16.3641 48.1071 16.2794C48.0749 16.1946 48.0261 16.1172 47.9637 16.0514ZM8.43754 12.285C9.38898 12.7485 10.2105 13.4408 10.8286 14.2999C10.6457 14.9151 10.5063 15.5108 10.3989 16.0483C9.57529 16.6081 8.80662 17.2446 8.10317 17.9495C7.61723 15.8733 8.13598 13.4167 8.43754 12.285ZM24.2188 36.8397C24.1067 38.2483 23.995 39.3448 23.9266 39.9757H22.0079C21.9308 38.0333 21.6506 36.1043 21.1719 34.2202C22.3868 34.4285 23.5895 34.5906 24.7801 34.7065C24.4984 35.3892 24.3096 36.1067 24.2188 36.8397ZM35.7965 36.8397C35.6848 38.2483 35.5731 39.3448 35.5047 39.9757H33.586C33.522 38.2359 33.2875 36.5067 32.886 34.8128C34.0993 34.7434 35.3059 34.5854 36.4961 34.3401C36.1487 35.1371 35.9127 35.9783 35.795 36.8397H35.7965ZM44.152 21.7921C44.2038 22.1949 44.2292 22.6007 44.2282 23.0069C44.2282 23.2374 44.2184 23.4999 44.1985 23.81V23.8546C44.1985 28.5354 43.02 31.5944 42.159 33.8284C41.6985 35.0229 41.3348 35.9667 41.2668 36.8397C41.1551 38.2487 41.0422 39.3456 40.9723 39.9757H39.0582C39.0332 37.78 38.4747 35.1534 37.9821 33.2495C37.9409 33.0923 37.8451 32.9549 37.712 32.8619C37.5788 32.7689 37.4169 32.7263 37.2551 32.7417C37.2211 32.6245 37.1836 32.4936 37.1434 32.3475C37.1203 32.2602 37.0801 32.1783 37.0251 32.1066C36.9701 32.0349 36.9015 31.9748 36.8231 31.9298C36.7448 31.8848 36.6583 31.8558 36.5687 31.8444C36.479 31.8331 36.3881 31.8396 36.301 31.8636C36.2139 31.8876 36.1324 31.9286 36.0612 31.9843C35.9901 32.04 35.9307 32.1092 35.8865 32.188C35.8423 32.2668 35.8141 32.3536 35.8036 32.4433C35.7931 32.533 35.8006 32.624 35.8254 32.7108C35.8618 32.8421 35.895 32.9589 35.9262 33.0678C34.4614 33.327 32.9798 33.4809 31.493 33.5284C30.217 33.5938 28.9149 33.5982 27.5868 33.5417C27.6915 33.1776 27.8211 32.7112 27.9653 32.1538C27.9878 32.0669 27.9929 31.9764 27.9804 31.8874C27.968 31.7985 27.9381 31.7129 27.8925 31.6356C27.847 31.5582 27.7866 31.4906 27.7149 31.4365C27.6432 31.3825 27.5616 31.3431 27.4747 31.3206C27.3877 31.2981 27.2972 31.2929 27.2083 31.3054C27.1194 31.3179 27.0338 31.3478 26.9564 31.3933C26.8791 31.4389 26.8114 31.4992 26.7574 31.5709C26.7033 31.6426 26.6639 31.7243 26.6415 31.8112C26.4579 32.521 26.2985 33.0815 26.1868 33.46C24.3919 33.3271 22.6055 33.0979 20.8352 32.7733C20.678 32.7448 20.5159 32.7721 20.3768 32.8506C20.2376 32.9291 20.1304 33.0537 20.0735 33.203L19.8438 33.8018C19.3774 35.0096 19.009 35.9639 18.9415 36.8413C18.829 38.2503 18.7161 39.3471 18.6465 39.9772H16.7325C16.7028 37.1647 15.8067 33.6737 15.2442 31.7503C15.2176 31.6616 15.1732 31.5793 15.1137 31.5085C15.0542 31.4376 14.9808 31.3796 14.8981 31.3382C14.9037 31.1887 14.86 31.0416 14.7738 30.9194C14.6875 30.7973 14.5635 30.7068 14.4208 30.6621C14.2781 30.6174 14.1246 30.6208 13.9841 30.6719C13.8435 30.723 13.7237 30.8189 13.643 30.9448C13.625 30.9721 13.6114 30.9928 13.5954 31.0178C11.8781 30.8664 10.1921 30.4657 8.59028 29.8284C6.96735 29.1711 5.251 28.7735 3.50434 28.6503C3.1443 27.604 3.13156 26.4695 3.46801 25.4155C4.61879 24.5647 5.51176 23.3612 6.45434 22.0909C7.50091 20.5768 8.732 19.199 10.1192 17.9893C10.1094 18.0921 10.1039 18.162 10.102 18.1846C10.0888 18.3653 10.1478 18.5439 10.266 18.6811C10.3843 18.8184 10.5522 18.9031 10.7329 18.9167C10.75 18.9167 10.7672 18.9186 10.7844 18.9186C10.9568 18.9185 11.1228 18.8532 11.2491 18.7358C11.3753 18.6185 11.4526 18.4577 11.4653 18.2858C11.5825 16.7206 12.2875 12.6319 14.1426 11.0487C14.8649 12.1686 16.3805 14.8303 16.1989 17.2077C16.192 17.2972 16.2028 17.3872 16.2307 17.4725C16.2586 17.5579 16.3031 17.6369 16.3615 17.705C16.4199 17.7732 16.4912 17.8292 16.5713 17.8698C16.6514 17.9104 16.7387 17.9348 16.8282 17.9417C17.0085 17.9535 17.1863 17.8943 17.3234 17.7766C17.4606 17.659 17.5463 17.4924 17.5622 17.3124C17.6142 16.4445 17.526 15.574 17.3008 14.7342C17.8477 14.6225 18.409 14.5249 18.9926 14.4452C19.009 14.7342 19.0188 15.0268 19.0188 15.3225C19.0188 15.544 19.0145 15.7663 19.0055 15.9866C18.9984 16.1677 19.0635 16.3442 19.1865 16.4774C19.3095 16.6105 19.4803 16.6894 19.6614 16.6967H19.6891C19.8656 16.6967 20.0352 16.6283 20.1624 16.506C20.2896 16.3837 20.3646 16.2168 20.3715 16.0405C20.3814 15.8001 20.3862 15.5603 20.386 15.321C20.386 14.9725 20.3723 14.6288 20.3516 14.2885C20.786 14.2495 21.2287 14.219 21.6797 14.1971C24.1473 14.0799 26.3415 14.0432 28.3071 14.0799C28.3735 14.6339 28.4301 15.1987 28.4668 15.7776C28.4779 15.9495 28.5534 16.111 28.6783 16.2296C28.8033 16.3483 28.9684 16.4153 29.1407 16.4174H29.1844C29.2743 16.4119 29.3621 16.3887 29.443 16.3492C29.5239 16.3096 29.5961 16.2545 29.6557 16.187C29.7152 16.1194 29.7608 16.0408 29.7898 15.9556C29.8189 15.8704 29.8309 15.7803 29.825 15.6905C29.7907 15.1565 29.7403 14.6358 29.6821 14.119C32.0609 14.1743 34.4293 14.4542 36.7555 14.9549C36.4786 15.3303 36.2298 15.7255 36.011 16.1374C35.9262 16.2976 35.9086 16.4849 35.9619 16.6582C36.0152 16.8314 36.1352 16.9764 36.2954 17.0612C36.3746 17.1033 36.4615 17.1293 36.5508 17.1378C36.6402 17.1464 36.7304 17.1372 36.8162 17.1108C36.902 17.0844 36.9817 17.0414 37.0509 16.9841C37.12 16.9269 37.1772 16.8566 37.2192 16.7772C37.4889 16.2668 37.8128 15.787 38.1852 15.346C42.3438 16.6702 43.7649 18.9421 44.1504 21.7921H44.152Z" fill="#252B41"/>
<path d="M18.8045 21.303C18.8915 21.3253 18.982 21.3303 19.0709 21.3176C19.1598 21.3049 19.2453 21.2748 19.3226 21.229C19.3998 21.1832 19.4673 21.1227 19.5211 21.0508C19.5749 20.9789 19.614 20.897 19.6361 20.81C19.8408 20.0085 20.0053 19.2151 20.1256 18.4518C20.15 18.2743 20.1038 18.0944 19.9969 17.9506C19.89 17.8068 19.731 17.7107 19.5541 17.683C19.3771 17.6552 19.1963 17.6979 19.0505 17.802C18.9047 17.9062 18.8056 18.0633 18.7744 18.2397C18.6611 18.9604 18.5057 19.7116 18.3111 20.4717C18.2665 20.6474 18.2933 20.8336 18.3858 20.9894C18.4783 21.1453 18.6289 21.2581 18.8045 21.303Z" fill="#252B41"/>
<path d="M16.8023 26.6042C16.6394 26.5251 16.4517 26.5138 16.2804 26.5727C16.1091 26.6317 15.9681 26.756 15.8883 26.9186C15.5519 27.6081 15.1926 28.2967 14.8191 28.9655C14.7384 29.1232 14.7222 29.3062 14.7737 29.4757C14.8253 29.6452 14.9406 29.7881 15.0955 29.8742C15.2504 29.9603 15.4326 29.983 15.6038 29.9373C15.775 29.8917 15.9218 29.7813 16.0133 29.6296C16.3984 28.9389 16.7699 28.228 17.1172 27.5163C17.196 27.3535 17.2072 27.1661 17.1482 26.9952C17.0892 26.8242 16.9648 26.6836 16.8023 26.6042Z" fill="#252B41"/>
<path d="M29.1158 21.1026H29.1529C29.3277 21.1025 29.4958 21.0354 29.6227 20.9151C29.7495 20.7949 29.8255 20.6306 29.835 20.4561C29.8779 19.6538 29.8998 18.8581 29.8998 18.0921V18.0757C29.8997 17.9863 29.8818 17.8978 29.8473 17.8154C29.8128 17.733 29.7623 17.6582 29.6988 17.5954C29.6352 17.5325 29.5599 17.4829 29.4771 17.4494C29.3942 17.4158 29.3056 17.399 29.2162 17.3999C29.034 17.4018 28.86 17.4757 28.732 17.6053C28.604 17.7349 28.5323 17.9099 28.5326 18.0921C28.5326 18.8342 28.5115 19.6046 28.4697 20.3831C28.4649 20.4727 28.4778 20.5625 28.5076 20.6472C28.5375 20.7319 28.5837 20.8099 28.6437 20.8767C28.7037 20.9435 28.7763 20.9979 28.8573 21.0366C28.9383 21.0754 29.0262 21.0978 29.1158 21.1026Z" fill="#252B41"/>
<path d="M28.4299 26.7276C28.3416 26.7114 28.251 26.7127 28.1632 26.7316C28.0754 26.7504 27.9922 26.7864 27.9184 26.8375C27.8445 26.8885 27.7815 26.9536 27.7329 27.0291C27.6842 27.1046 27.651 27.1889 27.635 27.2772C27.4979 28.0296 27.3436 28.7952 27.1772 29.553C27.1578 29.6407 27.156 29.7313 27.1717 29.8197C27.1874 29.9081 27.2204 29.9925 27.2687 30.0681C27.3171 30.1438 27.3799 30.2091 27.4535 30.2605C27.5271 30.3119 27.6102 30.3482 27.6979 30.3674C27.7462 30.3783 27.7956 30.3837 27.8451 30.3835C28.0008 30.3834 28.1519 30.3301 28.2732 30.2325C28.3945 30.1349 28.4789 29.9988 28.5123 29.8467C28.6822 29.0729 28.8397 28.2909 28.9811 27.5229C28.9971 27.4345 28.9956 27.3438 28.9766 27.256C28.9576 27.1681 28.9215 27.0849 28.8703 27.0111C28.8191 26.9372 28.7539 26.8741 28.6783 26.8255C28.6027 26.7769 28.5183 26.7436 28.4299 26.7276Z" fill="#252B41"/>
<path d="M36.186 27.8389C36.1593 27.6596 36.0625 27.4982 35.9168 27.3903C35.7711 27.2823 35.5885 27.2367 35.4092 27.2633C35.2299 27.29 35.0685 27.3868 34.9605 27.5325C34.8526 27.6782 34.8069 27.8608 34.8336 28.0401C34.9489 28.8124 35.0918 29.6026 35.2586 30.3889C35.2962 30.5663 35.4027 30.7215 35.5548 30.8203C35.7068 30.9191 35.8918 30.9535 36.0692 30.9159C36.2465 30.8783 36.4017 30.7718 36.5005 30.6197C36.5993 30.4677 36.6337 30.2827 36.5961 30.1053C36.4348 29.3467 36.2969 28.5842 36.186 27.8389Z" fill="#252B41"/>
<path d="M35.2957 26.2925C35.4765 26.2782 35.6442 26.1927 35.7619 26.0549C35.8797 25.917 35.938 25.7381 35.9238 25.5573C35.8676 24.8417 35.8395 24.1417 35.8395 23.4764V23.2741C35.8402 23.1843 35.8233 23.0953 35.7897 23.0121C35.756 22.9289 35.7063 22.8531 35.6434 22.7891C35.5804 22.7251 35.5055 22.6742 35.4228 22.6392C35.3402 22.6041 35.2515 22.5857 35.1617 22.585H35.1559C34.9756 22.5851 34.8027 22.6564 34.6748 22.7833C34.5468 22.9102 34.4742 23.0825 34.4727 23.2628V23.4764C34.4727 24.1772 34.5023 24.9135 34.5613 25.6639C34.5747 25.8353 34.6521 25.9954 34.7783 26.1123C34.9044 26.2291 35.0699 26.2941 35.2418 26.2944C35.2594 26.2944 35.2777 26.2936 35.2957 26.2925Z" fill="#252B41"/>
<path d="M35.22 21.6093C35.2477 21.6124 35.2756 21.6139 35.3036 21.6139C35.4703 21.6138 35.6313 21.5526 35.7561 21.442C35.8809 21.3315 35.961 21.1791 35.9813 21.0136C36.069 20.2721 36.2134 19.5384 36.4133 18.819C36.4627 18.6446 36.4407 18.4576 36.3523 18.2994C36.2638 18.1411 36.1161 18.0244 35.9416 17.9751C35.7672 17.9257 35.5803 17.9477 35.422 18.0361C35.2637 18.1246 35.1471 18.2723 35.0977 18.4468C34.8789 19.2335 34.7206 20.0358 34.6243 20.8468C34.6133 20.9359 34.62 21.0264 34.644 21.113C34.668 21.1996 34.7088 21.2806 34.7641 21.3514C34.8194 21.4222 34.8882 21.4815 34.9664 21.5257C35.0446 21.5699 35.1308 21.5983 35.22 21.6093Z" fill="#252B41"/>
<path d="M24.8262 24.2792C23.9989 24.1104 23.2063 23.9733 22.4704 23.8725C22.3807 23.8587 22.2892 23.8629 22.2011 23.8848C22.1131 23.9067 22.0303 23.9459 21.9576 24.0001C21.8849 24.0544 21.8236 24.1225 21.7775 24.2006C21.7314 24.2788 21.7013 24.3653 21.689 24.4552C21.6766 24.545 21.6823 24.6365 21.7057 24.7241C21.729 24.8118 21.7696 24.8939 21.825 24.9657C21.8804 25.0376 21.9496 25.0976 22.0285 25.1425C22.1073 25.1873 22.1943 25.216 22.2844 25.2268C22.9914 25.3241 23.7547 25.4557 24.5532 25.6174C24.7298 25.6512 24.9126 25.614 25.0619 25.5139C25.2113 25.4138 25.3152 25.2589 25.3512 25.0827C25.3872 24.9066 25.3523 24.7233 25.2541 24.5727C25.1559 24.4221 25.0023 24.3162 24.8266 24.278L24.8262 24.2792Z" fill="#252B41"/>
<path d="M20.0613 23.6592C19.5949 23.6452 19.1551 23.6557 18.7398 23.6846C18.8094 23.4921 18.8832 23.2975 18.948 23.1065C18.9821 23.0205 18.9983 22.9284 18.9957 22.8358C18.9931 22.7433 18.9717 22.6523 18.9329 22.5683C18.894 22.4843 18.8385 22.409 18.7697 22.3471C18.7009 22.2852 18.6202 22.238 18.5326 22.2082C18.4449 22.1784 18.3522 22.1668 18.2599 22.1739C18.1676 22.1811 18.0778 22.2069 17.9958 22.2499C17.9138 22.2928 17.8414 22.352 17.7829 22.4238C17.7245 22.4955 17.6813 22.5785 17.6558 22.6675C17.4152 23.3733 17.1406 24.0971 16.8398 24.8159C16.77 24.9833 16.7695 25.1715 16.8385 25.3392C16.9075 25.5069 17.0402 25.6404 17.2076 25.7102C17.375 25.7801 17.5632 25.7805 17.7309 25.7116C17.8987 25.6426 18.0321 25.5098 18.1019 25.3425C18.134 25.2643 18.1621 25.1893 18.1933 25.1124C18.799 25.0332 19.4102 25.0044 20.0207 25.0264C20.1108 25.0302 20.2007 25.0159 20.2851 24.9843C20.3696 24.9528 20.4468 24.9047 20.5124 24.8428C20.5779 24.7809 20.6304 24.7065 20.6667 24.624C20.703 24.5415 20.7224 24.4525 20.7238 24.3624C20.7291 24.1813 20.6623 24.0056 20.538 23.8737C20.4138 23.7419 20.2424 23.6648 20.0613 23.6592Z" fill="#252B41"/>
<path d="M29.4325 25.4268L29.2958 25.3878C29.3287 25.323 29.3511 25.2533 29.3622 25.1815C29.4759 24.3878 29.5732 23.5952 29.6505 22.8257C29.6664 22.6465 29.6111 22.4683 29.4965 22.3296C29.3819 22.1909 29.2173 22.103 29.0384 22.085C28.8594 22.0669 28.6805 22.12 28.5405 22.233C28.4005 22.3459 28.3106 22.5094 28.2903 22.6882C28.2146 23.4389 28.1196 24.2116 28.0087 24.9874C28.0064 25.0026 28.0087 25.0174 28.0087 25.0327C27.7181 24.9546 27.4274 24.8764 27.1462 24.8077C26.9703 24.7635 26.7841 24.791 26.6285 24.8841C26.4729 24.9772 26.3607 25.1283 26.3165 25.3042C26.2723 25.48 26.2998 25.6662 26.3929 25.8218C26.486 25.9774 26.6371 26.0897 26.813 26.1339C27.5314 26.3139 28.286 26.5182 29.056 26.7397C29.1425 26.7656 29.2334 26.7741 29.3232 26.7647C29.4131 26.7552 29.5002 26.7281 29.5795 26.6848C29.6588 26.6415 29.7287 26.5829 29.7853 26.5124C29.8418 26.4419 29.8838 26.3609 29.9088 26.2741C29.9338 26.1872 29.9414 26.0963 29.931 26.0066C29.9207 25.9168 29.8926 25.83 29.8485 25.7511C29.8044 25.6723 29.7451 25.6029 29.6741 25.5471C29.603 25.4913 29.5216 25.4502 29.4345 25.426L29.4325 25.4268Z" fill="#252B41"/>
<path d="M33.9403 26.8659C33.2012 26.6073 32.4458 26.3553 31.6965 26.1159C31.611 26.0885 31.521 26.0783 31.4315 26.0858C31.342 26.0932 31.2549 26.1183 31.1751 26.1594C31.0953 26.2005 31.0244 26.257 30.9664 26.3255C30.9084 26.3941 30.8645 26.4733 30.8372 26.5589C30.8098 26.6444 30.7996 26.7344 30.8071 26.8239C30.8145 26.9134 30.8395 27.0005 30.8807 27.0803C30.9218 27.1601 30.9782 27.231 31.0468 27.289C31.1153 27.347 31.1946 27.3909 31.2801 27.4182C32.0184 27.6526 32.7618 27.9026 33.4899 28.1565C33.5757 28.1914 33.6677 28.2085 33.7604 28.2067C33.853 28.2049 33.9443 28.1844 34.0287 28.1462C34.1132 28.1081 34.189 28.0532 34.2515 27.9849C34.3141 27.9165 34.3621 27.8362 34.3927 27.7487C34.4232 27.6613 34.4357 27.5685 34.4293 27.4761C34.4229 27.3836 34.3978 27.2935 34.3555 27.2111C34.3132 27.1286 34.2546 27.0557 34.1832 26.9966C34.1118 26.9375 34.0292 26.8936 33.9403 26.8675V26.8659Z" fill="#252B41"/>
<path d="M41.7192 19.5846C41.6377 19.6224 41.5645 19.6759 41.5037 19.7419C41.443 19.808 41.3958 19.8854 41.3649 19.9697C41.3341 20.054 41.3201 20.1436 41.3238 20.2332C41.3276 20.3229 41.3489 20.411 41.3867 20.4925C41.6151 21.0064 41.7646 21.5519 41.8301 22.1104C41.8545 22.2901 41.9493 22.4528 42.0936 22.5626C42.2379 22.6724 42.4199 22.7204 42.5996 22.696C42.7793 22.6716 42.942 22.5768 43.0518 22.4325C43.1616 22.2882 43.2096 22.1061 43.1852 21.9264C43.1016 21.2324 42.9134 20.5551 42.627 19.9175C42.5506 19.7531 42.4121 19.6257 42.2419 19.5633C42.0717 19.5009 41.8837 19.5086 41.7192 19.5846Z" fill="#252B41"/>
</svg>
