<svg width="26" height="26" viewBox="0 0 26 26" fill="none" xmlns="http://www.w3.org/2000/svg">
<g clip-path="url(#clip0)">
<path d="M23.6248 0.0472412H1.38567C0.624139 0.0472412 0.00585938 0.664286 0.00585938 1.42705V23.6662C0.00585938 24.429 0.624139 25.0468 1.38567 25.0468H13.3586V15.3655H10.1009V11.592H13.3586V8.80937C13.3586 5.58089 15.3299 3.82196 18.2105 3.82196C19.5916 3.82196 20.7759 3.92528 21.1212 3.97015V7.34476L19.1231 7.34558C17.5569 7.34558 17.2547 8.09023 17.2547 9.18231V11.5908H20.9916L20.503 15.3639H17.2543V25.0456H23.6244C24.3868 25.0456 25.0054 24.4269 25.0054 23.6662V1.42623C25.005 0.664286 24.3872 0.0472412 23.6248 0.0472412Z" fill="#DCDFE6"/>
</g>
<defs>
<clipPath id="clip0">
<rect width="25.0004" height="25" fill="white" transform="translate(0.00585938 0.0462341)"/>
</clipPath>
</defs>
</svg>
