<svg width="36" height="46" viewBox="0 0 36 46" fill="none" xmlns="http://www.w3.org/2000/svg">
<g clip-path="url(#clip0)">
<path d="M17.5996 11.0988V25.0988" stroke="white" stroke-width="1.2" stroke-miterlimit="10" stroke-linecap="round" stroke-linejoin="round"/>
<path d="M21.7996 14.9988L17.5996 19.0988" stroke="white" stroke-width="1.2" stroke-miterlimit="10" stroke-linecap="round" stroke-linejoin="round"/>
<path d="M13.5 14.9988L17.6 19.0988" stroke="white" stroke-width="1.2" stroke-miterlimit="10" stroke-linecap="round" stroke-linejoin="round"/>
<path d="M17.5996 39.0988V25.0988" stroke="white" stroke-width="1.2" stroke-miterlimit="10" stroke-linecap="round" stroke-linejoin="round"/>
<path d="M13.5 35.1988L17.6 31.0988" stroke="white" stroke-width="1.2" stroke-miterlimit="10" stroke-linecap="round" stroke-linejoin="round"/>
<path d="M21.7996 35.1988L17.5996 31.0988" stroke="white" stroke-width="1.2" stroke-miterlimit="10" stroke-linecap="round" stroke-linejoin="round"/>
<path d="M29.7996 18.1987L17.5996 25.0987" stroke="white" stroke-width="1.2" stroke-miterlimit="10" stroke-linecap="round" stroke-linejoin="round"/>
<path d="M28.5004 23.6988L22.9004 22.0988" stroke="white" stroke-width="1.2" stroke-miterlimit="10" stroke-linecap="round" stroke-linejoin="round"/>
<path d="M24.4004 16.4988L22.9004 22.0988" stroke="white" stroke-width="1.2" stroke-miterlimit="10" stroke-linecap="round" stroke-linejoin="round"/>
<path d="M29.5996 32.3988L17.5996 25.0988" stroke="white" stroke-width="1.2" stroke-miterlimit="10" stroke-linecap="round" stroke-linejoin="round"/>
<path d="M24.0998 33.8987L22.7998 28.2987" stroke="white" stroke-width="1.2" stroke-miterlimit="10" stroke-linecap="round" stroke-linejoin="round"/>
<path d="M28.3998 26.8988L22.7998 28.2988" stroke="white" stroke-width="1.2" stroke-miterlimit="10" stroke-linecap="round" stroke-linejoin="round"/>
<path d="M5.5 18.1987L17.6 25.0987" stroke="white" stroke-width="1.2" stroke-miterlimit="10" stroke-linecap="round" stroke-linejoin="round"/>
<path d="M6.7998 23.6988L12.3998 22.0988" stroke="white" stroke-width="1.2" stroke-miterlimit="10" stroke-linecap="round" stroke-linejoin="round"/>
<path d="M10.9004 16.4988L12.4004 22.0988" stroke="white" stroke-width="1.2" stroke-miterlimit="10" stroke-linecap="round" stroke-linejoin="round"/>
<path d="M5.7002 32.3988L17.6002 25.0988" stroke="white" stroke-width="1.2" stroke-miterlimit="10" stroke-linecap="round" stroke-linejoin="round"/>
<path d="M11.2002 33.8987L12.5002 28.2987" stroke="white" stroke-width="1.2" stroke-miterlimit="10" stroke-linecap="round" stroke-linejoin="round"/>
<path d="M6.90039 26.8988L12.5004 28.2988" stroke="white" stroke-width="1.2" stroke-miterlimit="10" stroke-linecap="round" stroke-linejoin="round"/>
<path d="M34.6996 0.798706H0.599609V44.7987H34.6996V0.798706Z" stroke="white" stroke-width="1.2" stroke-miterlimit="10" stroke-linecap="round" stroke-linejoin="round"/>
<path d="M0.599609 6.79871H34.6996" stroke="white" stroke-width="1.2" stroke-miterlimit="10" stroke-linecap="round" stroke-linejoin="round"/>
<path d="M4.2998 4.69873C4.85209 4.69873 5.2998 4.25102 5.2998 3.69873C5.2998 3.14645 4.85209 2.69873 4.2998 2.69873C3.74752 2.69873 3.2998 3.14645 3.2998 3.69873C3.2998 4.25102 3.74752 4.69873 4.2998 4.69873Z" fill="white"/>
<path d="M8 4.69873C8.55228 4.69873 9 4.25102 9 3.69873C9 3.14645 8.55228 2.69873 8 2.69873C7.44772 2.69873 7 3.14645 7 3.69873C7 4.25102 7.44772 4.69873 8 4.69873Z" fill="white"/>
<path d="M11.3994 4.69873C11.9517 4.69873 12.3994 4.25102 12.3994 3.69873C12.3994 3.14645 11.9517 2.69873 11.3994 2.69873C10.8471 2.69873 10.3994 3.14645 10.3994 3.69873C10.3994 4.25102 10.8471 4.69873 11.3994 4.69873Z" fill="white"/>
</g>
<defs>
<clipPath id="clip0">
<rect width="35.3" height="45.2" fill="white" transform="translate(0 0.19873)"/>
</clipPath>
</defs>
</svg>
