<svg width="56" height="56" viewBox="0 0 56 56" fill="none" xmlns="http://www.w3.org/2000/svg">
<g clip-path="url(#clip0)">
<path d="M14.2512 45.147C14.2512 45.147 16.9688 45.7941 22.1453 46.1823C27.3218 46.5706 29.91 45.7941 33.1453 44.6294C33.1453 44.6294 33.1453 44.6294 33.2747 44.6294C30.9453 43.3353 30.1688 41.0059 30.1688 40.8765C30.0394 40.4882 30.2982 40.2294 30.5571 40.1C30.9453 39.9706 31.2041 40.2294 31.3335 40.4882C31.3335 40.6176 32.3688 43.3353 35.3453 43.9823C38.3218 43.2059 42.0747 42.3 43.3688 42.0412L44.2747 35.4412C43.7571 35.0529 42.7218 34.4059 40.91 33.1117C37.9335 30.9117 35.9924 27.9353 35.3453 24.7C35.2159 24.3117 35.2159 24.0529 35.0865 23.6647C34.5688 20.947 34.0512 17.8412 28.7453 14.6059C28.2277 14.347 26.9335 13.7 25.8982 13.4412L23.1806 19.0059C23.0512 19.3941 22.5335 19.5235 22.1453 19.3941C21.7571 19.2647 21.6277 18.747 21.7571 18.3588L26.4159 8.91174C24.0865 9.5588 19.8159 10.8529 17.2277 12.2764C13.9924 14.0882 13.8629 18.747 13.8629 18.8764C13.8629 19.2647 13.4747 19.6529 13.0865 19.6529C12.6982 19.6529 12.31 19.2647 12.31 18.8764C12.31 18.747 12.31 15.1235 14.51 12.5353L7.13354 12.147C5.71001 14.0882 4.41589 16.1588 3.51001 18.4882C2.3453 21.4647 1.69824 24.7 1.69824 27.9353C1.69824 35.5706 5.06295 42.6882 10.8865 47.7353C11.1453 47.8647 11.2747 48.1235 11.5335 48.2529L13.4747 45.5353C13.7335 45.2765 13.9924 45.147 14.2512 45.147ZM27.9688 24.3117C29.5218 24.3117 30.6865 25.4765 30.6865 27.0294C30.6865 28.5823 29.5218 29.747 27.9688 29.747C26.4159 29.747 25.2512 28.5823 25.2512 27.0294C25.2512 25.4765 26.4159 24.3117 27.9688 24.3117Z" fill="white"/>
<path d="M35.3447 19.0059C37.0271 18.8764 38.0624 17.4529 38.0624 17.3235L40.3918 12.147C39.3565 12.147 37.8035 12.147 36.2506 12.4059C34.5682 12.6647 32.7565 14.0882 31.8506 14.8647C33.6624 16.2882 34.6976 17.7117 35.3447 19.0059Z" fill="white"/>
<path d="M27.7096 2.05292C20.0743 2.05292 13.0861 5.28821 8.29785 10.7235L16.192 11.2412C16.3214 11.2412 16.3214 11.1117 16.4508 11.1117C20.3331 8.91174 27.4508 7.22939 27.7096 7.09998C27.9684 6.97056 28.3567 7.09998 28.4861 7.3588C28.7449 7.61762 28.8743 7.87645 28.6155 8.26468L26.6743 12.147C28.0979 12.5353 29.5214 13.3117 29.5214 13.3117C29.9096 13.5706 30.1684 13.7 30.5567 13.9588C31.4626 13.0529 33.6626 11.2412 35.992 10.8529C38.839 10.4647 41.4273 10.5941 41.5567 10.5941C41.8155 10.5941 42.0743 10.7235 42.2037 10.9823C42.3332 11.2412 42.3332 11.5 42.2037 11.6294L39.4861 17.9706C39.3567 18.1 38.192 20.0412 35.992 20.4294C36.3802 21.4647 36.5096 22.5 36.7684 23.4059C36.7684 23.7941 36.8979 24.0529 36.8979 24.4412C37.5449 27.2882 39.2273 30.0059 41.9449 31.947C44.6626 33.8882 45.5684 34.5353 45.5684 34.5353C45.8273 34.6647 45.9567 35.0529 45.9567 35.3117L44.9214 42.947C44.9214 43.3353 44.6626 43.5941 44.2743 43.5941C44.1449 43.5941 37.0273 45.147 33.6626 46.1823C30.2979 47.347 27.5802 48.2529 22.0155 47.7353C18.0037 47.347 15.4155 46.9588 14.3802 46.7L12.6979 49.0294C17.0979 52.1353 22.2743 53.6882 27.5802 53.6882C41.8155 53.6882 53.4626 42.0412 53.4626 27.8059C53.4626 13.5706 42.0743 2.05292 27.7096 2.05292Z" fill="#F1404B"/>
<path d="M55.2744 27.9353C55.2744 12.7941 42.8509 0.5 27.7097 0.5C16.3215 0.5 6.22736 7.35882 2.08618 17.9706C0.792061 21.2059 0.274414 24.4412 0.274414 27.9353C0.274414 35.9588 3.76853 43.5941 9.9803 48.9C10.3685 49.2882 10.7568 49.5471 11.2744 49.9353C11.2744 49.9353 11.2744 50.0647 11.4038 50.0647C16.0627 53.5588 21.8862 55.5 27.7097 55.5C42.8509 55.5 55.2744 43.0765 55.2744 27.9353ZM11.0156 47.7353C5.19206 42.8176 1.82736 35.5706 1.82736 27.9353C1.82736 24.7 2.47441 21.5941 3.63912 18.4882C4.545 16.1588 5.70971 14.0882 7.26265 12.1471L14.7685 12.6647C12.5685 15.2529 12.5685 18.7471 12.5685 19.0059C12.5685 19.3941 12.9568 19.7824 13.345 19.7824C13.7332 19.7824 14.1215 19.3941 14.1215 19.0059C14.1215 19.0059 14.1215 14.3471 17.4862 12.4059C20.0744 10.9824 24.345 9.68824 26.6744 9.04118L22.0156 18.4882C21.8862 18.8765 22.0156 19.3941 22.4038 19.5235C22.7921 19.6529 23.3097 19.5235 23.4391 19.1353L26.1568 13.5706C27.1921 13.8294 28.4862 14.4765 29.0038 14.7353C34.3097 17.8412 34.8274 20.9471 35.345 23.7941C35.345 24.1824 35.4744 24.4412 35.6038 24.8294C36.2509 28.0647 38.3215 31.0412 41.1685 33.2412C42.9803 34.5353 44.0156 35.3118 44.5332 35.5706L43.6274 42.1706C42.2038 42.4294 38.5803 43.2059 35.6038 44.1118C32.3685 43.4647 31.3332 40.7471 31.3332 40.6176C31.2038 40.2294 30.8156 40.1 30.5568 40.2294C30.1685 40.3588 30.0391 40.7471 30.1685 41.0059C30.1685 41.1353 30.945 43.4647 33.2744 44.7588C33.2744 44.7588 33.2744 44.7588 33.145 44.7588C29.9097 45.9235 27.3215 46.7 22.145 46.3118C16.9685 45.9235 14.2509 45.2765 14.2509 45.2765C13.9921 45.1471 13.6038 45.2765 13.4744 45.5353L11.5332 48.2529C11.4038 47.9941 11.145 47.8647 11.0156 47.7353ZM31.8509 14.8647C32.7568 14.0882 34.4391 12.6647 36.2509 12.4059C37.8038 12.1471 39.3568 12.1471 40.3921 12.1471L38.1921 17.3235C38.1921 17.4529 37.1568 18.8765 35.4744 19.0059C34.6979 17.7118 33.6627 16.2882 31.8509 14.8647ZM27.7097 53.9471C22.4038 53.9471 17.0979 52.2647 12.8274 49.2882L14.5097 46.9588C15.545 47.2177 18.1332 47.6059 22.145 47.9941C27.5803 48.5118 30.2979 47.6059 33.7921 46.4412C37.1568 45.2765 44.4038 43.8529 44.4038 43.8529C44.6626 43.7235 44.9215 43.4647 45.0509 43.2059L46.0862 35.5706C46.0862 35.3118 45.9568 34.9235 45.6979 34.7941C45.6979 34.7941 44.6627 34.2765 42.0744 32.2059C39.4862 30.2647 37.6744 27.5471 37.0274 24.7C36.8979 24.4412 36.8979 24.0529 36.8979 23.6647C36.7685 22.7588 36.5097 21.7235 36.1215 20.6882C38.3215 20.3 39.4862 18.3588 39.6156 18.2294L42.3332 11.8882C42.4627 11.6294 42.4627 11.3706 42.3332 11.2412C42.2038 11.1118 41.945 10.8529 41.6862 10.8529C41.5568 10.8529 38.9685 10.7235 36.1215 11.1118C33.7921 11.5 31.5921 13.3118 30.6862 14.2176C30.4274 13.9588 30.0391 13.8294 29.6509 13.5706C29.5215 13.5706 28.0979 12.7941 26.8038 12.4059L28.6156 8.26471C28.745 8.00588 28.745 7.61765 28.4862 7.48824C28.3568 7.22941 27.9685 7.1 27.7097 7.22941C27.4509 7.35882 20.3332 9.04118 16.4509 11.2412C16.3215 11.2412 16.3215 11.3706 16.1921 11.3706L8.42736 10.7235C13.2156 5.28824 20.2038 2.05294 27.8391 2.05294C42.0744 2.05294 53.7215 13.7 53.7215 27.9353C53.7215 42.1706 42.0744 53.9471 27.7097 53.9471Z" fill="#252B41"/>
<path d="M27.9686 29.7471C29.4695 29.7471 30.6863 28.5303 30.6863 27.0294C30.6863 25.5285 29.4695 24.3118 27.9686 24.3118C26.4677 24.3118 25.251 25.5285 25.251 27.0294C25.251 28.5303 26.4677 29.7471 27.9686 29.7471Z" fill="#252B41"/>
</g>
<defs>
<clipPath id="clip0">
<rect width="55" height="55" fill="white" transform="translate(0.274414 0.5)"/>
</clipPath>
</defs>
</svg>
