<svg width="45" height="46" viewBox="0 0 45 46" fill="none" xmlns="http://www.w3.org/2000/svg">
<g clip-path="url(#clip0)">
<path d="M22.6193 44.8133C34.6591 44.8133 44.4193 35.0531 44.4193 23.0133C44.4193 10.9734 34.6591 1.21326 22.6193 1.21326C10.5795 1.21326 0.819336 10.9734 0.819336 23.0133C0.819336 35.0531 10.5795 44.8133 22.6193 44.8133Z" stroke="white" stroke-width="1.2" stroke-miterlimit="10" stroke-linecap="round" stroke-linejoin="round"/>
<path d="M10.6201 25.0132C10.6201 18.8132 16.1201 13.8132 22.9201 13.8132C29.7201 13.8132 35.2201 18.8132 35.2201 25.0132C35.2201 31.2132 31.0201 35.9132 22.9201 35.9132C14.8201 35.9132 10.6201 31.2132 10.6201 25.0132Z" stroke="white" stroke-width="1.2" stroke-miterlimit="10" stroke-linecap="round" stroke-linejoin="round"/>
<path d="M22.9199 32.2132C25.9575 32.2132 28.4199 30.3328 28.4199 28.0132C28.4199 25.6936 25.9575 23.8132 22.9199 23.8132C19.8824 23.8132 17.4199 25.6936 17.4199 28.0132C17.4199 30.3328 19.8824 32.2132 22.9199 32.2132Z" stroke="white" stroke-width="1.2" stroke-miterlimit="10" stroke-linecap="round" stroke-linejoin="round"/>
<path d="M18.3193 20.9133V22.1133" stroke="white" stroke-width="1.2" stroke-miterlimit="10" stroke-linecap="round" stroke-linejoin="round"/>
<path d="M27.4199 20.9133V22.1133" stroke="white" stroke-width="1.2" stroke-miterlimit="10" stroke-linecap="round" stroke-linejoin="round"/>
<path d="M20.7193 28.9133C21.2164 28.9133 21.6193 28.5103 21.6193 28.0133C21.6193 27.5162 21.2164 27.1133 20.7193 27.1133C20.2223 27.1133 19.8193 27.5162 19.8193 28.0133C19.8193 28.5103 20.2223 28.9133 20.7193 28.9133Z" fill="white"/>
<path d="M25.0201 28.9133C25.5172 28.9133 25.9201 28.5103 25.9201 28.0133C25.9201 27.5162 25.5172 27.1133 25.0201 27.1133C24.5231 27.1133 24.1201 27.5162 24.1201 28.0133C24.1201 28.5103 24.5231 28.9133 25.0201 28.9133Z" fill="white"/>
<path d="M27.4199 14.4133C27.4199 14.4133 30.3199 12.3133 34.6199 12.8133C34.6199 12.8133 35.1199 16.3133 33.4199 18.9133" stroke="white" stroke-width="1.2" stroke-miterlimit="10" stroke-linecap="round" stroke-linejoin="round"/>
<path d="M18.3194 14.4133C18.3194 14.4133 15.4194 12.3133 11.1194 12.8133C11.1194 12.8133 10.6194 16.3133 12.3194 18.9133" stroke="white" stroke-width="1.2" stroke-miterlimit="10" stroke-linecap="round" stroke-linejoin="round"/>
<path d="M13.2197 32.4133L7.21973 38.4133" stroke="white" stroke-width="1.2" stroke-miterlimit="10" stroke-linecap="round" stroke-linejoin="round"/>
<path d="M38.1201 7.71326L33.1201 12.7133" stroke="white" stroke-width="1.2" stroke-miterlimit="10" stroke-linecap="round" stroke-linejoin="round"/>
</g>
<defs>
<clipPath id="clip0">
<rect width="44.7" height="44.7" fill="white" transform="translate(0.219727 0.613281)"/>
</clipPath>
</defs>
</svg>
