<svg width="26" height="26" viewBox="0 0 26 26" fill="none" xmlns="http://www.w3.org/2000/svg">
<g clip-path="url(#clip0)">
<path d="M24.0842 17.4769L22.147 15.5398C20.7613 14.1539 18.5066 14.1539 17.1207 15.5398L15.8167 16.8436C15.3114 17.3493 14.5164 17.3849 13.9677 16.927C11.8976 15.1995 9.97216 13.274 8.24467 11.204C7.78672 10.6552 7.82257 9.86026 8.32802 9.355L9.63188 8.05095C11.0176 6.66526 11.0176 4.41039 9.63188 3.0247L7.69478 1.08741C7.02358 0.416214 6.13095 0.0465698 5.18166 0.0465698C4.23237 0.0465698 3.33992 0.416214 2.66854 1.08741C1.22086 2.53528 0.32841 4.45617 0.155795 6.49646C-0.0168201 8.53656 0.540316 10.5801 1.7244 12.2505C4.80629 16.5982 8.57331 20.3654 12.9211 23.4473C14.3924 24.4902 16.1529 25.0468 17.9458 25.0466C18.1884 25.0466 18.432 25.0363 18.6752 25.0159C20.7155 24.8432 22.6364 23.9508 24.0841 22.5031C24.7554 21.8319 25.1251 20.9393 25.1251 19.99C25.1251 19.0407 24.7554 18.1481 24.0842 17.4769ZM13.4859 22.6506C9.22829 19.6326 5.5391 15.9434 2.5211 11.6858C0.341189 8.61037 0.693667 4.44358 3.35919 1.77806C3.84594 1.29131 4.4933 1.02313 5.18166 1.02313C5.87021 1.02313 6.51737 1.29131 7.00432 1.77806L8.94142 3.71516C9.42837 4.20211 9.69635 4.84927 9.69635 5.53783C9.69635 6.22638 9.42818 6.87354 8.94142 7.36049L8.86093 7.44098L3.00462 1.99272C2.81388 1.80218 2.5047 1.80218 2.31397 1.99272C2.12342 2.18346 2.12342 2.49264 2.31397 2.68337L8.17028 8.13163L7.63737 8.66435C6.77239 9.52953 6.71097 10.8904 7.49489 11.8298C9.25976 13.9448 11.227 15.9119 13.3419 17.6768C14.2814 18.4607 15.6421 18.3995 16.5073 17.5343L17.0402 17.0016L22.5683 22.5296C19.9211 24.5224 16.2597 24.6167 13.4859 22.6506ZM23.3936 21.8125C23.3661 21.8399 23.3383 21.8668 23.3106 21.8937C23.3013 21.8827 23.2917 21.8718 23.2813 21.8613L17.7307 16.3107L17.8114 16.2302C18.2981 15.7435 18.9453 15.4753 19.6338 15.4753C20.3224 15.4753 20.9695 15.7435 21.4565 16.2302L23.3936 18.1675C23.8805 18.6543 24.1485 19.3016 24.1485 19.99C24.1485 20.6786 23.8804 21.3257 23.3936 21.8125Z" fill="white"/>
</g>
<defs>
<clipPath id="clip0">
<rect width="25" height="25" fill="white" transform="translate(0.125 0.0465698)"/>
</clipPath>
</defs>
</svg>
