<svg width="169" height="73" viewBox="0 0 169 73" fill="none" xmlns="http://www.w3.org/2000/svg">
<g clip-path="url(#clip0)">
<path d="M153.508 43.5044C155.086 43.7664 157.256 43.1988 157.146 41.2121C157.036 39.2255 155.305 37.479 154.012 35.9508C152.719 34.4226 149.564 31.6936 144.041 28.3971C138.519 25.1005 130.937 22.4371 123.881 21.2146C116.824 19.992 105.079 20.5378 100.63 20.9307C96.1815 21.3237 86.8462 21.542 79.3516 21.2146C71.8571 20.8871 66.4224 19.4244 60.3961 17.6124C54.3479 15.8004 49.5925 13.1151 48.4749 12.3728C47.3354 11.6306 43.3909 9.31643 43.2156 9.40376C43.0403 9.49108 43.2375 12.1545 43.2156 12.6785C43.1937 13.2024 42.2733 14.4905 41.068 14.5778C39.8628 14.6651 39.3807 14.4032 39.5341 14.0102C39.6875 13.6172 41.594 13.2243 42.4486 12.1763C43.3033 11.1284 42.8212 8.00655 42.5363 7.08963C42.2514 6.17271 41.4625 4.75367 39.8628 3.64026C38.2631 2.52686 37.0359 2.67968 36.9921 3.00715C36.9482 3.33462 37.8905 3.98957 37.7152 4.66634C37.5399 5.34311 36.1593 4.84099 35.3923 4.25154C34.8664 3.85858 34.4281 3.31279 33.9898 2.8325C33.6173 2.4177 33.2886 1.91558 32.8284 1.56628C32.4559 1.26064 31.9957 1.10782 31.5355 1.02049C31.0972 0.933168 30.637 0.911336 30.1768 0.911336C28.862 0.867674 27.5691 0.889505 26.4515 1.69727C25.9913 2.02474 25.5749 2.39587 25.1366 2.76701C24.1505 3.61843 23.2082 4.49169 22.2659 5.38678C21.7838 5.84524 21.3017 6.3037 20.8415 6.78399C20.8415 6.78399 15.3192 6.28186 13.5003 6.67483C11.6815 7.0678 10.2571 9.62207 10.9802 11.8489C11.7034 14.0975 12.7334 14.9708 12.8868 16.9793C13.0402 19.0096 11.9883 20.8216 10.5639 22.6773C9.13948 24.5329 5.0635 28.8119 3.46378 29.6633C1.86407 30.5147 0.877941 31.257 0.352007 32.0211C-0.173927 32.7852 0.0671263 35.6888 0.352007 37.2825C0.636888 38.8762 3.26656 40.7755 4.73479 41.7579C6.20302 42.7403 8.67929 43.9192 11.0679 43.8756C13.4565 43.8319 16.4587 42.1072 18.672 41.3213C20.8853 40.5354 23.9314 40.579 25.5311 40.6882C27.1308 40.7973 31.3383 41.3431 33.0695 41.1466C34.8007 40.9501 36.6195 39.3346 36.6195 39.3346C36.6195 39.3346 34.0556 40.2079 31.4917 40.1861C28.9058 40.1642 24.7422 39.5093 23.252 39.2473C21.7619 38.9853 18.7597 39.291 18.4091 39.1381C18.0584 38.9853 18.2995 37.6536 17.9927 36.7803C17.6859 35.9071 16.4587 34.5317 15.6917 33.3965C14.9248 32.2612 15.0124 31.5845 15.3192 30.7549C15.6041 29.9253 19.3294 23.7907 20.0526 23.3104C20.7758 22.8301 23.9752 23.4414 25.1805 23.5505C26.3857 23.6597 27.4157 23.8125 28.862 22.5244C30.3083 21.2364 32.7408 18.0708 33.9241 16.7609C35.1075 15.4511 36.5538 13.9665 37.1674 14.032C37.781 14.0757 38.285 15.3856 40.1477 15.4074C42.0103 15.4511 43.1937 13.9447 43.8511 13.7264C44.5085 13.5081 44.8372 13.7045 50.3595 17.1102C55.8818 20.5159 62.3245 22.5463 69.9506 24.0963C77.5766 25.6463 91.4262 25.4717 95.3488 25.2097C99.2714 24.9477 111.894 24.8604 116.474 25.1879C121.054 25.5153 129.556 27.2619 137.139 30.2746C144.721 33.2873 149.739 40.1206 150.155 40.6008C150.572 41.0811 151.93 43.2425 153.508 43.5044ZM12.9087 10.3207C13.084 9.97137 13.851 9.97137 13.9167 10.408C13.9825 10.8446 13.9605 11.4341 13.9825 11.7834C14.0044 12.2637 14.4426 12.9623 14.4207 13.1151C14.3988 13.2679 13.4784 13.0933 13.1936 12.613C12.9087 12.1327 12.7334 10.67 12.9087 10.3207ZM4.1212 38.636C3.94589 38.9417 3.28847 38.3959 3.31038 37.7628C3.31038 37.1297 3.79249 36.693 4.03354 36.693C4.31842 36.693 4.29651 38.3304 4.1212 38.636ZM9.24905 42.4565C8.63546 42.4565 7.10149 42.5875 6.31259 42.2382C5.52369 41.8889 5.52369 41.3868 5.56752 41.3431C5.61134 41.2995 7.95613 41.2995 8.76694 41.2995C10.1256 41.2776 10.4762 41.2995 10.5201 41.8016C10.5639 42.3037 9.86264 42.4565 9.24905 42.4565ZM29.2126 18.7476C28.8401 19.0751 28.2046 19.4025 27.7006 19.3589C27.1965 19.3152 26.4076 19.0096 26.0789 19.0969C25.7502 19.1842 25.1805 19.5554 25.1805 19.5554C25.1805 19.5554 25.5968 19.0532 25.6626 18.7039C25.7283 18.3546 25.6845 17.4159 25.8817 16.9356C26.0789 16.4553 26.9117 15.6694 27.8101 15.6257C28.7086 15.582 29.4537 15.7567 29.4537 15.7567C29.4537 15.7567 29.3003 16.8264 28.8839 16.9138C28.4675 17.0011 27.1965 16.8046 26.7144 17.1539C26.2323 17.5032 26.2981 18.2673 26.4734 18.5075C26.6487 18.7476 28.2922 18.6384 28.5552 18.5729C28.8182 18.5075 29.4537 17.9617 29.4537 17.9617C29.4537 17.9617 29.5852 18.4201 29.2126 18.7476ZM28.358 17.4159C28.3799 17.5905 28.1388 18.0708 27.8101 18.0708C27.4814 18.0708 27.1746 17.525 27.2842 17.3722C27.3938 17.2194 28.3141 17.2412 28.358 17.4159ZM27.0651 14.8616C26.5172 14.8834 25.8598 15.6039 25.8598 15.6039C25.8598 15.2546 25.9255 14.8834 25.9255 14.8834C25.4215 15.1236 25.3119 16.1497 25.0928 16.2588C24.8737 16.368 23.9533 16.3243 24.019 15.6475C24.1067 14.9489 24.786 14.0757 25.2681 13.6172C25.7502 13.1806 26.3638 13.1369 27.3499 13.1151C28.3361 13.0933 28.9935 12.9841 28.9935 12.9841C28.8839 13.2679 28.0293 13.7045 27.3938 13.7482C26.8021 13.7919 26.5172 14.163 26.5172 14.163C26.5172 14.163 27.6786 13.9447 28.4675 14.1848C29.2564 14.425 29.9358 15.5384 29.9358 15.5384C29.0811 14.9926 27.6129 14.8398 27.0651 14.8616ZM32.3682 6.91498C31.6889 7.85373 29.2345 10.2552 27.6786 10.9101C26.1228 11.5651 24.545 12.8313 23.5369 14.3813C22.5289 15.9313 22.3317 17.8962 21.7838 18.9877C21.236 20.0793 20.3375 20.5378 19.8992 20.6469C19.4609 20.7561 18.5186 21.8477 18.0804 22.3061C17.6421 22.7646 14.8371 26.9562 14.1578 27.9605C13.4784 28.9647 12.3827 30.9732 12.6676 32.1958C12.9525 33.4183 15.1001 35.3395 15.7575 36.0817C16.4149 36.824 16.6121 38.3959 15.9766 39.5966C15.3411 40.7973 13.325 41.8452 12.1636 41.8889C11.0022 41.9326 10.783 41.103 10.0599 40.71C9.33671 40.317 8.19718 40.2079 7.99996 40.0332C7.80273 39.8367 7.84656 38.3085 7.84656 38.3085C7.84656 38.3085 6.72895 37.8283 6.22493 37.1297C5.91814 36.693 5.94005 35.8198 6.00579 35.2303C6.02771 35.0775 5.83048 35.012 5.74283 35.1212C5.52369 35.4268 5.21689 35.7543 4.95393 35.8634C4.42799 36.0817 3.70483 35.6669 3.39804 35.012C3.09124 34.3571 2.78445 33.2655 2.74062 33.0472C2.71871 32.9162 2.39 32.938 2.14895 32.9817C2.03938 33.0035 1.97364 32.8944 2.03938 32.807C2.21469 32.5887 2.47766 32.2831 2.80636 32.0211C3.35421 31.6063 3.37613 31.9119 4.07737 31.65C4.77862 31.388 7.01383 28.7464 7.01383 28.7464C7.01383 28.7464 12.9963 21.4765 13.6318 20.6033C14.2673 19.73 15.2535 18.5948 15.3411 17.918C15.4288 17.2412 15.889 14.4686 16.5026 13.7045C17.1161 12.9404 18.2557 11.7834 18.2557 11.7834C18.2557 11.7834 17.7516 11.6742 17.3134 11.8707C16.8751 12.0672 16.13 13.5954 15.626 13.1806C15.122 12.7658 15.889 11.6087 16.6998 11.2813C17.5106 10.9538 18.8035 10.1242 20.3375 9.03262C21.8715 7.94105 23.7341 5.95439 23.7341 5.95439C23.7341 5.95439 26.2323 2.91983 27.591 2.39587C28.9496 1.87192 30.9438 2.09023 32.1272 2.91983C33.3105 3.74942 33.0256 5.97622 32.3682 6.91498ZM37.3865 11.5214C36.8167 11.5214 35.9621 10.6263 35.9183 9.86222C35.8744 8.98896 36.0059 7.78823 36.488 7.7664C36.9701 7.74457 37.014 8.24669 36.9263 8.74881C36.8387 9.25094 36.8387 9.66573 36.8606 9.97137C36.9044 10.539 37.2769 11.0848 37.4742 11.3468C37.5399 11.4122 37.4742 11.5214 37.3865 11.5214ZM37.9782 12.3073C38.1097 11.9144 38.9424 12.1327 39.9504 11.958C40.5859 11.8489 40.9366 11.5869 41.09 11.4122C41.1338 11.3468 41.2433 11.3904 41.2433 11.4559C41.2653 11.7179 41.1995 12.0017 41.1557 12.1109C41.09 12.2418 40.6078 12.875 39.4245 12.9623C38.2411 13.0496 37.8467 12.6785 37.9782 12.3073Z" fill="#D71D22"/>
<path d="M19.2846 64.091C19.2846 64.091 22.4402 64.0473 23.4044 62.2135C23.4044 62.2135 22.2211 62.7156 20.9501 62.8902C19.6791 63.0649 18.1013 62.8466 18.1451 62.4973C18.1889 62.1261 19.1312 61.5149 18.9778 59.2226C18.8463 57.1267 18.2766 56.2753 17.7507 55.8169C17.6849 55.7514 17.7068 55.664 17.7945 55.6422C18.8244 55.4021 23.3606 54.376 24.9822 53.5901C26.823 52.7168 28.9487 50.8175 30.0444 49.1801C31.1401 47.5427 32.5864 46.1674 33.6601 45.3596C34.7339 44.5518 37.8238 43.3074 37.8238 43.3074C37.758 43.3074 34.2299 43.6568 31.3154 45.9272C28.4008 48.1977 26.8668 50.359 25.5301 51.4069C24.1933 52.4548 22.002 53.3936 20.0297 53.8302C18.0575 54.2668 16.2605 54.6816 15.2086 54.8563C14.1568 55.0309 13.2583 55.1401 13.4336 57.0831C13.6308 59.0261 15.5812 61.4712 15.7127 61.9297C15.8441 62.3445 16.5454 63.6762 17.7507 63.4579C17.8602 63.436 17.9698 63.5234 17.9698 63.6543C17.9479 64.0691 18.1232 64.9206 19.6791 65.9248C21.8486 67.3438 24.7631 67.6058 26.5381 67.3002C28.3132 66.9945 32.3672 65.2699 32.3672 65.2699C32.3672 65.2699 28.1817 66.0121 25.6397 66.0995C23.0976 66.1868 20.1612 65.4445 19.2846 64.091ZM17.3124 61.7768C16.8084 62.0606 16.3701 61.2529 16.2386 60.7944C16.1071 60.336 15.0991 58.7859 14.7704 58.0437C14.4417 57.3014 14.2225 56.6683 14.5074 56.188C14.7923 55.7077 15.6469 56.1007 16.4358 56.8211C17.2028 57.5415 17.5534 58.3711 17.6849 58.9606C17.8602 59.812 17.8164 61.5149 17.3124 61.7768Z" fill="#D71D22"/>
<path d="M45.274 36.5179C42.2718 34.2474 39.2696 33.5052 37.0343 32.9594C34.7991 32.4354 34.3389 33.6798 33.1337 35.4918C31.9284 37.3038 30.1753 37.675 30.1753 37.675C30.7231 37.806 31.9284 37.6531 32.8269 37.151C33.7253 36.6489 34.7334 35.3827 36.1797 34.9024C37.626 34.4221 40.1242 35.7101 41.8554 37.1292C43.8934 38.7884 45.6027 41.6483 45.8656 43.2201C46.1286 44.8138 46.3916 45.6871 47.5311 46.0146C48.6706 46.342 50.5333 46.1237 49.9416 43.5039C49.35 40.8842 48.2762 38.8102 45.274 36.5179Z" fill="#D71D22"/>
<path d="M36.0485 48.3287C34.7117 48.2413 33.7256 49.5076 33.7256 49.5076C33.4626 49.8569 33.1339 50.5773 33.3312 50.8175C33.5284 51.0576 33.9447 50.7956 34.4269 50.5991C34.909 50.4027 35.654 50.3372 36.421 50.49C37.3414 50.6865 38.6343 51.4724 38.8535 51.3196C39.0726 51.1668 38.9192 50.3372 38.5248 49.7696C38.1303 49.2019 37.3852 48.416 36.0485 48.3287Z" fill="#D71D22"/>
<path d="M16.764 57.4979C16.6325 57.1922 15.9313 57.1049 15.6683 57.4979C15.4054 57.8908 15.7779 58.5895 16.0847 58.9388C16.5449 59.4191 17.3119 59.2444 17.3119 59.2444C17.3119 59.2444 17.0489 58.8951 17.0051 58.524C17.0051 58.524 16.8955 57.8035 16.764 57.4979Z" fill="#D71D22"/>
<path d="M10.5402 33.789C9.79515 33.5488 9.59793 33.8981 9.11582 34.4221C8.63372 34.9679 7.9763 34.9897 7.9763 34.9897C7.58185 35.0115 7.12166 35.1207 6.85869 35.6883C6.59572 36.2559 7.55994 37.3911 8.63372 37.6313C9.7075 37.8714 10.8251 37.0637 11.0881 36.1249C11.351 35.1862 11.2634 34.0291 10.5402 33.789Z" fill="#D71D22"/>
<path d="M120.439 33.2868C110.906 30.5143 104.047 28.7677 92.3234 29.5318C80.5995 30.2959 70.1027 32.2608 65.4789 34.0509C60.8331 35.8411 52.9879 39.1158 52.6811 40.7095C52.5716 41.3208 52.6592 41.8011 52.8345 42.1286C53.1194 42.6525 53.7987 42.8272 54.3028 42.4997C56.0559 41.3645 62.3013 37.6968 73.7623 35.208C87.4585 32.2171 100.541 32.4136 108.54 34.2911C116.538 36.1904 120.592 37.9369 124.274 39.9673C127.955 41.9976 133.587 45.9054 137.269 50.5555C140.95 55.2056 141.936 59.4409 142.156 60.6853C142.375 61.9296 142.528 65.0734 142.594 65.379C142.66 65.6847 144.741 66.6452 145.53 65.4445C146.319 64.2438 147.941 57.7598 142.813 50.5555C137.685 43.3511 129.971 36.0594 120.439 33.2868Z" fill="#D71D22"/>
<path d="M161.878 48.9618C161.878 48.9618 161.944 48.154 160.892 47.6301C159.84 47.1061 157.78 46.5385 155.742 46.9751C153.704 47.4118 151.425 49.1146 149.585 52.0837C149.585 52.0837 148.642 54.638 148.533 56.4063C148.423 58.1965 149.409 59.7029 150.987 57.8908C152.565 56.0788 153.463 52.3675 154.603 50.8611C155.742 49.3548 156.553 48.8963 158.043 48.6125C159.818 48.285 161.528 48.6343 161.878 48.9618Z" fill="#D71D22"/>
<path d="M166.568 47.9357C164.617 47.5428 162.009 48.3287 162.009 48.3287C162.009 48.3287 162.207 49.0055 162.141 49.3766C162.141 49.3766 161.527 49.0491 161.199 48.9618C160.914 48.8745 160.432 48.7653 160.432 48.7653C160.432 48.7653 157.999 50.2717 157.451 51.6689C156.904 53.0661 156.816 55.2056 158.24 55.5549C159.665 55.9042 160.673 54.9873 160.979 54.0485C161.286 53.1098 162.513 50.3808 163.631 49.6167C164.749 48.8526 167.356 48.3505 169 50.1844C169 50.1625 168.518 48.3287 166.568 47.9357Z" fill="#D71D22"/>
<path d="M127.539 53.5027H124.887V55.4457H127.539V53.5027Z" fill="#050505"/>
<path d="M79.1094 57.6289H77.7069C77.5973 57.6289 77.4878 57.6289 77.4001 57.6507V57.5197C77.4001 56.4281 78.2986 55.5331 79.3943 55.5331H82.0678V53.7647H77.7288C76.0853 53.7647 74.7485 55.0964 74.7485 56.7338V60.5761V60.6634V68.108C74.7485 69.8763 76.1948 71.339 77.9918 71.339H79.1313C80.9063 71.339 82.3746 69.8981 82.3746 68.108V60.8381C82.3527 59.0697 80.9063 57.6289 79.1094 57.6289ZM79.6572 67.4748C79.6572 68.0861 79.1532 68.5883 78.5396 68.5883C77.926 68.5883 77.422 68.0861 77.422 67.4748V61.3184C77.422 60.7071 77.926 60.205 78.5396 60.205C79.1532 60.205 79.6572 60.7071 79.6572 61.3184V67.4748Z" fill="#050505"/>
<path d="M98.2621 56.319C98.2401 56.319 98.2401 56.319 98.2182 56.319C98.1963 56.319 98.1963 56.319 98.1744 56.319C97.2102 56.3408 96.3775 56.8866 95.9392 57.6725V56.319H93.2876V72.889H95.9392V69.7671C96.3775 70.5531 97.2102 71.0988 98.1744 71.1207C98.1963 71.1207 98.1963 71.1207 98.2182 71.1207C98.2401 71.1207 98.2401 71.1207 98.2621 71.1207C99.6865 71.077 100.826 69.92 100.826 68.4791V58.9824C100.826 57.5197 99.6865 56.3626 98.2621 56.319ZM98.1744 67.4748C98.1744 68.0861 97.6704 68.5882 97.0568 68.5882C96.4432 68.5882 95.9392 68.0861 95.9392 67.4748V60.0958C95.9392 59.4845 96.4432 58.9824 97.0568 58.9824C97.6704 58.9824 98.1744 59.4845 98.1744 60.0958V67.4748Z" fill="#050505"/>
<path d="M127.539 56.1225H124.887V71.3608H127.539V56.1225Z" fill="#050505"/>
<path d="M131.177 56.1225H128.854V58.524H131.177V71.339H133.828V58.524H135.647V56.1225H133.828H131.177Z" fill="#050505"/>
<path d="M103.872 56.319H102.71V71.1207H105.362V58.9606H107.597V56.319H105.362H103.872Z" fill="#050505"/>
<path d="M45.7784 54.0267C45.7784 54.0267 44.0472 54.3978 42.6009 57.3887C41.8339 59.0042 41.4395 60.7726 41.4395 62.5628V71.1425H44.091V61.8423C44.091 60.9909 44.2663 60.1395 44.5951 59.3535C45.0333 58.3493 45.7346 57.1267 46.7426 56.5809V71.1425H49.3942V54.0267H46.7426H45.7784Z" fill="#050505"/>
<path d="M69.7301 56.319H69.6205C69.6205 56.319 68.0208 56.6683 66.6183 59.3317C65.2158 56.6683 63.6161 56.319 63.6161 56.319H63.5066H62.63H60.855V71.1425H63.5066V59.5719C64.0106 60.1176 64.3831 60.7944 64.668 61.4275C65.0844 62.3226 65.2816 63.305 65.2816 64.2875V71.1425H67.9332V64.2875C67.9332 63.305 68.1304 62.3226 68.5468 61.4275C68.8316 60.7944 69.2261 60.1176 69.7082 59.5719V71.1425H72.3598V56.319H70.5847H69.7301Z" fill="#050505"/>
<path d="M119.518 53.8739H119.387C119.387 53.8739 117.612 54.2668 116.034 57.3887C114.478 54.2887 112.681 53.8739 112.681 53.8739H112.55H111.564H109.569V71.1207H112.528V57.6725C113.076 58.3057 113.514 59.0916 113.821 59.8339C114.281 60.8818 114.5 62.017 114.5 63.1522V71.1207H117.458V63.1522C117.458 61.9952 117.677 60.8599 118.138 59.8339C118.466 59.1134 118.883 58.3057 119.431 57.6725V71.1207H122.389V53.8739H120.395H119.518Z" fill="#050505"/>
<path d="M87.9622 56.5373H86.7569C85.0695 56.5373 83.689 57.9127 83.689 59.5937V68.0206C83.689 69.8545 85.1791 71.339 87.0199 71.339H87.9622C89.8029 71.339 91.2931 69.8545 91.2931 68.0206V65.2262H88.8607V67.3657C88.8607 68.0425 88.3128 68.5882 87.6335 68.5882C86.9541 68.5882 86.4063 68.0425 86.4063 67.3657V65.2262V64.8114V64.3966H91.2931V59.8557C91.2931 58.0218 89.8029 56.5373 87.9622 56.5373ZM88.7073 61.9951H86.2529V60.205C86.2529 59.5282 86.8007 58.9824 87.4801 58.9824C88.1594 58.9824 88.7073 59.5282 88.7073 60.205V61.9951Z" fill="#050505"/>
<path d="M56.0335 56.5373H54.8282C53.1408 56.5373 51.7603 57.9127 51.7603 59.5937V68.0206C51.7603 69.8545 53.2504 71.339 55.0912 71.339H56.0335C57.8742 71.339 59.3644 69.8545 59.3644 68.0206V65.2262H56.9319V67.3657C56.9319 68.0425 56.3841 68.5882 55.7047 68.5882C55.0254 68.5882 54.4776 68.0425 54.4776 67.3657V65.2262V64.8114V64.3966H59.3644V59.8557C59.3644 58.0218 57.8742 56.5373 56.0335 56.5373ZM56.7785 61.9951H54.3242V60.205C54.3242 59.5282 54.872 58.9824 55.5514 58.9824C56.2307 58.9824 56.7785 59.5282 56.7785 60.205V61.9951Z" fill="#050505"/>
</g>
<defs>
<clipPath id="clip0">
<rect width="169" height="72" fill="white" transform="translate(0 0.867188)"/>
</clipPath>
</defs>
</svg>
