<svg width="26" height="26" viewBox="0 0 26 26" fill="none" xmlns="http://www.w3.org/2000/svg">
<g clip-path="url(#clip0)">
<path d="M13.2595 0.0465698C8.16718 0.0465698 4.02441 4.18933 4.02441 9.28168C4.02441 10.9581 4.77626 12.7611 4.80777 12.8372C5.0506 13.4136 5.52974 14.3088 5.87524 14.8336L12.2073 24.4278C12.4664 24.8211 12.8499 25.0466 13.2595 25.0466C13.6691 25.0466 14.0527 24.8211 14.3118 24.4284L20.6444 14.8336C20.9904 14.3088 21.469 13.4136 21.7118 12.8372C21.7433 12.7617 22.4946 10.9587 22.4946 9.28168C22.4946 4.18933 18.3519 0.0465698 13.2595 0.0465698ZM20.7101 12.4156C20.4933 12.9323 20.0473 13.7651 19.7371 14.2355L13.4046 23.8302C13.2796 24.0198 13.24 24.0198 13.115 23.8302L6.78245 14.2355C6.47226 13.7651 6.02626 12.9317 5.80951 12.4151C5.80027 12.3928 5.1109 10.7332 5.1109 9.28168C5.1109 4.78853 8.76637 1.13305 13.2595 1.13305C17.7527 1.13305 21.4082 4.78853 21.4082 9.28168C21.4082 10.7354 20.7172 12.3994 20.7101 12.4156Z" fill="white"/>
<path d="M13.2593 4.39307C10.5632 4.39307 8.37012 6.58668 8.37012 9.28225C8.37012 11.9778 10.5632 14.1714 13.2593 14.1714C15.9554 14.1714 18.1485 11.9778 18.1485 9.28225C18.1485 6.58668 15.9554 4.39307 13.2593 4.39307ZM13.2593 13.0849C11.1629 13.0849 9.4566 11.3792 9.4566 9.28225C9.4566 7.18533 11.1629 5.47955 13.2593 5.47955C15.3557 5.47955 17.062 7.18533 17.062 9.28225C17.062 11.3792 15.3557 13.0849 13.2593 13.0849Z" fill="white"/>
</g>
<defs>
<clipPath id="clip0">
<rect width="25" height="25" fill="white" transform="translate(0.759766 0.0465698)"/>
</clipPath>
</defs>
</svg>
