<svg width="46" height="34" viewBox="0 0 46 34" fill="none" xmlns="http://www.w3.org/2000/svg">
<g clip-path="url(#clip0)">
<path d="M1.44531 28C1.44531 28 6.04531 32 10.0453 32.9C10.0453 32.9 21.0453 26.2 23.6453 25.1C24.8453 24.6 30.4453 23.1 35.3453 20.9C39.8453 18.8 44.1453 16 44.9453 15.1V5.7L36.7453 0.699998C36.7453 0.699998 32.9453 0.299999 25.5453 5.9C21.4453 8.9 20.1453 9.8 15.9453 10.2C11.3453 10.6 4.34531 10.7 1.84531 17.7L1.44531 28Z" stroke="#252B41" stroke-width="1.3" stroke-miterlimit="10" stroke-linecap="round" stroke-linejoin="round"/>
<path d="M45.0457 5.7C40.4457 6 33.6457 10.8 30.7457 13.1C27.8457 15.4 25.4457 15.4 19.4457 15.8C13.3457 16.2 10.0457 22.8 10.0457 22.8L1.8457 17.7" stroke="#252B41" stroke-width="1.3" stroke-miterlimit="10" stroke-linecap="round" stroke-linejoin="round"/>
<path d="M10.0459 27.4C10.0459 27.4 14.2459 24 17.9459 22.2C19.9459 21.2 22.3459 20.6 24.6459 19.7C26.6459 18.9 28.4459 17.7 29.0459 17.5C30.3459 17 30.0459 17.6 30.7459 17.6C31.4459 17.6 35.7459 14.4 37.6459 13.2C39.6459 11.9 42.1459 10.2 45.0459 10.3" stroke="#252B41" stroke-width="1.3" stroke-miterlimit="10" stroke-linecap="round" stroke-linejoin="round"/>
<path d="M10.0459 22.8V32.8" stroke="#252B41" stroke-width="1.3" stroke-miterlimit="10" stroke-linecap="round" stroke-linejoin="round"/>
<path d="M1.8457 23C1.8457 23 2.9457 23.3 4.3457 24C5.8457 24.8 6.1457 25.9 7.6457 26.6C8.5457 27 10.0457 27.3 10.0457 27.3" stroke="#252B41" stroke-width="1.3" stroke-miterlimit="10" stroke-linecap="round" stroke-linejoin="round"/>
</g>
<defs>
<clipPath id="clip0">
<rect width="44.9" height="33.5" fill="white" transform="translate(0.845703)"/>
</clipPath>
</defs>
</svg>
