<svg width="48" height="33" viewBox="0 0 48 33" fill="none" xmlns="http://www.w3.org/2000/svg">
<path d="M46.9637 7.05143C45.4461 5.40456 43.3231 5.19479 40.654 6.41901C37.0043 4.10807 30.6223 3.35339 20.6082 3.8319C19.0195 3.90199 17.439 4.09897 15.8817 4.42096C15.3695 3.09618 14.6917 1.84155 13.8645 0.68698C13.7661 0.555734 13.6238 0.464183 13.4636 0.428983C13.3034 0.393783 13.1358 0.417275 12.9915 0.495183C11.7805 1.15221 10.9379 2.43698 10.3559 3.82096C9.2977 2.66862 8.20747 1.97096 7.10317 1.76432C6.94198 1.73492 6.77559 1.76411 6.63404 1.84663C6.49249 1.92915 6.38511 2.05957 6.33129 2.21432C6.26528 2.40729 4.79184 6.78932 6.03325 10.1167C5.41137 10.8479 4.86723 11.5796 4.35356 12.2745C3.38911 13.5745 2.55668 14.6964 1.49887 15.4241C1.37903 15.5064 1.28858 15.6247 1.24067 15.762C0.951015 16.5491 0.820012 17.3859 0.855209 18.2239C0.890406 19.0619 1.09111 19.8847 1.44575 20.6448C1.50392 20.7514 1.58943 20.8407 1.6935 20.9034C1.79757 20.9661 1.91646 20.9999 2.03793 21.0014C4.05864 21.0253 5.55122 21.5542 7.1309 22.1139C8.94451 22.8424 10.8625 23.2775 12.8129 23.403C12.8649 23.4214 12.9375 23.4464 13.0286 23.4768C13.5364 25.2717 14.479 28.9967 14.3516 31.6253C14.3471 31.7177 14.3614 31.8101 14.3937 31.8969C14.426 31.9836 14.4756 32.0629 14.5394 32.13C14.6033 32.197 14.6801 32.2503 14.7652 32.2868C14.8502 32.3233 14.9419 32.3421 15.0344 32.3421H18.2532C18.4197 32.3421 18.5804 32.2814 18.7053 32.1713C18.8302 32.0611 18.9105 31.9092 18.9313 31.744C18.9332 31.7292 19.1192 30.2448 19.302 27.9456C19.3047 27.9065 19.3118 27.8675 19.3165 27.8284C19.5549 29.0799 19.6609 30.3531 19.6329 31.6268C19.6284 31.7193 19.6427 31.8117 19.675 31.8985C19.7073 31.9852 19.7568 32.0645 19.8207 32.1315C19.8845 32.1986 19.9613 32.2519 20.0464 32.2884C20.1315 32.3248 20.2231 32.3436 20.3157 32.3436H23.5383C23.7052 32.3436 23.8662 32.2826 23.9912 32.1721C24.1162 32.0616 24.1964 31.9092 24.2168 31.7436C24.2188 31.7292 24.4004 30.2452 24.5829 27.9499C24.6944 27.2192 24.9007 26.5061 25.1965 25.8288C26.9636 25.9565 28.7366 25.9788 30.5063 25.8956C30.9024 27.6342 31.2977 29.8725 31.2094 31.6264C31.205 31.7187 31.2193 31.811 31.2515 31.8976C31.2837 31.9842 31.3332 32.0634 31.3969 32.1303C31.4605 32.1973 31.5371 32.2506 31.622 32.2872C31.7069 32.3237 31.7983 32.3426 31.8907 32.3428H35.1133C35.2802 32.3429 35.4412 32.2819 35.5662 32.1713C35.6912 32.0608 35.7714 31.9084 35.7918 31.7428C35.7918 31.7284 35.9754 30.2444 36.1582 27.9483C36.1782 27.7387 36.2151 27.5312 36.2688 27.3276C36.5639 28.7403 36.7007 30.1815 36.6766 31.6245C36.6719 31.7171 36.6861 31.8096 36.7182 31.8966C36.7504 31.9835 36.8 32.063 36.8638 32.1302C36.9277 32.1974 37.0046 32.2509 37.0898 32.2875C37.175 32.324 37.2667 32.3429 37.3594 32.3428H40.5782C40.7447 32.3429 40.9054 32.2822 41.0303 32.172C41.1552 32.0619 41.2355 31.91 41.2563 31.7448C41.2563 31.7299 41.4442 30.2452 41.627 27.9467C41.7821 27.0404 42.0525 26.1575 42.4317 25.3198C43.3301 22.9893 44.559 19.7995 44.5625 14.8764C44.5836 14.546 44.5938 14.2612 44.5938 14.0069C44.5949 13.54 44.5654 13.0735 44.5055 12.6104C44.3066 10.6075 43.3846 8.74561 41.9122 7.37331C43.6782 6.7194 44.9809 6.91706 45.9582 7.9776C46.0186 8.04522 46.0919 8.10014 46.1737 8.13918C46.2555 8.17822 46.3443 8.2006 46.4348 8.20502C46.5254 8.20943 46.6159 8.19579 46.7011 8.16489C46.7863 8.13399 46.8646 8.08644 46.9312 8.02503C46.9979 7.96361 47.0517 7.88954 47.0895 7.80714C47.1273 7.72473 47.1483 7.63563 47.1513 7.54503C47.1543 7.45443 47.1393 7.36413 47.1071 7.27939C47.0749 7.19465 47.0261 7.11716 46.9637 7.05143ZM7.43754 3.28503C8.38898 3.74846 9.21054 4.44077 9.82856 5.29987C9.64575 5.9151 9.50629 6.51081 9.39887 7.04831C8.57529 7.60808 7.80662 8.24465 7.10317 8.94948C6.61723 6.87331 7.13598 4.41667 7.43754 3.28503ZM23.2188 27.8397C23.1067 29.2483 22.995 30.3448 22.9266 30.9757H21.0079C20.9308 29.0333 20.6506 27.1043 20.1719 25.2202C21.3868 25.4285 22.5895 25.5906 23.7801 25.7065C23.4984 26.3892 23.3096 27.1067 23.2188 27.8397ZM34.7965 27.8397C34.6848 29.2483 34.5731 30.3448 34.5047 30.9757H32.586C32.522 29.2359 32.2875 27.5067 31.886 25.8128C33.0993 25.7434 34.3059 25.5854 35.4961 25.3401C35.1487 26.1371 34.9127 26.9783 34.795 27.8397H34.7965ZM43.152 12.7921C43.2038 13.1949 43.2292 13.6007 43.2282 14.0069C43.2282 14.2374 43.2184 14.4999 43.1985 14.81V14.8546C43.1985 19.5354 42.02 22.5944 41.159 24.8284C40.6985 26.0229 40.3348 26.9667 40.2668 27.8397C40.1551 29.2487 40.0422 30.3456 39.9723 30.9757H38.0582C38.0332 28.78 37.4747 26.1534 36.9821 24.2495C36.9409 24.0923 36.8451 23.9549 36.712 23.8619C36.5788 23.7689 36.4169 23.7263 36.2551 23.7417C36.2211 23.6245 36.1836 23.4936 36.1434 23.3475C36.1203 23.2602 36.0801 23.1783 36.0251 23.1066C35.9701 23.0349 35.9015 22.9748 35.8231 22.9298C35.7448 22.8848 35.6583 22.8558 35.5687 22.8444C35.479 22.8331 35.3881 22.8396 35.301 22.8636C35.2139 22.8876 35.1324 22.9286 35.0612 22.9843C34.9901 23.04 34.9307 23.1092 34.8865 23.188C34.8423 23.2668 34.8141 23.3536 34.8036 23.4433C34.7931 23.533 34.8006 23.624 34.8254 23.7108C34.8618 23.8421 34.895 23.9589 34.9262 24.0678C33.4614 24.327 31.9798 24.4809 30.493 24.5284C29.217 24.5938 27.9149 24.5982 26.5868 24.5417C26.6915 24.1776 26.8211 23.7112 26.9653 23.1538C26.9878 23.0669 26.9929 22.9764 26.9804 22.8874C26.968 22.7985 26.9381 22.7129 26.8925 22.6356C26.847 22.5582 26.7866 22.4906 26.7149 22.4365C26.6432 22.3825 26.5616 22.3431 26.4747 22.3206C26.3877 22.2981 26.2972 22.2929 26.2083 22.3054C26.1194 22.3179 26.0338 22.3478 25.9564 22.3933C25.8791 22.4389 25.8114 22.4992 25.7574 22.5709C25.7033 22.6426 25.6639 22.7243 25.6415 22.8112C25.4579 23.521 25.2985 24.0815 25.1868 24.46C23.3919 24.3271 21.6055 24.0979 19.8352 23.7733C19.678 23.7448 19.5159 23.7721 19.3768 23.8506C19.2376 23.9291 19.1304 24.0537 19.0735 24.203L18.8438 24.8018C18.3774 26.0096 18.009 26.9639 17.9415 27.8413C17.829 29.2503 17.7161 30.3471 17.6465 30.9772H15.7325C15.7028 28.1647 14.8067 24.6737 14.2442 22.7503C14.2176 22.6616 14.1732 22.5793 14.1137 22.5085C14.0542 22.4376 13.9808 22.3796 13.8981 22.3382C13.9037 22.1887 13.86 22.0416 13.7738 21.9194C13.6875 21.7973 13.5635 21.7068 13.4208 21.6621C13.2781 21.6174 13.1246 21.6208 12.9841 21.6719C12.8435 21.723 12.7237 21.8189 12.643 21.9448C12.625 21.9721 12.6114 21.9928 12.5954 22.0178C10.8781 21.8664 9.19206 21.4657 7.59028 20.8284C5.96735 20.1711 4.251 19.7735 2.50434 19.6503C2.1443 18.604 2.13156 17.4695 2.46801 16.4155C3.61879 15.5647 4.51176 14.3612 5.45434 13.0909C6.50091 11.5768 7.732 10.199 9.11918 8.98932C9.10942 9.09206 9.10395 9.16198 9.102 9.18464C9.08876 9.36533 9.14775 9.54389 9.26603 9.68113C9.3843 9.81837 9.55219 9.90308 9.73286 9.91667C9.75004 9.91667 9.76723 9.91862 9.78442 9.91862C9.95681 9.9185 10.1228 9.85321 10.2491 9.73585C10.3753 9.61849 10.4526 9.45773 10.4653 9.28581C10.5825 7.72057 11.2875 3.6319 13.1426 2.0487C13.8649 3.16862 15.3805 5.83034 15.1989 8.20768C15.192 8.2972 15.2028 8.38719 15.2307 8.47253C15.2586 8.55786 15.3031 8.63686 15.3615 8.70502C15.4199 8.77318 15.4912 8.82916 15.5713 8.86976C15.6514 8.91037 15.7387 8.9348 15.8282 8.94167C16.0085 8.95349 16.1863 8.89426 16.3234 8.77664C16.4606 8.65902 16.5463 8.49238 16.5622 8.31237C16.6142 7.44454 16.526 6.57398 16.3008 5.73425C16.8477 5.62253 17.409 5.52487 17.9926 5.44518C18.009 5.73425 18.0188 6.02682 18.0188 6.32253C18.0188 6.54401 18.0145 6.76628 18.0055 6.98659C17.9984 7.1677 18.0635 7.34422 18.1865 7.47738C18.3095 7.61053 18.4803 7.68943 18.6614 7.69675H18.6891C18.8656 7.69668 19.0352 7.62832 19.1624 7.50599C19.2896 7.38366 19.3646 7.21685 19.3715 7.0405C19.3814 6.80013 19.3862 6.56029 19.386 6.32097C19.386 5.97253 19.3723 5.62878 19.3516 5.28854C19.786 5.24948 20.2287 5.21901 20.6797 5.19714C23.1473 5.07995 25.3415 5.04323 27.3071 5.07995C27.3735 5.63385 27.4301 6.1987 27.4668 6.77761C27.4779 6.94954 27.5534 7.11098 27.6783 7.22962C27.8033 7.34826 27.9684 7.41534 28.1407 7.41745H28.1844C28.2743 7.41193 28.3621 7.38873 28.443 7.34918C28.5239 7.30963 28.5961 7.25451 28.6557 7.18697C28.7152 7.11943 28.7608 7.04081 28.7898 6.95562C28.8189 6.87042 28.8309 6.78033 28.825 6.6905C28.7907 6.15651 28.7403 5.63581 28.6821 5.11901C31.0609 5.17432 33.4293 5.45421 35.7555 5.95495C35.4786 6.33027 35.2298 6.72548 35.011 7.13737C34.9262 7.29759 34.9086 7.48492 34.9619 7.65817C35.0152 7.83141 35.1352 7.97638 35.2954 8.0612C35.3746 8.10329 35.4615 8.12934 35.5508 8.13784C35.6402 8.14635 35.7304 8.13715 35.8162 8.11078C35.902 8.0844 35.9817 8.04136 36.0509 7.98412C36.12 7.92689 36.1772 7.85658 36.2192 7.77721C36.4889 7.26685 36.8128 6.787 37.1852 6.34596C41.3438 7.67018 42.7649 9.94206 43.1504 12.7921H43.152Z" fill="#252B41"/>
<path d="M17.8045 12.303C17.8915 12.3253 17.982 12.3303 18.0709 12.3176C18.1598 12.3049 18.2453 12.2748 18.3226 12.229C18.3998 12.1832 18.4673 12.1227 18.5211 12.0508C18.5749 11.9789 18.614 11.897 18.6361 11.81C18.8408 11.0085 19.0053 10.2151 19.1256 9.45182C19.15 9.27435 19.1038 9.09438 18.9969 8.95061C18.89 8.80684 18.731 8.71074 18.5541 8.68296C18.3771 8.65518 18.1963 8.69794 18.0505 8.80204C17.9047 8.90615 17.8056 9.0633 17.7744 9.23971C17.6611 9.96041 17.5057 10.7116 17.3111 11.4717C17.2665 11.6474 17.2933 11.8336 17.3858 11.9894C17.4783 12.1453 17.6289 12.2581 17.8045 12.303Z" fill="#252B41"/>
<path d="M15.8023 17.6042C15.6394 17.5251 15.4517 17.5138 15.2804 17.5727C15.1091 17.6317 14.9681 17.756 14.8883 17.9186C14.5519 18.6081 14.1926 19.2967 13.8191 19.9655C13.7384 20.1232 13.7222 20.3062 13.7737 20.4757C13.8253 20.6452 13.9406 20.7881 14.0955 20.8742C14.2504 20.9603 14.4326 20.983 14.6038 20.9373C14.775 20.8917 14.9218 20.7813 15.0133 20.6296C15.3984 19.9389 15.7699 19.228 16.1172 18.5163C16.196 18.3535 16.2072 18.1661 16.1482 17.9952C16.0892 17.8242 15.9648 17.6836 15.8023 17.6042Z" fill="#252B41"/>
<path d="M28.1158 12.1026H28.1529C28.3277 12.1025 28.4958 12.0354 28.6227 11.9151C28.7495 11.7949 28.8255 11.6306 28.835 11.4561C28.8779 10.6538 28.8998 9.85808 28.8998 9.09206V9.07565C28.8997 8.98629 28.8818 8.89784 28.8473 8.81541C28.8128 8.73298 28.7623 8.6582 28.6988 8.59537C28.6352 8.53255 28.5599 8.48293 28.4771 8.44938C28.3942 8.41582 28.3056 8.399 28.2162 8.39987C28.034 8.40183 27.86 8.47566 27.732 8.60529C27.604 8.73492 27.5323 8.90987 27.5326 9.09206C27.5326 9.83425 27.5115 10.6046 27.4697 11.3831C27.4649 11.4727 27.4778 11.5625 27.5076 11.6472C27.5375 11.7319 27.5837 11.8099 27.6437 11.8767C27.7037 11.9435 27.7763 11.9979 27.8573 12.0366C27.9383 12.0754 28.0262 12.0978 28.1158 12.1026Z" fill="#252B41"/>
<path d="M27.4299 17.7276C27.3416 17.7114 27.251 17.7127 27.1632 17.7316C27.0754 17.7504 26.9922 17.7864 26.9184 17.8375C26.8445 17.8885 26.7815 17.9536 26.7329 18.0291C26.6842 18.1046 26.651 18.1889 26.635 18.2772C26.4979 19.0296 26.3436 19.7952 26.1772 20.553C26.1578 20.6407 26.156 20.7313 26.1717 20.8197C26.1874 20.9081 26.2204 20.9925 26.2687 21.0681C26.3171 21.1438 26.3799 21.2091 26.4535 21.2605C26.5271 21.3119 26.6102 21.3482 26.6979 21.3674C26.7462 21.3783 26.7956 21.3837 26.8451 21.3835C27.0008 21.3834 27.1519 21.3301 27.2732 21.2325C27.3945 21.1349 27.4789 20.9988 27.5123 20.8467C27.6822 20.0729 27.8397 19.2909 27.9811 18.5229C27.9971 18.4345 27.9956 18.3438 27.9766 18.256C27.9576 18.1681 27.9215 18.0849 27.8703 18.0111C27.8191 17.9372 27.7539 17.8741 27.6783 17.8255C27.6027 17.7769 27.5183 17.7436 27.4299 17.7276Z" fill="#252B41"/>
<path d="M35.186 18.8389C35.1593 18.6596 35.0625 18.4982 34.9168 18.3903C34.7711 18.2823 34.5885 18.2367 34.4092 18.2633C34.2299 18.29 34.0685 18.3868 33.9605 18.5325C33.8526 18.6782 33.8069 18.8608 33.8336 19.0401C33.9489 19.8124 34.0918 20.6026 34.2586 21.3889C34.2962 21.5663 34.4027 21.7215 34.5548 21.8203C34.7068 21.9191 34.8918 21.9535 35.0692 21.9159C35.2465 21.8783 35.4017 21.7718 35.5005 21.6197C35.5993 21.4677 35.6337 21.2827 35.5961 21.1053C35.4348 20.3467 35.2969 19.5842 35.186 18.8389Z" fill="#252B41"/>
<path d="M34.2957 17.2925C34.4765 17.2782 34.6442 17.1927 34.7619 17.0549C34.8797 16.917 34.938 16.7381 34.9238 16.5573C34.8676 15.8417 34.8395 15.1417 34.8395 14.4764V14.2741C34.8402 14.1843 34.8233 14.0953 34.7897 14.0121C34.756 13.9289 34.7063 13.8531 34.6434 13.7891C34.5804 13.7251 34.5055 13.6742 34.4228 13.6392C34.3402 13.6041 34.2515 13.5857 34.1617 13.585H34.1559C33.9756 13.5851 33.8027 13.6564 33.6748 13.7833C33.5468 13.9102 33.4742 14.0825 33.4727 14.2628V14.4764C33.4727 15.1772 33.5023 15.9135 33.5613 16.6639C33.5747 16.8353 33.6521 16.9954 33.7783 17.1123C33.9044 17.2291 34.0699 17.2941 34.2418 17.2944C34.2594 17.2944 34.2777 17.2936 34.2957 17.2925Z" fill="#252B41"/>
<path d="M34.22 12.6093C34.2477 12.6124 34.2756 12.6139 34.3036 12.6139C34.4703 12.6138 34.6313 12.5526 34.7561 12.442C34.8809 12.3315 34.961 12.1791 34.9813 12.0136C35.069 11.2721 35.2134 10.5384 35.4133 9.81902C35.4627 9.64456 35.4407 9.45763 35.3523 9.29936C35.2638 9.14109 35.1161 9.02444 34.9416 8.97508C34.7672 8.92571 34.5803 8.94767 34.422 9.03613C34.2637 9.12459 34.1471 9.27229 34.0977 9.44676C33.8789 10.2335 33.7206 11.0358 33.6243 11.8468C33.6133 11.9359 33.62 12.0264 33.644 12.113C33.668 12.1996 33.7088 12.2806 33.7641 12.3514C33.8194 12.4222 33.8882 12.4815 33.9664 12.5257C34.0446 12.5699 34.1308 12.5983 34.22 12.6093Z" fill="#252B41"/>
<path d="M23.8262 15.2792C22.9989 15.1104 22.2063 14.9733 21.4704 14.8725C21.3807 14.8587 21.2892 14.8629 21.2011 14.8848C21.1131 14.9067 21.0303 14.9459 20.9576 15.0001C20.8849 15.0544 20.8236 15.1225 20.7775 15.2006C20.7314 15.2788 20.7013 15.3653 20.689 15.4552C20.6766 15.545 20.6823 15.6365 20.7057 15.7241C20.729 15.8118 20.7696 15.8939 20.825 15.9657C20.8804 16.0376 20.9496 16.0976 21.0285 16.1425C21.1073 16.1873 21.1943 16.216 21.2844 16.2268C21.9914 16.3241 22.7547 16.4557 23.5532 16.6174C23.7298 16.6512 23.9126 16.614 24.0619 16.5139C24.2113 16.4138 24.3152 16.2589 24.3512 16.0827C24.3872 15.9066 24.3523 15.7233 24.2541 15.5727C24.1559 15.4221 24.0023 15.3162 23.8266 15.278L23.8262 15.2792Z" fill="#252B41"/>
<path d="M19.0613 14.6592C18.5949 14.6452 18.1551 14.6557 17.7398 14.6846C17.8094 14.4921 17.8832 14.2975 17.948 14.1065C17.9821 14.0205 17.9983 13.9284 17.9957 13.8358C17.9931 13.7433 17.9717 13.6523 17.9329 13.5683C17.894 13.4843 17.8385 13.409 17.7697 13.3471C17.7009 13.2852 17.6202 13.238 17.5326 13.2082C17.4449 13.1784 17.3522 13.1668 17.2599 13.1739C17.1676 13.1811 17.0778 13.2069 16.9958 13.2499C16.9138 13.2928 16.8414 13.352 16.7829 13.4238C16.7245 13.4955 16.6813 13.5785 16.6558 13.6675C16.4152 14.3733 16.1406 15.0971 15.8398 15.8159C15.77 15.9833 15.7695 16.1715 15.8385 16.3392C15.9075 16.5069 16.0402 16.6404 16.2076 16.7102C16.375 16.7801 16.5632 16.7805 16.7309 16.7116C16.8987 16.6426 17.0321 16.5098 17.1019 16.3425C17.134 16.2643 17.1621 16.1893 17.1933 16.1124C17.799 16.0332 18.4102 16.0044 19.0207 16.0264C19.1108 16.0302 19.2007 16.0159 19.2851 15.9843C19.3696 15.9528 19.4468 15.9047 19.5124 15.8428C19.5779 15.7809 19.6304 15.7065 19.6667 15.624C19.703 15.5415 19.7224 15.4525 19.7238 15.3624C19.7291 15.1813 19.6623 15.0056 19.538 14.8737C19.4138 14.7419 19.2424 14.6648 19.0613 14.6592Z" fill="#252B41"/>
<path d="M28.4325 16.4268L28.2958 16.3878C28.3287 16.323 28.3511 16.2533 28.3622 16.1815C28.4759 15.3878 28.5732 14.5952 28.6505 13.8257C28.6664 13.6465 28.6111 13.4683 28.4965 13.3296C28.3819 13.1909 28.2173 13.103 28.0384 13.085C27.8594 13.0669 27.6805 13.12 27.5405 13.233C27.4005 13.3459 27.3106 13.5094 27.2903 13.6882C27.2146 14.4389 27.1196 15.2116 27.0087 15.9874C27.0064 16.0026 27.0087 16.0174 27.0087 16.0327C26.7181 15.9546 26.4274 15.8764 26.1462 15.8077C25.9703 15.7635 25.7841 15.791 25.6285 15.8841C25.4729 15.9772 25.3607 16.1283 25.3165 16.3042C25.2723 16.48 25.2998 16.6662 25.3929 16.8218C25.486 16.9774 25.6371 17.0897 25.813 17.1339C26.5314 17.3139 27.286 17.5182 28.056 17.7397C28.1425 17.7656 28.2334 17.7741 28.3232 17.7647C28.4131 17.7552 28.5002 17.7281 28.5795 17.6848C28.6588 17.6415 28.7287 17.5829 28.7853 17.5124C28.8418 17.4419 28.8838 17.3609 28.9088 17.2741C28.9338 17.1872 28.9414 17.0963 28.931 17.0066C28.9207 16.9168 28.8926 16.83 28.8485 16.7511C28.8044 16.6723 28.7451 16.6029 28.6741 16.5471C28.603 16.4913 28.5216 16.4502 28.4345 16.426L28.4325 16.4268Z" fill="#252B41"/>
<path d="M32.9403 17.8659C32.2012 17.6073 31.4458 17.3553 30.6965 17.1159C30.611 17.0885 30.521 17.0783 30.4315 17.0858C30.342 17.0932 30.2549 17.1183 30.1751 17.1594C30.0953 17.2005 30.0244 17.257 29.9664 17.3255C29.9084 17.3941 29.8645 17.4733 29.8372 17.5589C29.8098 17.6444 29.7996 17.7344 29.8071 17.8239C29.8145 17.9134 29.8395 18.0005 29.8807 18.0803C29.9218 18.1601 29.9782 18.231 30.0468 18.289C30.1153 18.347 30.1946 18.3909 30.2801 18.4182C31.0184 18.6526 31.7618 18.9026 32.4899 19.1565C32.5757 19.1914 32.6677 19.2085 32.7604 19.2067C32.853 19.2049 32.9443 19.1844 33.0287 19.1462C33.1132 19.1081 33.189 19.0532 33.2515 18.9849C33.3141 18.9165 33.3621 18.8362 33.3927 18.7487C33.4232 18.6613 33.4357 18.5685 33.4293 18.4761C33.4229 18.3836 33.3978 18.2935 33.3555 18.2111C33.3132 18.1286 33.2546 18.0557 33.1832 17.9966C33.1118 17.9375 33.0292 17.8936 32.9403 17.8675V17.8659Z" fill="#252B41"/>
<path d="M40.7192 10.5846C40.6377 10.6224 40.5645 10.6759 40.5037 10.7419C40.443 10.808 40.3958 10.8854 40.3649 10.9697C40.3341 11.054 40.3201 11.1436 40.3238 11.2332C40.3276 11.3229 40.3489 11.411 40.3867 11.4925C40.6151 12.0064 40.7646 12.5519 40.8301 13.1104C40.8545 13.2901 40.9493 13.4528 41.0936 13.5626C41.2379 13.6724 41.4199 13.7204 41.5996 13.696C41.7793 13.6716 41.942 13.5768 42.0518 13.4325C42.1616 13.2882 42.2096 13.1061 42.1852 12.9264C42.1016 12.2324 41.9134 11.5551 41.627 10.9175C41.5506 10.7531 41.4121 10.6257 41.2419 10.5633C41.0717 10.5009 40.8837 10.5086 40.7192 10.5846Z" fill="#252B41"/>
</svg>
