<svg width="46" height="45" viewBox="0 0 46 45" fill="none" xmlns="http://www.w3.org/2000/svg">
<g clip-path="url(#clip0)">
<path d="M12.0107 14.2354C12.0107 14.2354 15.2107 12.7354 21.2107 12.7354C27.2107 12.7354 31.7107 15.3354 32.8107 19.0354C33.9107 22.7354 33.9107 24.5354 33.4107 26.8354C32.9107 29.1354 32.0107 33.1353 32.0107 33.1353H29.5107C29.5107 33.1353 29.5107 30.1354 28.7107 29.0354C27.8107 27.9354 26.9107 24.9354 26.9107 22.0354" stroke="white" stroke-width="1.2" stroke-miterlimit="10" stroke-linecap="round" stroke-linejoin="round"/>
<path d="M10.8105 28.3354C10.8105 28.3354 21.0105 31.6354 28.2105 28.2354" stroke="white" stroke-width="1.2" stroke-miterlimit="10" stroke-linecap="round" stroke-linejoin="round"/>
<path d="M7.61074 16.1354C7.61074 16.1354 4.71074 18.4354 3.51074 21.5354H1.51074L2.11074 25.9354C2.11074 25.9354 6.21074 28.3354 8.31074 28.3354V32.6354H10.2107C10.2107 32.6354 11.7107 31.7354 12.2107 28.7354" stroke="white" stroke-width="1.2" stroke-miterlimit="10" stroke-linecap="round" stroke-linejoin="round"/>
<path d="M8.21055 17.9354L5.81055 11.6354C5.81055 11.6354 9.01055 10.9354 12.4105 15.2354" stroke="white" stroke-width="1.2" stroke-miterlimit="10" stroke-linecap="round" stroke-linejoin="round"/>
<path d="M30.3105 15.4354C30.3105 15.4354 32.4105 13.6354 35.2105 15.4354" stroke="white" stroke-width="1.2" stroke-miterlimit="10" stroke-linecap="round" stroke-linejoin="round"/>
<path d="M19.7109 12.7354C21.2109 8.93535 25.0109 6.23535 29.3109 6.23535C35.0109 6.23535 39.7109 10.8354 39.7109 16.6354C39.7109 20.8354 37.1109 24.5354 33.5109 26.1354" stroke="white" stroke-width="1.2" stroke-miterlimit="10" stroke-linecap="round" stroke-linejoin="round"/>
<path d="M14.0107 13.6354C15.2107 6.83538 20.8107 1.53538 27.7107 0.735376C28.3107 0.635376 29.0107 0.635376 29.6107 0.635376H29.4107C30.0107 0.635376 30.6107 0.635376 31.3107 0.735376C38.5107 1.53538 44.3107 7.33538 45.2107 14.5354C45.6107 18.4354 44.7107 22.0354 42.8107 25.0354L32.5107 42.0354C32.4107 42.2354 32.2107 42.4354 32.0107 42.6354C30.6107 43.9354 28.4107 43.9354 27.0107 42.7354C26.8107 42.5354 26.6107 42.3354 26.4107 42.1354L19.0107 29.9354" stroke="white" stroke-width="1.2" stroke-miterlimit="10" stroke-linecap="round" stroke-linejoin="round"/>
</g>
<defs>
<clipPath id="clip0">
<rect width="45.1" height="44.1" fill="white" transform="translate(0.810547 0.0354004)"/>
</clipPath>
</defs>
</svg>
