<svg width="46" height="31" viewBox="0 0 46 31" fill="none" xmlns="http://www.w3.org/2000/svg">
<g clip-path="url(#clip0)">
<path d="M30.1023 19.6132H0.902344V2.41323C0.902344 1.51323 1.60234 0.813232 2.50234 0.813232H28.5023C29.4023 0.813232 30.1023 1.51323 30.1023 2.41323V19.6132Z" stroke="white" stroke-width="1.2" stroke-miterlimit="10" stroke-linecap="round" stroke-linejoin="round"/>
<path d="M30.1025 7.61328H37.6025C38.1025 7.61328 38.6025 7.81328 38.9025 8.21328L44.0025 13.9133C44.3025 14.2133 44.5025 14.6133 44.5025 15.1133V24.9133C44.5025 25.8133 43.8025 26.5133 42.9025 26.5133H40.1025" stroke="white" stroke-width="1.2" stroke-miterlimit="10" stroke-linecap="round" stroke-linejoin="round"/>
<path d="M12.6031 30.3133C14.757 30.3133 16.5031 28.5672 16.5031 26.4133C16.5031 24.2594 14.757 22.5133 12.6031 22.5133C10.4492 22.5133 8.70312 24.2594 8.70312 26.4133C8.70312 28.5672 10.4492 30.3133 12.6031 30.3133Z" stroke="white" stroke-width="1.2" stroke-miterlimit="10" stroke-linecap="round" stroke-linejoin="round"/>
<path d="M36.2027 30.3133C38.3566 30.3133 40.1027 28.5672 40.1027 26.4133C40.1027 24.2594 38.3566 22.5133 36.2027 22.5133C34.0488 22.5133 32.3027 24.2594 32.3027 26.4133C32.3027 28.5672 34.0488 30.3133 36.2027 30.3133Z" stroke="white" stroke-width="1.2" stroke-miterlimit="10" stroke-linecap="round" stroke-linejoin="round"/>
<path d="M0.902344 19.6133V25.2133C0.902344 25.9133 1.60234 26.5133 2.40234 26.5133H8.70234" stroke="white" stroke-width="1.2" stroke-miterlimit="10" stroke-linecap="round" stroke-linejoin="round"/>
<path d="M30.1029 19.6133V26.4133H16.5029" stroke="white" stroke-width="1.2" stroke-miterlimit="10" stroke-linecap="round" stroke-linejoin="round"/>
<path d="M30.1025 26.4132H32.3025" stroke="white" stroke-width="1.2" stroke-miterlimit="10" stroke-linecap="round" stroke-linejoin="round"/>
<path d="M34.4023 7.61328V15.6133C34.4023 16.6133 35.2023 17.5133 36.3023 17.5133H44.5023" stroke="white" stroke-width="1.2" stroke-miterlimit="10" stroke-linecap="round" stroke-linejoin="round"/>
</g>
<defs>
<clipPath id="clip0">
<rect width="44.7" height="30.7" fill="white" transform="translate(0.302734 0.213257)"/>
</clipPath>
</defs>
</svg>
