<svg width="26" height="26" viewBox="0 0 26 26" fill="none" xmlns="http://www.w3.org/2000/svg">
<g clip-path="url(#clip0)">
<path d="M23.2028 0.298218H1.80888C0.813049 0.298218 0.00585938 1.10541 0.00585938 2.10123V23.4952C0.00585938 24.491 0.813049 25.2982 1.80888 25.2982H23.2028C24.1987 25.2982 25.0059 24.491 25.0059 23.4952V2.10123C25.0059 1.10541 24.1987 0.298218 23.2028 0.298218V0.298218ZM8.8735 19.1947H5.82919V10.0358H8.8735V19.1947ZM7.35144 8.78516H7.3316C6.31003 8.78516 5.64932 8.08192 5.64932 7.20301C5.64932 6.30427 6.33025 5.62048 7.37166 5.62048C8.41307 5.62048 9.05394 6.30427 9.07378 7.20301C9.07378 8.08192 8.41307 8.78516 7.35144 8.78516ZM19.8507 19.1947H16.8067V14.2949C16.8067 13.0635 16.366 12.2237 15.2645 12.2237C14.4235 12.2237 13.9226 12.7902 13.7025 13.337C13.622 13.5327 13.6024 13.8063 13.6024 14.08V19.1947H10.5583C10.5583 19.1947 10.5981 10.8951 10.5583 10.0358H13.6024V11.3326C14.0069 10.7085 14.7308 9.82085 16.3459 9.82085C18.3488 9.82085 19.8507 11.1299 19.8507 13.943V19.1947Z" fill="#DCDFE6"/>
</g>
<defs>
<clipPath id="clip0">
<rect width="25" height="25" fill="white" transform="translate(0.00585938 0.298218)"/>
</clipPath>
</defs>
</svg>
