<svg width="112" height="49" viewBox="0 0 112 49" fill="none" xmlns="http://www.w3.org/2000/svg">
<g clip-path="url(#clip0)">
<path d="M101.733 28.7149C102.779 28.8895 104.217 28.5111 104.144 27.1867C104.071 25.8622 102.924 24.6979 102.067 23.6791C101.21 22.6603 99.119 20.841 95.4593 18.6433C91.7995 16.4456 86.7746 14.67 82.0983 13.855C77.4219 13.0399 69.6377 13.4038 66.6896 13.6658C63.7414 13.9277 57.5547 14.0733 52.5879 13.855C47.6211 13.6367 44.0194 12.6615 40.0257 11.4535C36.0174 10.2455 32.8659 8.45533 32.1252 7.96049C31.3701 7.46564 28.7559 5.92289 28.6398 5.98111C28.5236 6.03932 28.6543 7.81494 28.6398 8.16425C28.6252 8.51355 28.0153 9.37225 27.2165 9.43047C26.4178 9.48869 26.0983 9.31404 26.1999 9.05206C26.3016 8.79008 27.5651 8.5281 28.1315 7.8295C28.6979 7.13089 28.3784 5.04963 28.1896 4.43835C28.0008 3.82707 27.4779 2.88104 26.4178 2.13878C25.3576 1.39651 24.5443 1.49839 24.5153 1.7167C24.4862 1.93502 25.1107 2.37164 24.9945 2.82283C24.8784 3.27401 23.9634 2.93926 23.4551 2.5463C23.1066 2.28432 22.8161 1.92046 22.5257 1.60027C22.2788 1.32374 22.0609 0.988989 21.7559 0.75612C21.5091 0.55236 21.2041 0.450481 20.8991 0.392263C20.6086 0.334046 20.3037 0.319492 19.9987 0.319492C19.1273 0.290383 18.2705 0.304938 17.5298 0.843446C17.2248 1.06176 16.9489 1.30918 16.6584 1.55661C16.0049 2.12422 15.3804 2.70639 14.7559 3.30312C14.4364 3.60876 14.1169 3.9144 13.812 4.23459C13.812 4.23459 10.1522 3.89984 8.94681 4.16182C7.74142 4.4238 6.79744 6.12665 7.27669 7.61118C7.75594 9.11028 8.43852 9.69245 8.54018 11.0314C8.64184 12.385 7.94474 13.593 7.00076 14.8301C6.05677 16.0672 3.35553 18.9199 2.29536 19.4875C1.2352 20.0551 0.581669 20.5499 0.233121 21.0593C-0.115427 21.5687 0.0443243 23.5045 0.233121 24.5669C0.421918 25.6294 2.16466 26.8956 3.13769 27.5505C4.11071 28.2055 5.75179 28.9914 7.33478 28.9623C8.91777 28.9332 10.9074 27.7834 12.3742 27.2595C13.841 26.7355 15.8597 26.7646 16.9198 26.8374C17.98 26.9102 20.7684 27.274 21.9157 27.143C23.063 27.012 24.2684 25.935 24.2684 25.935C24.2684 25.935 22.5692 26.5172 20.8701 26.5026C19.1564 26.4881 16.397 26.0515 15.4095 25.8768C14.4219 25.7022 12.4323 25.9059 12.1999 25.804C11.9676 25.7022 12.1273 24.8143 11.924 24.2322C11.7207 23.65 10.9074 22.7331 10.3991 21.9763C9.8908 21.2194 9.94889 20.7683 10.1522 20.2152C10.341 19.6621 12.8099 15.5724 13.2891 15.2522C13.7684 14.932 15.8887 15.3395 16.6875 15.4123C17.4862 15.485 18.1688 15.5869 19.1273 14.7282C20.0858 13.8695 21.6979 11.7592 22.4821 10.8859C23.2663 10.0126 24.2248 9.02295 24.6315 9.06661C25.0381 9.09572 25.3721 9.96898 26.6066 9.98353C27.841 10.0126 28.6252 9.0084 29.0609 8.86285C29.4966 8.71731 29.7145 8.8483 33.3742 11.1188C37.034 13.3892 41.3037 14.7428 46.3576 15.7761C51.4116 16.8095 60.59 16.6931 63.1896 16.5184C65.7891 16.3438 74.1543 16.2855 77.1896 16.5038C80.2248 16.7222 85.8597 17.8865 90.8846 19.895C95.9095 21.9035 99.2352 26.459 99.5111 26.7792C99.7871 27.0994 100.687 28.5402 101.733 28.7149ZM8.5547 6.59239C8.67088 6.35952 9.17918 6.35952 9.22275 6.6506C9.26632 6.94169 9.25179 7.33465 9.26632 7.56752C9.28084 7.88772 9.5713 8.35345 9.55677 8.45533C9.54225 8.55721 8.93229 8.44078 8.7435 8.12058C8.5547 7.80039 8.43852 6.82525 8.5547 6.59239ZM2.73105 25.4693C2.61486 25.673 2.17918 25.3092 2.1937 24.8871C2.1937 24.465 2.5132 24.174 2.67296 24.174C2.86175 24.174 2.84723 25.2655 2.73105 25.4693ZM6.12939 28.0163C5.72275 28.0163 4.70615 28.1036 4.18333 27.8707C3.66051 27.6379 3.66051 27.3031 3.68955 27.274C3.7186 27.2449 5.27254 27.2449 5.80989 27.2449C6.7103 27.2304 6.94267 27.2449 6.97171 27.5797C7.00076 27.9144 6.53603 28.0163 6.12939 28.0163ZM19.3597 12.2103C19.1128 12.4286 18.6916 12.647 18.3576 12.6179C18.0236 12.5887 17.5008 12.385 17.2829 12.4432C17.0651 12.5014 16.6875 12.7488 16.6875 12.7488C16.6875 12.7488 16.9634 12.4141 17.007 12.1812C17.0506 11.9484 17.0215 11.3225 17.1522 11.0023C17.2829 10.6821 17.8348 10.1582 18.4302 10.1291C19.0257 10.1 19.5194 10.2164 19.5194 10.2164C19.5194 10.2164 19.4178 10.9296 19.1418 10.9878C18.8659 11.046 18.0236 10.915 17.7041 11.1479C17.3846 11.3807 17.4281 11.8901 17.5443 12.0502C17.6605 12.2103 18.7497 12.1376 18.924 12.0939C19.0983 12.0502 19.5194 11.6864 19.5194 11.6864C19.5194 11.6864 19.6066 11.992 19.3597 12.2103ZM18.7933 11.3225C18.8078 11.439 18.6481 11.7592 18.4302 11.7592C18.2124 11.7592 18.0091 11.3953 18.0817 11.2934C18.1543 11.1915 18.7642 11.2061 18.7933 11.3225ZM17.9364 9.61967C17.5734 9.63423 17.1377 10.1145 17.1377 10.1145C17.1377 9.88165 17.1813 9.63423 17.1813 9.63423C16.8472 9.79433 16.7746 10.4784 16.6294 10.5511C16.4842 10.6239 15.8742 10.5948 15.9178 10.1436C15.9759 9.67789 16.4261 9.09572 16.7456 8.79008C17.0651 8.499 17.4717 8.46989 18.1252 8.45533C18.7788 8.44078 19.2145 8.36801 19.2145 8.36801C19.1418 8.55721 18.5754 8.8483 18.1543 8.87741C17.7622 8.90652 17.5734 9.15394 17.5734 9.15394C17.5734 9.15394 18.3431 9.0084 18.8659 9.16849C19.3887 9.32859 19.8389 10.0709 19.8389 10.0709C19.2725 9.707 18.2995 9.60512 17.9364 9.61967ZM21.451 4.32192C21.0008 4.94775 19.3742 6.54872 18.3431 6.98535C17.312 7.42198 16.2663 8.26613 15.5983 9.29948C14.9302 10.3328 14.7995 11.6427 14.4364 12.3704C14.0734 13.0981 13.4779 13.4038 13.1875 13.4766C12.897 13.5493 12.2725 14.277 11.9821 14.5827C11.6916 14.8883 9.83271 17.6827 9.3825 18.3522C8.93229 19.0217 8.20615 20.3607 8.39495 21.1758C8.58374 21.9908 10.007 23.2716 10.4427 23.7664C10.8784 24.2613 11.0091 25.3092 10.5879 26.1097C10.1667 26.9102 8.83063 27.6088 8.06092 27.6379C7.29121 27.667 7.14599 27.1139 6.66673 26.8519C6.18748 26.59 5.43229 26.5172 5.30159 26.4008C5.17088 26.2698 5.19993 25.251 5.19993 25.251C5.19993 25.251 4.45926 24.9308 4.12524 24.465C3.92192 24.174 3.93644 23.5918 3.98001 23.1988C3.99453 23.0969 3.86383 23.0533 3.80574 23.126C3.66051 23.3298 3.45719 23.5481 3.28291 23.6209C2.93437 23.7664 2.45511 23.4899 2.25179 23.0533C2.04847 22.6166 1.84515 21.8889 1.81611 21.7434C1.80159 21.6561 1.58374 21.6706 1.42399 21.6997C1.35138 21.7143 1.30781 21.6415 1.35138 21.5833C1.46756 21.4377 1.64183 21.234 1.85968 21.0593C2.22275 20.7828 2.23727 20.9866 2.702 20.8119C3.16673 20.6373 4.64806 18.8762 4.64806 18.8762C4.64806 18.8762 8.61279 14.0296 9.03395 13.4474C9.45511 12.8653 10.1086 12.1085 10.1667 11.6573C10.2248 11.2061 10.5298 9.3577 10.9364 8.8483C11.3431 8.3389 12.0983 7.56752 12.0983 7.56752C12.0983 7.56752 11.7642 7.49475 11.4738 7.62574C11.1833 7.75673 10.6896 8.77553 10.3555 8.499C10.0215 8.22246 10.5298 7.45109 11.0671 7.23277C11.6045 7.01446 12.4613 6.4614 13.4779 5.73368C14.4945 5.00597 15.729 3.68153 15.729 3.68153C15.729 3.68153 17.3846 1.65849 18.285 1.30918C19.1854 0.95988 20.507 1.10542 21.2912 1.65849C22.0754 2.21155 21.8867 3.69608 21.451 4.32192ZM24.7767 7.39287C24.3991 7.39287 23.8327 6.79615 23.8037 6.28675C23.7746 5.70457 23.8618 4.90409 24.1813 4.88953C24.5008 4.87498 24.5298 5.20973 24.4717 5.54448C24.4136 5.87923 24.4136 6.15576 24.4281 6.35952C24.4572 6.73793 24.7041 7.10179 24.8348 7.27644C24.8784 7.3201 24.8348 7.39287 24.7767 7.39287ZM25.1688 7.91682C25.2559 7.65485 25.8078 7.80039 26.4759 7.68396C26.897 7.61118 27.1294 7.43653 27.2311 7.3201C27.2601 7.27644 27.3327 7.30554 27.3327 7.34921C27.3472 7.52386 27.3037 7.71306 27.2746 7.78584C27.2311 7.87316 26.9115 8.29524 26.1273 8.35345C25.3431 8.41167 25.0817 8.16425 25.1688 7.91682Z" fill="#B6B6B6"/>
<path d="M12.7799 42.4392C12.7799 42.4392 14.8712 42.4101 15.5102 41.1875C15.5102 41.1875 14.7259 41.5223 13.8836 41.6387C13.0413 41.7551 11.9956 41.6096 12.0247 41.3767C12.0537 41.1293 12.6782 40.7218 12.5765 39.1936C12.4894 37.7964 12.1118 37.2287 11.7633 36.9231C11.7197 36.8794 11.7342 36.8212 11.7923 36.8067C12.4749 36.6466 15.4811 35.9625 16.5558 35.4386C17.7757 34.8564 19.1844 33.5902 19.9106 32.4986C20.6367 31.407 21.5952 30.4901 22.3068 29.9516C23.0185 29.4131 25.0662 28.5835 25.0662 28.5835C25.0226 28.5835 22.6844 28.8164 20.7529 30.33C18.8214 31.8437 17.8048 33.2845 16.9189 33.9831C16.033 34.6817 14.5807 35.3076 13.2736 35.5987C11.9666 35.8898 10.7757 36.1663 10.0786 36.2827C9.38153 36.3991 8.78609 36.4719 8.90227 37.7673C9.03298 39.0626 10.3255 40.6927 10.4126 40.9983C10.4998 41.2748 10.9645 42.1626 11.7633 42.0171C11.8359 42.0026 11.9085 42.0608 11.9085 42.1481C11.894 42.4246 12.0102 42.9922 13.0413 43.6617C14.479 44.6078 16.4106 44.7824 17.5869 44.5787C18.7633 44.3749 21.45 43.2251 21.45 43.2251C21.45 43.2251 18.6761 43.72 16.9915 43.7782C15.3068 43.8364 13.3608 43.3415 12.7799 42.4392ZM11.4728 40.8964C11.1388 41.0856 10.8483 40.5471 10.7612 40.2415C10.6741 39.9358 10.006 38.9025 9.78816 38.4076C9.57032 37.9128 9.42509 37.4907 9.61389 37.1705C9.80269 36.8503 10.3691 37.1123 10.8919 37.5926C11.4002 38.0729 11.6326 38.626 11.7197 39.0189C11.8359 39.5865 11.8068 40.7218 11.4728 40.8964Z" fill="#B6B6B6"/>
<path d="M30.0043 24.0573C28.0146 22.5436 26.025 22.0488 24.5437 21.6849C23.0624 21.3356 22.7574 22.1652 21.9586 23.3732C21.1599 24.5812 19.998 24.8287 19.998 24.8287C20.3611 24.916 21.1599 24.8141 21.7553 24.4794C22.3507 24.1446 23.0188 23.3005 23.9773 22.9803C24.9358 22.6601 26.5914 23.5188 27.7387 24.4648C29.0893 25.5709 30.2221 27.4775 30.3964 28.5254C30.5707 29.5879 30.7449 30.1701 31.5001 30.3884C32.2553 30.6067 33.4897 30.4612 33.0976 28.7146C32.7055 26.9681 31.9939 25.5855 30.0043 24.0573Z" fill="#B6B6B6"/>
<path d="M23.8905 31.9311C23.0046 31.8729 22.3511 32.717 22.3511 32.717C22.1768 32.9499 21.959 33.4302 22.0897 33.5903C22.2204 33.7504 22.4963 33.5757 22.8158 33.4447C23.1353 33.3138 23.6291 33.2701 24.1374 33.372C24.7474 33.503 25.6042 34.0269 25.7494 33.925C25.8947 33.8232 25.793 33.2701 25.5316 32.8917C25.2702 32.5133 24.7764 31.9893 23.8905 31.9311Z" fill="#B6B6B6"/>
<path d="M11.1105 38.0437C11.0233 37.84 10.5586 37.7818 10.3843 38.0437C10.21 38.3057 10.4569 38.7715 10.6603 39.0043C10.9652 39.3245 11.4735 39.2081 11.4735 39.2081C11.4735 39.2081 11.2993 38.9752 11.2702 38.7278C11.2702 38.7278 11.1976 38.2475 11.1105 38.0437Z" fill="#B6B6B6"/>
<path d="M6.98543 22.2378C6.49165 22.0777 6.36095 22.3106 6.04144 22.6599C5.72194 23.0238 5.28626 23.0383 5.28626 23.0383C5.02485 23.0529 4.71987 23.1256 4.54559 23.5041C4.37132 23.8825 5.01033 24.6393 5.72194 24.7994C6.43356 24.9595 7.17422 24.421 7.3485 23.7951C7.52277 23.1693 7.46468 22.3979 6.98543 22.2378Z" fill="#B6B6B6"/>
<path d="M79.8175 21.9031C73.5 20.0547 68.9544 18.8904 61.1847 19.3998C53.415 19.9092 46.4585 21.2191 43.3942 22.4125C40.3154 23.606 35.1162 25.7891 34.9129 26.8516C34.8403 27.2591 34.8984 27.5793 35.0145 27.7976C35.2033 28.1469 35.6536 28.2634 35.9876 28.045C37.1494 27.2882 41.2884 24.8431 48.8838 23.1839C57.9606 21.19 66.6307 21.321 71.9316 22.5726C77.2324 23.8389 79.9191 25.0032 82.359 26.3568C84.7988 27.7103 88.5312 30.3155 90.971 33.4156C93.4108 36.5156 94.0644 39.3392 94.2096 40.1688C94.3548 40.9983 94.4565 43.0942 94.5 43.2979C94.5436 43.5017 95.9233 44.1421 96.4461 43.3416C96.9689 42.5411 98.0436 38.2185 94.6453 33.4156C91.2469 28.6127 86.1349 23.7515 79.8175 21.9031Z" fill="#B6B6B6"/>
<path d="M107.281 32.3532C107.281 32.3532 107.324 31.8147 106.627 31.4654C105.93 31.1161 104.565 30.7377 103.214 31.0287C101.864 31.3198 100.353 32.4551 99.1332 34.4344C99.1332 34.4344 98.5088 36.1373 98.4362 37.3162C98.3635 38.5096 99.0171 39.5139 100.063 38.3059C101.108 37.0979 101.704 34.6237 102.459 33.6194C103.214 32.6152 103.752 32.3095 104.739 32.1203C105.915 31.902 107.048 32.1349 107.281 32.3532Z" fill="#B6B6B6"/>
<path d="M110.388 31.6691C109.095 31.4071 107.367 31.931 107.367 31.931C107.367 31.931 107.498 32.3822 107.454 32.6296C107.454 32.6296 107.048 32.4113 106.83 32.3531C106.641 32.2949 106.321 32.2221 106.321 32.2221C106.321 32.2221 104.709 33.2264 104.346 34.1578C103.983 35.0893 103.925 36.5156 104.869 36.7485C105.813 36.9814 106.481 36.3701 106.684 35.7442C106.888 35.1184 107.701 33.2991 108.442 32.7897C109.182 32.2803 110.911 31.9456 112 33.1681C112 33.1536 111.68 31.931 110.388 31.6691Z" fill="#B6B6B6"/>
<path d="M84.5229 35.3804H82.7656V36.6757H84.5229V35.3804Z" fill="#B6B6B6"/>
<path d="M52.4271 38.1313H51.4977C51.4251 38.1313 51.3525 38.1313 51.2944 38.1458V38.0585C51.2944 37.3308 51.8898 36.7341 52.6159 36.7341H54.3877V35.5552H51.5122C50.423 35.5552 49.5371 36.443 49.5371 37.5346V40.0961V40.1543V45.1173C49.5371 46.2962 50.4956 47.2714 51.6865 47.2714H52.4417C53.618 47.2714 54.591 46.3108 54.591 45.1173V40.2708C54.5765 39.0919 53.618 38.1313 52.4271 38.1313ZM52.7902 44.6953C52.7902 45.1028 52.4562 45.4375 52.0496 45.4375C51.6429 45.4375 51.3089 45.1028 51.3089 44.6953V40.591C51.3089 40.1834 51.6429 39.8487 52.0496 39.8487C52.4562 39.8487 52.7902 40.1834 52.7902 40.591V44.6953Z" fill="#B6B6B6"/>
<path d="M65.1199 37.2578C65.1054 37.2578 65.1054 37.2578 65.0909 37.2578C65.0764 37.2578 65.0763 37.2578 65.0618 37.2578C64.4228 37.2724 63.871 37.6362 63.5805 38.1602V37.2578H61.8232V48.3045H63.5805V46.2232C63.871 46.7472 64.4228 47.1111 65.0618 47.1256C65.0763 47.1256 65.0764 47.1256 65.0909 47.1256C65.1054 47.1256 65.1054 47.1256 65.1199 47.1256C66.0639 47.0965 66.8191 46.3251 66.8191 45.3645V39.0334C66.8191 38.0583 66.0639 37.2869 65.1199 37.2578ZM65.0618 44.695C65.0618 45.1026 64.7278 45.4373 64.3212 45.4373C63.9145 45.4373 63.5805 45.1026 63.5805 44.695V39.7757C63.5805 39.3682 63.9145 39.0334 64.3212 39.0334C64.7278 39.0334 65.0618 39.3682 65.0618 39.7757V44.695Z" fill="#B6B6B6"/>
<path d="M84.5229 37.127H82.7656V47.2858H84.5229V37.127Z" fill="#B6B6B6"/>
<path d="M86.9339 37.127H85.3945V38.7279H86.9339V47.2713H88.6912V38.7279H89.8966V37.127H88.6912H86.9339Z" fill="#B6B6B6"/>
<path d="M68.8381 37.2578H68.0684V47.1256H69.8256V39.0189H71.3069V37.2578H69.8256H68.8381Z" fill="#B6B6B6"/>
<path d="M30.3384 35.7297C30.3384 35.7297 29.1911 35.9772 28.2326 37.9711C27.7243 39.0481 27.4629 40.227 27.4629 41.4205V47.1403H29.2202V40.9402C29.2202 40.3726 29.3363 39.8049 29.5542 39.281C29.8446 38.6115 30.3094 37.7964 30.9774 37.4326V47.1403H32.7347V35.7297H30.9774H30.3384Z" fill="#B6B6B6"/>
<path d="M46.2118 37.2578H46.1392C46.1392 37.2578 45.079 37.4907 44.1496 39.2663C43.2201 37.4907 42.1599 37.2578 42.1599 37.2578H42.0873H41.5064H40.3301V47.1402H42.0873V39.4264C42.4214 39.7903 42.6683 40.2414 42.857 40.6635C43.133 41.2602 43.2637 41.9152 43.2637 42.5701V47.1402H45.0209V42.5701C45.0209 41.9152 45.1516 41.2602 45.4276 40.6635C45.6164 40.2414 45.8778 39.7903 46.1973 39.4264V47.1402H47.9546V37.2578H46.7782H46.2118Z" fill="#B6B6B6"/>
<path d="M79.2076 35.6279H79.1205C79.1205 35.6279 77.9441 35.8899 76.8985 37.9712C75.8674 35.9045 74.6765 35.6279 74.6765 35.6279H74.5894H73.9358H72.6143V47.1258H74.5748V38.1604C74.9379 38.5825 75.2284 39.1064 75.4317 39.6013C75.7367 40.2999 75.8819 41.0567 75.8819 41.8135V47.1258H77.8425V41.8135C77.8425 41.0421 77.9877 40.2853 78.2927 39.6013C78.5105 39.121 78.7865 38.5825 79.1495 38.1604V47.1258H81.1101V35.6279H79.7885H79.2076Z" fill="#B6B6B6"/>
<path d="M58.2948 37.4033H57.4961C56.3778 37.4033 55.4629 38.3202 55.4629 39.4409V45.0589C55.4629 46.2814 56.4504 47.2711 57.6704 47.2711H58.2948C59.5148 47.2711 60.5023 46.2814 60.5023 45.0589V43.1959H58.8903V44.6222C58.8903 45.0734 58.5272 45.4373 58.077 45.4373C57.6268 45.4373 57.2637 45.0734 57.2637 44.6222V43.1959V42.9194V42.6429H60.5023V39.6156C60.5023 38.393 59.5148 37.4033 58.2948 37.4033ZM58.7886 41.0419H57.1621V39.8484C57.1621 39.3973 57.5251 39.0334 57.9753 39.0334C58.4255 39.0334 58.7886 39.3973 58.7886 39.8484V41.0419Z" fill="#B6B6B6"/>
<path d="M37.1347 37.4033H36.3359C35.2177 37.4033 34.3027 38.3202 34.3027 39.4409V45.0589C34.3027 46.2814 35.2903 47.2711 36.5102 47.2711H37.1347C38.3546 47.2711 39.3421 46.2814 39.3421 45.0589V43.1959H37.7301V44.6222C37.7301 45.0734 37.367 45.4373 36.9168 45.4373C36.4666 45.4373 36.1036 45.0734 36.1036 44.6222V43.1959V42.9194V42.6429H39.3421V39.6156C39.3421 38.393 38.3546 37.4033 37.1347 37.4033ZM37.6285 41.0419H36.0019V39.8484C36.0019 39.3973 36.365 39.0334 36.8152 39.0334C37.2654 39.0334 37.6285 39.3973 37.6285 39.8484V41.0419Z" fill="#B6B6B6"/>
</g>
<defs>
<clipPath id="clip0">
<rect width="112" height="48" fill="white" transform="translate(0 0.290039)"/>
</clipPath>
</defs>
</svg>
