<svg width="51" height="51" viewBox="0 0 51 51" fill="none" xmlns="http://www.w3.org/2000/svg">
<g clip-path="url(#clip0)">
<path d="M16.5986 13.6333C16.5986 13.6333 20.9982 11.612 29.0461 11.612C37.0941 11.612 43.2105 15.1227 44.6055 20.0163C46.0005 24.9099 46.0005 27.4631 45.3566 30.4418C44.7128 33.4205 43.4251 38.8461 43.4251 38.8461H39.9913C39.9913 38.8461 40.0986 34.8035 38.9183 33.3142C37.7379 31.8248 36.4502 27.8886 36.4502 23.9525" stroke="#252B41" stroke-width="1.3" stroke-miterlimit="10" stroke-linecap="round" stroke-linejoin="round"/>
<path d="M14.9893 32.5695C14.9893 32.5695 28.7244 36.9312 38.4893 32.3567" stroke="#252B41" stroke-width="1.3" stroke-miterlimit="10" stroke-linecap="round" stroke-linejoin="round"/>
<path d="M32.4804 34.0588C32.4804 34.0588 32.0512 37.4631 31.5146 38.5269H34.4119C34.4119 38.5269 36.9873 35.761 36.3434 33.1014" stroke="#252B41" stroke-width="1.3" stroke-miterlimit="10" stroke-linecap="round" stroke-linejoin="round"/>
<path d="M18.5303 33.6333C18.5303 33.6333 20.2472 36.8248 19.9253 38.3142H22.3933C22.3933 38.3142 23.681 35.761 23.4663 34.1652" stroke="#252B41" stroke-width="1.3" stroke-miterlimit="10" stroke-linecap="round" stroke-linejoin="round"/>
<path d="M10.5896 16.1865C10.5896 16.1865 6.61927 19.2716 5.00968 23.4206H2.21973L2.97087 29.378C2.97087 29.378 8.55078 32.5695 11.3407 32.5695V38.4206H13.9161C13.9161 38.4206 15.8476 37.144 16.5987 33.2078" stroke="#252B41" stroke-width="1.3" stroke-miterlimit="10" stroke-linecap="round" stroke-linejoin="round"/>
<path d="M11.4487 18.5269L8.22949 10.1227C8.22949 10.1227 12.5217 9.2716 17.0286 14.9099" stroke="#252B41" stroke-width="1.3" stroke-miterlimit="10" stroke-linecap="round" stroke-linejoin="round"/>
<path d="M41.2793 15.2291C41.2793 15.2291 44.1766 12.7822 47.9323 15.2291" stroke="#252B41" stroke-width="1.3" stroke-miterlimit="10" stroke-linecap="round" stroke-linejoin="round"/>
</g>
<defs>
<clipPath id="clip0">
<rect width="47" height="30" fill="white" transform="translate(1.57617 9.37799)"/>
</clipPath>
</defs>
</svg>
