<svg width="43" height="41" viewBox="0 0 43 41" fill="none" xmlns="http://www.w3.org/2000/svg">
<path d="M24.9039 22.9656C23.4279 22.9656 22.2999 22.4136 21.5199 21.3096C20.7519 20.2056 20.3679 18.5976 20.3679 16.4856C20.3679 14.3616 20.7519 12.7476 21.5199 11.6436C22.2999 10.5396 23.4279 9.98759 24.9039 9.98759C26.3799 9.98759 27.5019 10.5396 28.2699 11.6436C29.0499 12.7356 29.4399 14.3436 29.4399 16.4676C29.4399 18.5916 29.0499 20.2056 28.2699 21.3096C27.5019 22.4136 26.3799 22.9656 24.9039 22.9656ZM24.9039 21.4716C25.8279 21.4716 26.5059 21.0696 26.9379 20.2656C27.3699 19.4616 27.5859 18.1956 27.5859 16.4676C27.5859 14.7396 27.3699 13.4796 26.9379 12.6876C26.5059 11.8836 25.8279 11.4816 24.9039 11.4816C23.9799 11.4816 23.3019 11.8836 22.8699 12.6876C22.4379 13.4796 22.2219 14.7396 22.2219 16.4676C22.2219 18.1836 22.4379 19.4496 22.8699 20.2656C23.3019 21.0696 23.9799 21.4716 24.9039 21.4716ZM40.1249 21.2916C40.4129 21.2916 40.6289 21.3576 40.7729 21.4896C40.9169 21.6216 40.9889 21.8076 40.9889 22.0476C40.9889 22.5636 40.7009 22.8216 40.1249 22.8216H34.1129C33.5249 22.8216 33.2309 22.5636 33.2309 22.0476C33.2309 21.8076 33.3029 21.6216 33.4469 21.4896C33.6029 21.3576 33.8249 21.2916 34.1129 21.2916H36.1829V12.3096L34.3289 13.4796C34.2089 13.5516 34.0889 13.5876 33.9689 13.5876C33.7649 13.5876 33.5849 13.4976 33.4289 13.3176C33.2849 13.1376 33.2129 12.9336 33.2129 12.7056C33.2129 12.4296 33.3329 12.2136 33.5729 12.0576L36.3449 10.2936C36.6209 10.1256 36.8849 10.0416 37.1369 10.0416C37.4009 10.0416 37.6169 10.1256 37.7849 10.2936C37.9529 10.4616 38.0369 10.6896 38.0369 10.9776V21.2916H40.1249Z" fill="#F34E4E"/>
<path d="M35.0728 31.762C31.5524 36.2271 25.9422 39.0423 19.7573 38.6094C9.98122 37.9252 2.5593 29.3862 3.24353 19.6101C3.92777 9.83399 12.4668 2.41207 22.2429 3.09631" stroke="#F34E4E" stroke-width="2" stroke-miterlimit="10" stroke-linecap="round" stroke-linejoin="round"/>
</svg>
