<svg width="42" height="41" viewBox="0 0 42 41" fill="none" xmlns="http://www.w3.org/2000/svg">
<path d="M23.9703 22.9656C22.4943 22.9656 21.3663 22.4136 20.5863 21.3096C19.8183 20.2056 19.4343 18.5976 19.4343 16.4856C19.4343 14.3616 19.8183 12.7476 20.5863 11.6436C21.3663 10.5396 22.4943 9.98759 23.9703 9.98759C25.4463 9.98759 26.5683 10.5396 27.3363 11.6436C28.1163 12.7356 28.5063 14.3436 28.5063 16.4676C28.5063 18.5916 28.1163 20.2056 27.3363 21.3096C26.5683 22.4136 25.4463 22.9656 23.9703 22.9656ZM23.9703 21.4716C24.8943 21.4716 25.5723 21.0696 26.0043 20.2656C26.4363 19.4616 26.6523 18.1956 26.6523 16.4676C26.6523 14.7396 26.4363 13.4796 26.0043 12.6876C25.5723 11.8836 24.8943 11.4816 23.9703 11.4816C23.0463 11.4816 22.3683 11.8836 21.9363 12.6876C21.5043 13.4796 21.2883 14.7396 21.2883 16.4676C21.2883 18.1836 21.5043 19.4496 21.9363 20.2656C22.3683 21.0696 23.0463 21.4716 23.9703 21.4716ZM39.3173 21.2916C39.6053 21.2916 39.8213 21.3576 39.9653 21.4896C40.1213 21.6216 40.1993 21.8076 40.1993 22.0476C40.1993 22.5636 39.9053 22.8216 39.3173 22.8216H32.3693C32.1053 22.8216 31.8953 22.7496 31.7393 22.6056C31.5953 22.4496 31.5233 22.2576 31.5233 22.0296C31.5233 21.7536 31.6313 21.5016 31.8473 21.2736L36.0773 16.6476C36.6413 16.0356 37.0493 15.4776 37.3013 14.9736C37.5533 14.4696 37.6793 13.9716 37.6793 13.4796C37.6793 12.8436 37.4933 12.3576 37.1213 12.0216C36.7613 11.6736 36.2453 11.4996 35.5733 11.4996C34.5533 11.4996 33.5393 11.8896 32.5313 12.6696C32.3993 12.7536 32.2853 12.8196 32.1893 12.8676C32.1053 12.9036 32.0153 12.9216 31.9193 12.9216C31.7513 12.9216 31.6073 12.8436 31.4873 12.6876C31.3673 12.5316 31.3073 12.3456 31.3073 12.1296C31.3073 11.8296 31.4273 11.5896 31.6673 11.4096C32.1713 10.9776 32.7773 10.6356 33.4853 10.3836C34.1933 10.1196 34.9073 9.98759 35.6273 9.98759C36.8153 9.98759 37.7573 10.2936 38.4533 10.9056C39.1613 11.5056 39.5153 12.3216 39.5153 13.3536C39.5153 14.0856 39.3533 14.7816 39.0293 15.4416C38.7173 16.1016 38.1893 16.8396 37.4453 17.6556L34.0433 21.2916H39.3173Z" fill="#F34E4E"/>
<path d="M34.1392 31.762C30.6188 36.2271 25.0086 39.0423 18.8237 38.6094C9.04762 37.9252 1.62571 29.3862 2.30994 19.6101C2.99418 9.83399 11.5332 2.41207 21.3093 3.09631" stroke="#F34E4E" stroke-width="2" stroke-miterlimit="10" stroke-linecap="round" stroke-linejoin="round"/>
</svg>
