<svg width="43" height="41" viewBox="0 0 43 41" fill="none" xmlns="http://www.w3.org/2000/svg">
<path d="M24.9039 22.9656C23.4279 22.9656 22.2999 22.4136 21.5199 21.3096C20.7519 20.2056 20.3679 18.5976 20.3679 16.4856C20.3679 14.3616 20.7519 12.7476 21.5199 11.6436C22.2999 10.5396 23.4279 9.98759 24.9039 9.98759C26.3799 9.98759 27.5019 10.5396 28.2699 11.6436C29.0499 12.7356 29.4399 14.3436 29.4399 16.4676C29.4399 18.5916 29.0499 20.2056 28.2699 21.3096C27.5019 22.4136 26.3799 22.9656 24.9039 22.9656ZM24.9039 21.4716C25.8279 21.4716 26.5059 21.0696 26.9379 20.2656C27.3699 19.4616 27.5859 18.1956 27.5859 16.4676C27.5859 14.7396 27.3699 13.4796 26.9379 12.6876C26.5059 11.8836 25.8279 11.4816 24.9039 11.4816C23.9799 11.4816 23.3019 11.8836 22.8699 12.6876C22.4379 13.4796 22.2219 14.7396 22.2219 16.4676C22.2219 18.1836 22.4379 19.4496 22.8699 20.2656C23.3019 21.0696 23.9799 21.4716 24.9039 21.4716ZM38.4149 16.3056C39.1829 16.5216 39.7649 16.8936 40.1609 17.4216C40.5569 17.9376 40.7549 18.5916 40.7549 19.3836C40.7549 20.4876 40.3649 21.3576 39.5849 21.9936C38.8169 22.6296 37.7729 22.9476 36.4529 22.9476C35.6729 22.9476 34.9229 22.8216 34.2029 22.5696C33.4949 22.3176 32.8949 21.9696 32.4029 21.5256C32.1629 21.3336 32.0429 21.0936 32.0429 20.8056C32.0429 20.5896 32.1029 20.4096 32.2229 20.2656C32.3429 20.1096 32.4869 20.0316 32.6549 20.0316C32.8349 20.0316 33.0389 20.1096 33.2669 20.2656C33.7829 20.6496 34.2869 20.9436 34.7789 21.1476C35.2829 21.3396 35.8229 21.4356 36.3989 21.4356C38.1029 21.4356 38.9549 20.7096 38.9549 19.2576C38.9549 18.5496 38.7269 18.0216 38.2709 17.6736C37.8269 17.3136 37.1489 17.1336 36.2369 17.1336H35.2469C35.0189 17.1336 34.8389 17.0616 34.7069 16.9176C34.5749 16.7616 34.5089 16.5816 34.5089 16.3776C34.5089 16.1856 34.5749 16.0176 34.7069 15.8736C34.8389 15.7176 35.0189 15.6396 35.2469 15.6396H35.9489C36.8249 15.6396 37.4909 15.4596 37.9469 15.0996C38.4149 14.7276 38.6489 14.1876 38.6489 13.4796C38.6489 12.8556 38.4569 12.3696 38.0729 12.0216C37.7009 11.6736 37.1729 11.4996 36.4889 11.4996C35.4809 11.4996 34.4729 11.8896 33.4649 12.6696C33.2369 12.8256 33.0329 12.9036 32.8529 12.9036C32.6849 12.9036 32.5409 12.8316 32.4209 12.6876C32.3009 12.5316 32.2409 12.3456 32.2409 12.1296C32.2409 11.8416 32.3609 11.6016 32.6009 11.4096C33.0929 10.9656 33.6869 10.6176 34.3829 10.3656C35.0909 10.1136 35.8169 9.98759 36.5609 9.98759C37.7489 9.98759 38.6969 10.2876 39.4049 10.8876C40.1129 11.4876 40.4609 12.2916 40.4489 13.2996C40.4489 13.9956 40.2689 14.6136 39.9089 15.1536C39.5489 15.6816 39.0509 16.0656 38.4149 16.3056Z" fill="#F34E4E"/>
<path d="M35.0728 31.762C31.5524 36.2271 25.9422 39.0423 19.7573 38.6094C9.98122 37.9252 2.5593 29.3862 3.24353 19.6101C3.92777 9.83399 12.4668 2.41207 22.2429 3.09631" stroke="#F34E4E" stroke-width="2" stroke-miterlimit="10" stroke-linecap="round" stroke-linejoin="round"/>
</svg>
