<svg width="43" height="41" viewBox="0 0 43 41" fill="none" xmlns="http://www.w3.org/2000/svg">
<path d="M24.9039 23.0815C23.4279 23.0815 22.2999 22.5295 21.5199 21.4255C20.7519 20.3215 20.3679 18.7135 20.3679 16.6015C20.3679 14.4775 20.7519 12.8635 21.5199 11.7595C22.2999 10.6555 23.4279 10.1035 24.9039 10.1035C26.3799 10.1035 27.5019 10.6555 28.2699 11.7595C29.0499 12.8515 29.4399 14.4595 29.4399 16.5835C29.4399 18.7075 29.0499 20.3215 28.2699 21.4255C27.5019 22.5295 26.3799 23.0815 24.9039 23.0815ZM24.9039 21.5875C25.8279 21.5875 26.5059 21.1855 26.9379 20.3815C27.3699 19.5775 27.5859 18.3115 27.5859 16.5835C27.5859 14.8555 27.3699 13.5955 26.9379 12.8035C26.5059 11.9995 25.8279 11.5975 24.9039 11.5975C23.9799 11.5975 23.3019 11.9995 22.8699 12.8035C22.4379 13.5955 22.2219 14.8555 22.2219 16.5835C22.2219 18.2995 22.4379 19.5655 22.8699 20.3815C23.3019 21.1855 23.9799 21.5875 24.9039 21.5875ZM40.7189 18.8335C41.3069 18.8335 41.6009 19.0795 41.6009 19.5715C41.6009 20.0635 41.3069 20.3095 40.7189 20.3095H39.5669V22.0915C39.5669 22.3915 39.4829 22.6255 39.3149 22.7935C39.1469 22.9495 38.9249 23.0275 38.6489 23.0275C38.3849 23.0275 38.1689 22.9495 38.0009 22.7935C37.8329 22.6255 37.7489 22.3915 37.7489 22.0915V20.3095H32.6909C32.4269 20.3095 32.2229 20.2375 32.0789 20.0935C31.9349 19.9495 31.8629 19.7635 31.8629 19.5355C31.8629 19.2955 31.9409 19.0615 32.0969 18.8335L37.8389 10.5715C38.0309 10.2955 38.3009 10.1575 38.6489 10.1575C38.9009 10.1575 39.1169 10.2415 39.2969 10.4095C39.4769 10.5655 39.5669 10.7935 39.5669 11.0935V18.8335H40.7189ZM33.8609 18.8335H37.7489V13.2175L33.8609 18.8335Z" fill="#F34E4E"/>
<path d="M35.0728 31.8779C31.5524 36.3431 25.9422 39.1582 19.7573 38.7253C9.98122 38.0411 2.5593 29.5021 3.24353 19.726C3.92777 9.9499 12.4668 2.52798 22.2429 3.21222" stroke="#F34E4E" stroke-width="2" stroke-miterlimit="10" stroke-linecap="round" stroke-linejoin="round"/>
</svg>
