<svg width="43" height="41" viewBox="0 0 43 41" fill="none" xmlns="http://www.w3.org/2000/svg">
<path d="M24.9039 23.0815C23.4279 23.0815 22.2999 22.5295 21.5199 21.4255C20.7519 20.3215 20.3679 18.7135 20.3679 16.6015C20.3679 14.4775 20.7519 12.8635 21.5199 11.7595C22.2999 10.6555 23.4279 10.1035 24.9039 10.1035C26.3799 10.1035 27.5019 10.6555 28.2699 11.7595C29.0499 12.8515 29.4399 14.4595 29.4399 16.5835C29.4399 18.7075 29.0499 20.3215 28.2699 21.4255C27.5019 22.5295 26.3799 23.0815 24.9039 23.0815ZM24.9039 21.5875C25.8279 21.5875 26.5059 21.1855 26.9379 20.3815C27.3699 19.5775 27.5859 18.3115 27.5859 16.5835C27.5859 14.8555 27.3699 13.5955 26.9379 12.8035C26.5059 11.9995 25.8279 11.5975 24.9039 11.5975C23.9799 11.5975 23.3019 11.9995 22.8699 12.8035C22.4379 13.5955 22.2219 14.8555 22.2219 16.5835C22.2219 18.2995 22.4379 19.5655 22.8699 20.3815C23.3019 21.1855 23.9799 21.5875 24.9039 21.5875ZM37.1729 14.9095C37.9649 14.9095 38.6609 15.0775 39.2609 15.4135C39.8729 15.7495 40.3469 16.2235 40.6829 16.8355C41.0189 17.4475 41.1869 18.1495 41.1869 18.9415C41.1869 19.7455 41.0009 20.4595 40.6289 21.0835C40.2569 21.7075 39.7349 22.1935 39.0629 22.5415C38.4029 22.8895 37.6409 23.0635 36.7769 23.0635C36.0329 23.0635 35.3009 22.9375 34.5809 22.6855C33.8729 22.4335 33.2789 22.0855 32.7989 21.6415C32.5589 21.4375 32.4389 21.1975 32.4389 20.9215C32.4389 20.7055 32.4989 20.5255 32.6189 20.3815C32.7389 20.2255 32.8829 20.1475 33.0509 20.1475C33.1589 20.1475 33.2549 20.1655 33.3389 20.2015C33.4349 20.2375 33.5429 20.2975 33.6629 20.3815C34.1549 20.7655 34.6469 21.0595 35.1389 21.2635C35.6429 21.4555 36.1709 21.5515 36.7229 21.5515C37.5629 21.5515 38.2169 21.3295 38.6849 20.8855C39.1529 20.4295 39.3869 19.7935 39.3869 18.9775C39.3869 18.1975 39.1469 17.5735 38.6669 17.1055C38.1989 16.6375 37.5689 16.4035 36.7769 16.4035C36.2609 16.4035 35.7989 16.4935 35.3909 16.6735C34.9829 16.8415 34.5989 17.1115 34.2389 17.4835C34.0589 17.6515 33.8429 17.7355 33.5909 17.7355C33.3869 17.7355 33.2129 17.6755 33.0689 17.5555C32.9369 17.4235 32.8709 17.2555 32.8709 17.0515V11.1295C32.8709 10.8535 32.9429 10.6375 33.0869 10.4815C33.2429 10.3255 33.4649 10.2475 33.7529 10.2475H39.9449C40.2209 10.2475 40.4369 10.3135 40.5929 10.4455C40.7489 10.5775 40.8269 10.7575 40.8269 10.9855C40.8269 11.2255 40.7489 11.4115 40.5929 11.5435C40.4369 11.6755 40.2209 11.7415 39.9449 11.7415H34.7069V15.7375C35.3669 15.1855 36.1889 14.9095 37.1729 14.9095Z" fill="#F34E4E"/>
<path d="M35.0728 31.8779C31.5524 36.3431 25.9422 39.1582 19.7573 38.7253C9.98122 38.0411 2.5593 29.5021 3.24353 19.726C3.92777 9.9499 12.4668 2.52798 22.2429 3.21222" stroke="#F34E4E" stroke-width="2" stroke-miterlimit="10" stroke-linecap="round" stroke-linejoin="round"/>
</svg>
