<svg width="51" height="21" viewBox="0 0 51 21" fill="none" xmlns="http://www.w3.org/2000/svg">
<path d="M49.8267 10.4895L40.4517 1.11452C40.2076 0.870356 39.8121 0.870356 39.568 1.11452C39.3238 1.35868 39.3238 1.75418 39.568 1.99829L47.8761 10.3064H0.835957C0.490488 10.3064 0.210938 10.586 0.210938 10.9314C0.210938 11.2769 0.490488 11.5565 0.835957 11.5565H47.8761L39.568 19.8645C39.3238 20.1087 39.3238 20.5042 39.568 20.7483C39.69 20.8703 39.85 20.9314 40.0099 20.9314C40.1698 20.9314 40.3297 20.8703 40.4518 20.7483L49.8268 11.3733C50.0709 11.1292 50.0709 10.7337 49.8267 10.4895Z" fill="#F1404B"/>
</svg>
