<?xml version="1.0" encoding="utf-8"?>
<!-- Generator: Adobe Illustrator 21.1.0, SVG Export Plug-In . SVG Version: 6.00 Build 0)  -->
<svg version="1.1" id="Layer_1" xmlns="http://www.w3.org/2000/svg" xmlns:xlink="http://www.w3.org/1999/xlink" x="0px" y="0px"
	 viewBox="0 0 55 55" style="enable-background:new 0 0 55 55;" xml:space="preserve">
<style type="text/css">
	.st0{fill:#FFFFFF;}
	.st1{fill:#E8424D;}
	.st2{fill:#252C41;}
</style>
<g>
	<path class="st0" d="M24.5,27.1h-4.8v2.2c0,0.4-0.3,0.8-0.8,0.8c-0.4,0-0.8-0.3-0.8-0.8v-2.2h-4.8v9.4h11.1V27.1z"/>
	<path class="st0" d="M6.5,36.4h5.4V26.3c0-0.4,0.3-0.8,0.8-0.8h12.7c0.4,0,0.8,0.3,0.8,0.8v10.2h5.6c0.4,0,0.8,0.3,0.8,0.8v9.9h4.8
		c0.9,0,1.6-0.7,1.6-1.6V21.5L19,7.4L3.4,18.2c-0.1,0-0.1,0-0.2,0.1c-1.1,2.9-1.7,6.1-1.7,9.2c0,5,1.5,9.9,4.1,14.1v-4.3
		C5.7,36.8,6,36.4,6.5,36.4z"/>
	<path class="st0" d="M26.1,39.9c0,0.4-0.3,0.8-0.8,0.8c-0.4,0-0.8-0.3-0.8-0.8V38h-4.8v9.1h11.1V38h-4.8V39.9z"/>
	<path class="st1" d="M27.5,1.6c-9.8,0-18.6,5.4-23,14l14.1-9.7c0.3-0.2,0.6-0.2,0.9,0L40,20.4c0.2,0.1,0.3,0.4,0.3,0.6v24.5
		c0,1.7-1.4,3.1-3.1,3.1H12.5c4.4,3.1,9.6,4.8,15,4.8c14.3,0,25.9-11.6,25.9-25.9C53.4,13.2,41.8,1.6,27.5,1.6z"/>
	<path class="st0" d="M18.2,47.1V38h-4.8v1.9c0,0.4-0.3,0.8-0.8,0.8c-0.4,0-0.8-0.3-0.8-0.8V38H7.3v5.7c0,0,0,0,0,0.1
		c1,1.2,2.1,2.4,3.3,3.4c0,0,0,0,0.1,0H18.2z"/>
	<path class="st2" d="M40.4,45.5V21c0-0.3-0.1-0.5-0.3-0.6L19.5,5.8c-0.3-0.2-0.6-0.2-0.9,0L4.5,15.6l-1.2,2.7c0.1,0,0.1,0,0.2-0.1
		L19,7.4l19.8,14v24.1c0,0.9-0.7,1.6-1.6,1.6h-4.8v-9.9c0-0.4-0.3-0.8-0.8-0.8h-5.6V26.3c0-0.4-0.3-0.8-0.8-0.8H12.6
		c-0.4,0-0.8,0.3-0.8,0.8v10.2H6.5c-0.4,0-0.8,0.3-0.8,0.8v4.3l1.5,2.1c0,0,0,0,0-0.1V38h4.6v1.9c0,0.4,0.3,0.8,0.8,0.8
		c0.4,0,0.8-0.3,0.8-0.8V38h4.8v9.1h-7.7c0,0,0,0-0.1,0l2,1.5h24.8C39,48.6,40.4,47.2,40.4,45.5z M13.4,36.4v-9.4h4.8v2.2
		c0,0.4,0.3,0.8,0.8,0.8c0.4,0,0.8-0.3,0.8-0.8v-2.2h4.8v9.4H13.4z M30.9,47.1H19.8V38h4.8v1.9c0,0.4,0.3,0.8,0.8,0.8
		c0.4,0,0.8-0.3,0.8-0.8V38h4.8V47.1z"/>
	<path class="st0" d="M27.5,0C16.1,0,6,6.9,1.9,17.5C0.6,20.7,0,24.1,0,27.5c0,8.1,3.5,15.7,9.7,20.9c5,4.2,11.3,6.6,17.8,6.6
		C42.7,55,55,42.7,55,27.5C55,12.3,42.7,0,27.5,0z M27.5,53.4c-5.4,0-10.7-1.7-15-4.8l-2-1.5c-1.2-1-2.3-2.2-3.3-3.4l-1.5-2.1
		c-2.7-4.1-4.1-9-4.1-14.1c0-3.2,0.6-6.3,1.7-9.2l1.2-2.7c4.4-8.6,13.2-14,23-14c14.3,0,25.9,11.6,25.9,25.9
		C53.4,41.8,41.8,53.4,27.5,53.4z"/>
</g>
</svg>
