<svg width="56" height="56" viewBox="0 0 56 56" fill="none" xmlns="http://www.w3.org/2000/svg">
<g clip-path="url(#clip0)">
<path d="M13.3506 27.5471V36.8647H24.48V27.5471H19.6918V29.7471C19.6918 30.1353 19.3035 30.5235 18.9153 30.5235C18.5271 30.5235 18.1388 30.1353 18.1388 29.7471V27.5471H13.3506Z" fill="white"/>
<path d="M11.7977 26.7706C11.7977 26.3823 12.186 25.9941 12.5742 25.9941H25.2566C25.6448 25.9941 26.033 26.3823 26.033 26.7706V36.8647H31.5977C31.986 36.8647 32.3742 37.2529 32.3742 37.6412V47.4765H37.1625C38.0683 47.4765 38.7154 46.8294 38.7154 45.9235V21.9823L19.0448 7.87646L3.38598 18.6176C3.38598 18.6176 3.25657 18.6176 3.25657 18.7471C2.09187 21.7235 1.57422 24.8294 1.57422 27.9353C1.57422 32.9824 2.99775 37.7706 5.71539 41.9118V37.6412C5.71539 37.2529 6.10363 36.8647 6.49187 36.8647H11.7977V26.7706Z" fill="white"/>
<path d="M30.8218 38.4177H26.0336V40.3588C26.0336 40.7471 25.6453 41.1353 25.2571 41.1353C24.8689 41.1353 24.4806 40.7471 24.4806 40.3588V38.4177H19.6924V47.4765H30.8218V38.4177Z" fill="white"/>
<path d="M27.4572 2.05292C17.6219 2.05292 8.95129 7.48821 4.42188 16.0294L18.5278 6.32351C18.7866 6.19409 19.1748 6.19409 19.4336 6.32351L40.0101 20.947C40.2689 21.0764 40.3983 21.3353 40.3983 21.5941V46.0529C40.3983 47.7353 38.9748 49.1588 37.2925 49.1588H12.4454C16.8454 52.2647 22.0219 53.947 27.4572 53.947C41.6925 53.947 53.3395 42.3 53.3395 28.0647C53.4689 13.7 41.8219 2.05292 27.4572 2.05292Z" fill="#F1404B"/>
<path d="M18.2686 38.4177H13.4803V40.3588C13.4803 40.7471 13.0921 41.1353 12.7038 41.1353C12.3156 41.1353 11.9274 40.7471 11.9274 40.3588V38.4177H7.26855V44.1118C8.30385 45.2765 9.33914 46.4412 10.5038 47.4765H18.1391V38.4177H18.2686Z" fill="white"/>
<path d="M27.4568 0.5C16.0685 0.5 5.97443 7.35882 1.83325 17.9706C0.539131 21.2059 0.0214844 24.4412 0.0214844 27.9353C0.0214844 35.9588 3.5156 43.5941 9.72737 48.9C14.645 53.1706 20.9862 55.5 27.5862 55.5C42.7274 55.5 55.0215 43.2059 55.0215 28.0647C55.0215 12.7941 42.598 0.5 27.4568 0.5ZM5.7156 37.6412V41.9118C2.99796 37.7706 1.57443 32.8529 1.57443 27.9353C1.57443 24.7 2.09207 21.5941 3.25678 18.7471C3.25678 18.7471 3.38619 18.7471 3.38619 18.6176L18.9156 7.87647L38.845 21.9824V46.0529C38.845 46.9588 38.198 47.6059 37.2921 47.6059H32.3744V37.7706C32.3744 37.3824 31.9862 36.9941 31.598 36.9941H26.0333V26.9C26.0333 26.5118 25.645 26.1235 25.2568 26.1235H12.5744C12.1862 26.1235 11.798 26.5118 11.798 26.9V36.9941H6.49207C6.10384 36.8647 5.7156 37.2529 5.7156 37.6412ZM18.9156 30.3941C19.3038 30.3941 19.6921 30.0059 19.6921 29.6176V27.4176H24.4803V36.7353H13.3509V27.4176H18.1391V29.6176C18.1391 30.1353 18.5274 30.3941 18.9156 30.3941ZM19.8215 38.4176H24.6097V40.3588C24.6097 40.7471 24.998 41.1353 25.3862 41.1353C25.7744 41.1353 26.1627 40.7471 26.1627 40.3588V38.4176H30.9509V47.4765H19.8215V38.4176ZM10.5038 47.6059C9.33913 46.5706 8.17443 45.4059 7.26854 44.2412V38.5471H11.798V40.4882C11.798 40.8765 12.1862 41.2647 12.5744 41.2647C12.9627 41.2647 13.3509 40.8765 13.3509 40.4882V38.5471H18.1391V47.6059H10.5038C10.5038 47.4765 10.5038 47.4765 10.5038 47.6059ZM27.4568 53.9471C22.0215 53.9471 16.845 52.2647 12.445 49.1588H37.1627C38.845 49.1588 40.2685 47.7353 40.2685 46.0529V21.4647C40.2685 21.2059 40.1391 20.9471 39.8803 20.8176L19.4333 6.32353C19.1744 6.19412 18.7862 6.19412 18.5274 6.32353L4.42148 16.0294C8.9509 7.48824 17.6215 2.05294 27.4568 2.05294C41.6921 2.05294 53.3391 13.7 53.3391 27.9353C53.4685 42.3 41.8215 53.9471 27.4568 53.9471Z" fill="#252B41"/>
</g>
<defs>
<clipPath id="clip0">
<rect width="55" height="55" fill="white" transform="translate(0.0214844 0.5)"/>
</clipPath>
</defs>
</svg>
