<?xml version="1.0" encoding="utf-8"?>
<!-- Generator: Adobe Illustrator 21.1.0, SVG Export Plug-In . SVG Version: 6.00 Build 0)  -->
<svg version="1.1" id="Layer_1" xmlns="http://www.w3.org/2000/svg" xmlns:xlink="http://www.w3.org/1999/xlink" x="0px" y="0px"
	 viewBox="0 0 58 58" style="enable-background:new 0 0 58 58;" xml:space="preserve">
<style type="text/css">
	.st0{fill:#FFFFFF;}
	.st1{fill:#E8424D;}
	.st2{fill:#252C41;}
</style>
<g>
	<path class="st0" d="M26,28.6h-4.8v2.2c0,0.4-0.3,0.8-0.8,0.8c-0.4,0-0.8-0.3-0.8-0.8v-2.2h-4.8v9.4H26V28.6z"/>
	<path class="st0" d="M8,37.9h5.4V27.8c0-0.4,0.3-0.8,0.8-0.8h12.7c0.4,0,0.8,0.3,0.8,0.8v10.2h5.6c0.4,0,0.8,0.3,0.8,0.8v9.9h4.8
		c0.9,0,1.6-0.7,1.6-1.6V23l-19.8-14L4.9,19.7c-0.1,0-0.1,0-0.2,0.1c-1.1,2.9-1.7,6.1-1.7,9.2c0,5,1.5,9.9,4.1,14.1v-4.3
		C7.2,38.3,7.5,37.9,8,37.9z"/>
	<path class="st0" d="M27.6,41.4c0,0.4-0.3,0.8-0.8,0.8c-0.4,0-0.8-0.3-0.8-0.8v-1.9h-4.8v9.1h11.1v-9.1h-4.8V41.4z"/>
	<path class="st1" d="M29,3.1c-9.8,0-18.6,5.4-23,14l14.1-9.7c0.3-0.2,0.6-0.2,0.9,0l20.6,14.6c0.2,0.1,0.3,0.4,0.3,0.6V47
		c0,1.7-1.4,3.1-3.1,3.1H14c4.4,3.1,9.6,4.8,15,4.8c14.3,0,25.9-11.6,25.9-25.9C54.9,14.7,43.3,3.1,29,3.1z"/>
	<path class="st0" d="M19.7,48.6v-9.1h-4.8v1.9c0,0.4-0.3,0.8-0.8,0.8c-0.4,0-0.8-0.3-0.8-0.8v-1.9H8.8v5.7c0,0,0,0,0,0.1
		c1,1.2,2.1,2.4,3.3,3.4c0,0,0,0,0.1,0H19.7z"/>
	<path class="st2" d="M41.9,47V22.5c0-0.3-0.1-0.5-0.3-0.6L21,7.3c-0.3-0.2-0.6-0.2-0.9,0L6,17.1l-1.2,2.7c0.1,0,0.1,0,0.2-0.1
		L20.5,8.9l19.8,14V47c0,0.9-0.7,1.6-1.6,1.6h-4.8v-9.9c0-0.4-0.3-0.8-0.8-0.8h-5.6V27.8c0-0.4-0.3-0.8-0.8-0.8H14.1
		c-0.4,0-0.8,0.3-0.8,0.8v10.2H8c-0.4,0-0.8,0.3-0.8,0.8v4.3l1.5,2.1c0,0,0,0,0-0.1v-5.7h4.6v1.9c0,0.4,0.3,0.8,0.8,0.8
		c0.4,0,0.8-0.3,0.8-0.8v-1.9h4.8v9.1H12c0,0,0,0-0.1,0l2,1.5h24.8C40.5,50.1,41.9,48.7,41.9,47z M14.9,37.9v-9.4h4.8v2.2
		c0,0.4,0.3,0.8,0.8,0.8c0.4,0,0.8-0.3,0.8-0.8v-2.2H26v9.4H14.9z M32.4,48.6H21.3v-9.1H26v1.9c0,0.4,0.3,0.8,0.8,0.8
		c0.4,0,0.8-0.3,0.8-0.8v-1.9h4.8V48.6z"/>
	<path class="st2" d="M29,1.5C17.6,1.5,7.5,8.4,3.4,19c-1.2,3.2-1.9,6.5-1.9,10c0,8.1,3.5,15.7,9.7,20.9c5,4.2,11.3,6.6,17.8,6.6
		c15.2,0,27.5-12.3,27.5-27.5C56.5,13.8,44.2,1.5,29,1.5z M29,54.9c-5.4,0-10.7-1.7-15-4.8l-2-1.5c-1.2-1-2.3-2.2-3.3-3.4l-1.5-2.1
		C4.5,38.9,3.1,34,3.1,29c0-3.2,0.6-6.3,1.7-9.2L6,17.1c4.4-8.6,13.2-14,23-14c14.3,0,25.9,11.6,25.9,25.9
		C54.9,43.3,43.3,54.9,29,54.9z"/>
</g>
<g>
	<path class="st0" d="M29,1.5c15.2,0,27.5,12.3,27.5,27.5S44.2,56.5,29,56.5S1.5,44.2,1.5,29S13.8,1.5,29,1.5 M29,0C13,0,0,13,0,29
		s13,29,29,29s29-13,29-29S45,0,29,0L29,0z"/>
</g>
</svg>
