<?xml version="1.0" encoding="utf-8"?>
<!-- Generator: Adobe Illustrator 21.1.0, SVG Export Plug-In . SVG Version: 6.00 Build 0)  -->
<svg version="1.1" id="Layer_1" xmlns="http://www.w3.org/2000/svg" xmlns:xlink="http://www.w3.org/1999/xlink" x="0px" y="0px"
	 viewBox="0 0 47 47" style="enable-background:new 0 0 47 47;" xml:space="preserve">
<style type="text/css">
	.st0{fill:#F34E4E;}
</style>
<path class="st0" d="M26,28.5c-0.1-0.1-0.1-0.1-0.2-0.2c0-0.1-0.1-0.2-0.1-0.3s0-0.2,0-0.3c0.2-0.8,0.3-1.5,0.5-2.3
	c0-0.1,0-0.2,0.1-0.3c0-0.1,0.1-0.1,0.2-0.2c0.1-0.1,0.2-0.1,0.2-0.1c0.1,0,0.2,0,0.3,0c0-0.1,0-0.1,0-0.2c-0.6-0.2-1.1-0.3-1.7-0.5
	c-0.2,0-0.3-0.2-0.4-0.3c-0.1-0.2-0.1-0.3-0.1-0.5c0-0.2,0.2-0.3,0.3-0.4c0.2-0.1,0.3-0.1,0.5-0.1c0.3,0.1,0.6,0.1,0.9,0.2
	c0,0,0,0,0,0c0.1-0.8,0.2-1.6,0.3-2.3c0-0.2,0.1-0.3,0.3-0.5c0.1-0.1,0.3-0.2,0.5-0.1c0-0.3,0-0.7,0.1-1c-0.1,0-0.2,0-0.2-0.1
	c-0.1,0-0.2-0.1-0.2-0.2c-0.1-0.1-0.1-0.1-0.1-0.2c0-0.1,0-0.2,0-0.3c0-0.8,0.1-1.6,0.1-2.3c0-0.2,0.1-0.4,0.2-0.5
	c0.1-0.1,0.3-0.2,0.4-0.2c0-0.4,0-0.7,0-1h0c-0.2,0-0.3-0.1-0.5-0.2c-0.1-0.1-0.2-0.3-0.2-0.5c0-0.6-0.1-1.2-0.2-1.7
	c-2,0-4.2,0-6.7,0.1c-0.5,0-0.9,0.1-1.3,0.1c0,0.3,0,0.7,0,1c0,0.2,0,0.5,0,0.7c0,0.2-0.1,0.3-0.2,0.5c-0.1,0.1-0.3,0.2-0.5,0.2h0
	c0,0,0,0-0.1,0c0,0.3,0,0.7,0,1c0,0,0,0,0,0c0.2,0,0.3,0.1,0.4,0.3c0.1,0.1,0.2,0.3,0.1,0.5c-0.1,0.8-0.3,1.6-0.5,2.4
	c0,0.1-0.1,0.2-0.1,0.2s-0.1,0.1-0.2,0.2c-0.1,0-0.2,0.1-0.3,0.1c-0.1,0-0.1,0-0.2,0c-0.1,0.3-0.2,0.6-0.3,0.9
	c0.1,0,0.1,0.1,0.2,0.1c0.1,0.1,0.1,0.1,0.2,0.2c0,0.1,0.1,0.2,0.1,0.3c0,0.1,0,0.2,0,0.3c-0.1,0.2-0.1,0.4-0.2,0.6
	c0.4,0,0.9,0,1.3,0c0.2,0,0.4,0.1,0.5,0.2c0.1,0.1,0.2,0.3,0.2,0.5c0,0.1,0,0.2-0.1,0.3c0,0.1-0.1,0.2-0.2,0.2
	c-0.1,0.1-0.1,0.1-0.2,0.1c-0.1,0-0.2,0-0.3,0c-0.6,0-1.2,0-1.9,0.1c0,0.1-0.1,0.2-0.1,0.2c-0.1,0.2-0.2,0.3-0.4,0.4
	c-0.2,0.1-0.4,0.1-0.5,0c-0.1,0-0.1-0.1-0.2-0.1c-0.2,0.3-0.3,0.6-0.5,1c0.1,0,0.2,0,0.2,0.1c0.2,0.1,0.3,0.2,0.4,0.4
	c0.1,0.2,0,0.4,0,0.5c-0.4,0.7-0.7,1.4-1.1,2.1c-0.1,0.2-0.2,0.3-0.4,0.3c-0.2,0-0.4,0-0.5-0.1c-0.1,0-0.1-0.1-0.2-0.1
	c-0.2,0.4-0.3,0.7-0.4,1c0.1,0.1,0.2,0.1,0.3,0.2c0.1,0.1,0.1,0.3,0.1,0.4c0.1,0,0.2,0.1,0.2,0.2c0.1,0.1,0.1,0.2,0.1,0.2
	c0.6,2,1.5,5.5,1.5,8.4h1.9c0.1-0.6,0.2-1.8,0.3-3.2c0.1-0.9,0.4-1.9,0.9-3.1l0.2-0.6c0.1-0.2,0.2-0.3,0.3-0.4
	c0.1-0.1,0.3-0.1,0.5-0.1c1.8,0.3,3.6,0.6,5.4,0.7c0.1-0.4,0.3-1,0.5-1.7c0-0.1,0.1-0.2,0.1-0.2c0.1-0.1,0.1-0.1,0.2-0.2
	c0.1,0,0.2-0.1,0.3-0.1c0.1,0,0.1,0,0.2,0c0.1-0.3,0.2-0.6,0.3-1C26.1,28.5,26.1,28.5,26,28.5z M23.9,23.2c0,0.2-0.1,0.3-0.3,0.4
	c-0.2,0.1-0.3,0.1-0.5,0.1c-0.8-0.2-1.6-0.3-2.3-0.4c-0.1,0-0.2,0-0.3-0.1c-0.1,0-0.2-0.1-0.2-0.2c-0.1-0.1-0.1-0.2-0.1-0.2
	c0-0.1,0-0.2,0-0.3c0-0.1,0-0.2,0.1-0.3c0-0.1,0.1-0.1,0.2-0.2c0.1-0.1,0.2-0.1,0.2-0.1c0.1,0,0.2,0,0.3,0c0.7,0.1,1.6,0.2,2.4,0.4
	l0,0c0.2,0,0.3,0.1,0.4,0.3C23.9,22.8,23.9,23,23.9,23.2z"/>
<path class="st0" d="M36.9,13.3c-0.4,0.4-0.7,0.9-1,1.5c0,0.1-0.1,0.2-0.2,0.2c-0.1,0.1-0.2,0.1-0.2,0.1s-0.2,0-0.3,0c0,0,0,0,0,0
	c-0.1,0.3-0.3,0.6-0.4,1c0.1,0.1,0.2,0.1,0.2,0.2c0.1,0.2,0.1,0.4,0.1,0.5c-0.2,0.7-0.3,1.5-0.4,2.2c0,0.2-0.1,0.3-0.2,0.4
	c-0.1,0.1-0.3,0.2-0.5,0.2c0,0-0.1,0-0.1,0c0,0.3-0.1,0.7-0.1,1c0,0,0,0,0,0h0c0.1,0,0.2,0,0.3,0.1c0.1,0,0.2,0.1,0.2,0.2
	c0.1,0.1,0.1,0.1,0.1,0.2c0,0.1,0.1,0.2,0.1,0.3v0.2c0,0.7,0,1.4,0.1,2.1c0,0.2,0,0.4-0.2,0.5c-0.1,0.1-0.3,0.2-0.4,0.2
	c0,0.3,0.1,0.7,0.2,1c0.2,0,0.3,0,0.4,0.1c0.1,0.1,0.2,0.3,0.3,0.5c0.1,0.8,0.3,1.5,0.4,2.3c0,0.2,0,0.4-0.1,0.5
	C35.1,28.9,35,29,34.9,29c0.1,0.4,0.2,0.7,0.3,1c0,0,0,0,0.1,0c0.1,0,0.2,0,0.3,0.1c0.1,0,0.1,0.1,0.2,0.2c0.1,0.1,0.1,0.2,0.1,0.2
	c0,0.1,0.1,0.3,0.1,0.4c0.2,0,0.3,0,0.5,0.1c0.1,0.1,0.2,0.2,0.3,0.4c0.5,1.9,1.1,4.6,1.1,6.8h1.9c0.1-0.6,0.2-1.8,0.3-3.2
	c0.1-0.9,0.4-1.8,0.9-3.1C41.8,29.8,43,26.7,43,22v0c0-0.3,0-0.6,0-0.8c0-0.4,0-0.8-0.1-1.2h0C42.5,17,41.1,14.7,36.9,13.3z
	 M41.4,18c0.3,0.6,0.5,1.3,0.6,2c0,0.2,0,0.4-0.1,0.5s-0.3,0.2-0.5,0.3c-0.2,0-0.4,0-0.5-0.1c-0.1-0.1-0.2-0.3-0.3-0.5
	c-0.1-0.6-0.2-1.1-0.5-1.6c0-0.1-0.1-0.2-0.1-0.3c0-0.1,0-0.2,0-0.3c0-0.1,0.1-0.2,0.1-0.2c0.1-0.1,0.1-0.1,0.2-0.2
	c0.2-0.1,0.4-0.1,0.5,0C41.2,17.7,41.3,17.8,41.4,18z"/>
<path d="M47,14.3c0-0.1-0.1-0.2-0.1-0.2c-1.5-1.7-3.7-1.9-6.4-0.6c-3.7-2.3-10.2-3.1-20.3-2.6c-1.6,0.1-3.2,0.3-4.8,0.6
	c-0.5-1.3-1.2-2.6-2-3.8c-0.1-0.1-0.2-0.2-0.4-0.3s-0.3,0-0.5,0.1c-1.2,0.7-2.1,2-2.7,3.4C8.6,9.6,7.5,8.9,6.3,8.7
	c-0.2,0-0.3,0-0.5,0.1C5.7,8.8,5.6,9,5.6,9.1c-0.1,0.2-1.6,4.6-0.3,8c-0.6,0.7-1.2,1.5-1.7,2.2c-1,1.3-1.8,2.5-2.9,3.2
	c-0.1,0.1-0.2,0.2-0.3,0.3C0.1,23.7,0,24.5,0,25.4c0,0.9,0.2,1.7,0.6,2.5c0.1,0.1,0.1,0.2,0.3,0.3s0.2,0.1,0.3,0.1
	c2.1,0,3.6,0.6,5.2,1.1c1.8,0.7,3.8,1.2,5.8,1.3c0.1,0,0.1,0,0.2,0.1c0.5,1.8,1.5,5.6,1.3,8.3c0,0.1,0,0.2,0,0.3
	c0,0.1,0.1,0.2,0.1,0.2c0.1,0.1,0.1,0.1,0.2,0.2c0.1,0,0.2,0.1,0.3,0.1h3.3c0.2,0,0.3-0.1,0.5-0.2c0.1-0.1,0.2-0.3,0.2-0.4
	c0,0,0.2-1.5,0.4-3.9c0,0,0-0.1,0-0.1c0.2,1.3,0.3,2.6,0.3,3.9c0,0.1,0,0.2,0,0.3c0,0.1,0.1,0.2,0.1,0.2c0.1,0.1,0.1,0.1,0.2,0.2
	c0.1,0,0.2,0.1,0.3,0.1H23c0.2,0,0.3-0.1,0.5-0.2c0.1-0.1,0.2-0.3,0.2-0.4c0,0,0.2-1.5,0.4-3.9c0.1-0.7,0.3-1.5,0.6-2.2
	c1.8,0.1,3.6,0.2,5.4,0.1c0.4,1.8,0.8,4,0.7,5.8c0,0.1,0,0.2,0,0.3c0,0.1,0.1,0.2,0.1,0.2c0.1,0.1,0.1,0.1,0.2,0.2
	c0.1,0,0.2,0.1,0.3,0.1h3.3c0.2,0,0.3-0.1,0.5-0.2c0.1-0.1,0.2-0.3,0.2-0.4c0,0,0.2-1.5,0.4-3.9c0-0.2,0.1-0.4,0.1-0.6
	c0.3,1.4,0.4,2.9,0.4,4.4c0,0.1,0,0.2,0,0.3c0,0.1,0.1,0.2,0.1,0.2c0.1,0.1,0.1,0.1,0.2,0.2c0.1,0,0.2,0.1,0.3,0.1h3.3
	c0.2,0,0.3-0.1,0.5-0.2c0.1-0.1,0.2-0.3,0.2-0.4c0,0,0.2-1.5,0.4-3.9c0.2-0.9,0.4-1.8,0.8-2.7c0.9-2.4,2.2-5.6,2.2-10.6
	c0-0.3,0-0.6,0-0.9c0-0.5,0-0.9-0.1-1.4c-0.2-2-1.1-3.9-2.6-5.3c1.8-0.7,3.1-0.5,4.1,0.6c0.1,0.1,0.1,0.1,0.2,0.2
	c0.1,0,0.2,0.1,0.3,0.1c0.1,0,0.2,0,0.3,0c0.1,0,0.2-0.1,0.2-0.1c0.1-0.1,0.1-0.1,0.2-0.2s0.1-0.2,0.1-0.3S47,14.3,47,14.3z
	 M6.7,10.2c1,0.5,1.8,1.2,2.4,2c-0.2,0.6-0.3,1.2-0.4,1.8c-0.8,0.6-1.6,1.2-2.3,1.9C5.9,13.9,6.4,11.4,6.7,10.2z M22.7,35.1
	c-0.1,1.4-0.2,2.5-0.3,3.2h-1.9c-0.1-2-0.4-3.9-0.8-5.8c1.2,0.2,2.5,0.4,3.7,0.5C23,33.7,22.8,34.4,22.7,35.1z M34.5,35.1L34.5,35.1
	c-0.1,1.4-0.2,2.5-0.3,3.2h-1.9c-0.1-1.8-0.3-3.5-0.7-5.2c1.2-0.1,2.5-0.2,3.7-0.5C34.8,33.4,34.6,34.3,34.5,35.1z M42.9,19.9
	L42.9,19.9c0.1,0.4,0.1,0.8,0.1,1.2c0,0.2,0,0.5,0,0.8v0c0,4.8-1.2,7.9-2.1,10.1c-0.5,1.2-0.8,2.2-0.9,3.1c-0.1,1.4-0.2,2.5-0.3,3.2
	h-1.9c0-2.2-0.6-4.9-1.1-6.8c0-0.2-0.1-0.3-0.3-0.4C36.3,31,36.1,31,35.9,31c0-0.1-0.1-0.3-0.1-0.4c0-0.1-0.1-0.2-0.1-0.2
	c-0.1-0.1-0.1-0.1-0.2-0.2c-0.1,0-0.2-0.1-0.3-0.1c0,0,0,0-0.1,0c-0.1,0-0.1,0-0.2,0c-0.1,0-0.2,0.1-0.2,0.1
	c-0.1,0.1-0.1,0.1-0.2,0.2c0,0.1-0.1,0.2-0.1,0.3c0,0.1,0,0.2,0,0.3c0,0.1,0.1,0.3,0.1,0.4c-1.5,0.3-3,0.4-4.5,0.5
	c-1.3,0.1-2.6,0.1-4,0c0.1-0.4,0.2-0.8,0.4-1.4c0-0.1,0-0.2,0-0.3c0-0.1,0-0.2-0.1-0.3c0-0.1-0.1-0.1-0.2-0.2
	c-0.1-0.1-0.2-0.1-0.2-0.1c0,0-0.1,0-0.1,0c-0.1,0-0.1,0-0.2,0c-0.1,0-0.2,0-0.3,0.1c-0.1,0-0.1,0.1-0.2,0.2
	c-0.1,0.1-0.1,0.2-0.1,0.2c-0.2,0.7-0.3,1.3-0.5,1.7c-1.8-0.1-3.6-0.4-5.4-0.7c-0.2,0-0.3,0-0.5,0.1c-0.1,0.1-0.3,0.2-0.3,0.4
	l-0.2,0.6c-0.5,1.2-0.8,2.2-0.9,3.1c-0.1,1.4-0.2,2.5-0.3,3.2h-1.9c0-2.9-0.9-6.4-1.5-8.4c0-0.1-0.1-0.2-0.1-0.2
	c-0.1-0.1-0.1-0.1-0.2-0.2c0-0.2,0-0.3-0.1-0.4C13.1,29,13,29,12.9,28.9c0,0-0.1,0-0.1,0c-0.1,0-0.3,0-0.4,0
	c-0.1,0.1-0.3,0.1-0.3,0.3c0,0,0,0,0,0.1c-1.7-0.2-3.5-0.6-5.1-1.2c-1.6-0.7-3.4-1.1-5.2-1.2c-0.4-1.1-0.4-2.2,0-3.3
	c1.2-0.9,2.1-2.1,3-3.4C5.7,18.6,7,17.2,8.4,16c0,0.1,0,0.2,0,0.2c0,0.2,0,0.4,0.2,0.5c0.1,0.1,0.3,0.2,0.5,0.2c0,0,0,0,0.1,0
	c0.2,0,0.3-0.1,0.5-0.2c0.1-0.1,0.2-0.3,0.2-0.5c0.1-1.6,0.8-5.7,2.7-7.3c0.7,1.1,2.3,3.8,2.1,6.3c0,0.1,0,0.2,0,0.3
	c0,0.1,0.1,0.2,0.1,0.2c0.1,0.1,0.1,0.1,0.2,0.2s0.2,0.1,0.3,0.1c0.2,0,0.4,0,0.5-0.2c0.1-0.1,0.2-0.3,0.2-0.5
	c0.1-0.9,0-1.8-0.3-2.6c0.6-0.1,1.1-0.2,1.7-0.3c0,0.3,0,0.6,0,0.9c0,0.2,0,0.5,0,0.7c0,0.2,0.1,0.4,0.2,0.5
	c0.1,0.1,0.3,0.2,0.4,0.2c0,0,0,0,0.1,0h0c0.2,0,0.4-0.1,0.5-0.2c0.1-0.1,0.2-0.3,0.2-0.5c0-0.2,0-0.5,0-0.7c0-0.4,0-0.7,0-1
	c0.4,0,0.9-0.1,1.3-0.1c2.5-0.1,4.7-0.2,6.7-0.1c0.1,0.6,0.1,1.1,0.2,1.7c0,0.2,0.1,0.3,0.2,0.5c0.1,0.1,0.3,0.2,0.5,0.2h0h0
	c0.1,0,0.2,0,0.3-0.1c0.1,0,0.2-0.1,0.2-0.2c0.1-0.1,0.1-0.1,0.1-0.2c0-0.1,0-0.2,0-0.3c0-0.5-0.1-1.1-0.1-1.6
	c2.4,0.1,4.8,0.3,7.2,0.8c-0.3,0.4-0.5,0.8-0.8,1.2c-0.1,0.2-0.1,0.4,0,0.5c0.1,0.2,0.2,0.3,0.3,0.4c0.1,0,0.2,0.1,0.3,0.1
	c0,0,0,0,0,0c0.1,0,0.2,0,0.3,0s0.2-0.1,0.2-0.1c0.1-0.1,0.1-0.1,0.2-0.2c0.3-0.5,0.6-1,1-1.5C41.1,14.7,42.5,17,42.9,19.9z"/>
<path d="M17.2,16.3c-0.1,0.7-0.3,1.5-0.5,2.3c0,0.2,0,0.4,0.1,0.5c0.1,0.2,0.2,0.3,0.4,0.3c0,0,0.1,0,0.1,0c0.1,0,0.1,0,0.2,0
	c0.1,0,0.2,0,0.3-0.1c0.1,0,0.1-0.1,0.2-0.2s0.1-0.2,0.1-0.2c0.2-0.8,0.4-1.6,0.5-2.4c0-0.2,0-0.4-0.1-0.5c-0.1-0.1-0.3-0.2-0.4-0.3
	c0,0,0,0,0,0c-0.2,0-0.4,0-0.5,0.1C17.3,15.9,17.2,16.1,17.2,16.3z"/>
<path d="M14.3,25.1c-0.3,0.7-0.7,1.4-1.1,2.1c-0.1,0.2-0.1,0.3,0,0.5c0,0.1,0.1,0.2,0.2,0.3c0,0,0.1,0.1,0.2,0.1
	c0.2,0.1,0.3,0.1,0.5,0.1c0.2,0,0.3-0.2,0.4-0.3c0.4-0.7,0.8-1.4,1.1-2.1c0.1-0.2,0.1-0.4,0-0.5c-0.1-0.2-0.2-0.3-0.4-0.4
	c-0.1,0-0.2-0.1-0.2-0.1c-0.1,0-0.2,0-0.3,0C14.5,24.8,14.3,24.9,14.3,25.1z"/>
<path d="M27.1,16.1c0,0.8,0,1.5-0.1,2.3c0,0.1,0,0.2,0,0.3c0,0.1,0.1,0.2,0.1,0.2c0.1,0.1,0.1,0.1,0.2,0.2c0.1,0,0.2,0.1,0.2,0.1
	c0,0,0,0,0,0h0c0.2,0,0.3-0.1,0.5-0.2c0.1-0.1,0.2-0.3,0.2-0.5c0-0.8,0.1-1.6,0.1-2.4v0c0-0.1,0-0.2-0.1-0.3c0-0.1-0.1-0.2-0.2-0.2
	c-0.1-0.1-0.1-0.1-0.2-0.1c-0.1,0-0.2-0.1-0.3-0.1c0,0,0,0-0.1,0c-0.2,0-0.3,0.1-0.4,0.2C27.2,15.7,27.1,15.9,27.1,16.1z"/>
<path d="M26.5,25c-0.1,0.1-0.1,0.1-0.2,0.2c0,0.1-0.1,0.2-0.1,0.3c-0.1,0.8-0.3,1.5-0.5,2.3c0,0.1,0,0.2,0,0.3s0,0.2,0.1,0.3
	c0,0.1,0.1,0.1,0.2,0.2c0.1,0,0.1,0.1,0.2,0.1c0,0,0,0,0,0c0,0,0.1,0,0.1,0c0.2,0,0.3-0.1,0.4-0.2c0.1-0.1,0.2-0.2,0.2-0.4
	c0.2-0.8,0.3-1.6,0.5-2.4c0-0.1,0-0.2,0-0.3s-0.1-0.2-0.1-0.2c-0.1-0.1-0.1-0.1-0.2-0.2c-0.1,0-0.2-0.1-0.3-0.1c0,0,0,0,0,0
	c-0.1,0-0.2,0-0.3,0C26.6,24.9,26.5,24.9,26.5,25z"/>
<path d="M33.6,25.7c-0.1,0.1-0.2,0.3-0.1,0.5c0.1,0.8,0.3,1.6,0.4,2.4c0,0.2,0.1,0.3,0.3,0.4c0.2,0.1,0.3,0.1,0.5,0.1
	c0.1,0,0.1,0,0.2-0.1c0.1-0.1,0.2-0.1,0.3-0.2c0.1-0.2,0.1-0.3,0.1-0.5c-0.2-0.8-0.3-1.5-0.4-2.3c0-0.2-0.1-0.3-0.3-0.5
	c-0.1-0.1-0.3-0.1-0.4-0.1c0,0-0.1,0-0.1,0C33.9,25.4,33.7,25.5,33.6,25.7z"/>
<path d="M33.1,21.4v0.2c0,0.7,0,1.5,0.1,2.2c0,0.2,0.1,0.3,0.2,0.5c0.1,0.1,0.3,0.2,0.5,0.2c0,0,0,0,0.1,0c0,0,0,0,0,0
	c0.2,0,0.3-0.1,0.4-0.2c0.1-0.1,0.2-0.3,0.2-0.5c-0.1-0.7-0.1-1.4-0.1-2.1v-0.2c0-0.1,0-0.2-0.1-0.3c0-0.1-0.1-0.2-0.1-0.2
	c-0.1-0.1-0.1-0.1-0.2-0.2c-0.1,0-0.2-0.1-0.3-0.1h0c0,0,0,0,0,0c-0.2,0-0.3,0.1-0.5,0.2C33.2,21,33.1,21.2,33.1,21.4z"/>
<path d="M34.1,16c-0.2,0.1-0.3,0.2-0.3,0.4c-0.2,0.8-0.4,1.6-0.5,2.4c0,0.1,0,0.2,0,0.3c0,0.1,0.1,0.2,0.1,0.2
	c0.1,0.1,0.1,0.1,0.2,0.2c0.1,0,0.2,0.1,0.3,0.1c0,0,0.1,0,0.1,0c0.2,0,0.3-0.1,0.5-0.2c0.1-0.1,0.2-0.3,0.2-0.4
	c0.1-0.8,0.2-1.5,0.4-2.2c0.1-0.2,0-0.4-0.1-0.5c-0.1-0.1-0.1-0.2-0.2-0.2c-0.1,0-0.1-0.1-0.2-0.1C34.4,15.9,34.2,16,34.1,16z"/>
<path d="M23.3,22.4L23.3,22.4c-0.8-0.2-1.6-0.3-2.4-0.4c-0.1,0-0.2,0-0.3,0c-0.1,0-0.2,0.1-0.2,0.1c-0.1,0.1-0.1,0.1-0.2,0.2
	c0,0.1-0.1,0.2-0.1,0.3c0,0.1,0,0.2,0,0.3c0,0.1,0.1,0.2,0.1,0.2c0.1,0.1,0.1,0.1,0.2,0.2c0.1,0,0.2,0.1,0.3,0.1
	c0.7,0.1,1.5,0.2,2.3,0.4c0.2,0,0.4,0,0.5-0.1c0.2-0.1,0.3-0.3,0.3-0.4c0-0.2,0-0.4-0.1-0.5C23.7,22.5,23.5,22.4,23.3,22.4z"/>
<path d="M16.7,20.2c-0.1,0-0.2,0-0.3,0.1c-0.1,0-0.2,0.1-0.2,0.2c-0.1,0.1-0.1,0.2-0.1,0.2c-0.2,0.7-0.5,1.5-0.8,2.2
	c-0.1,0.2-0.1,0.4,0,0.5c0,0.1,0.1,0.2,0.2,0.3c0.1,0,0.1,0.1,0.2,0.1c0.2,0.1,0.4,0.1,0.5,0c0.2-0.1,0.3-0.2,0.4-0.4
	c0-0.1,0.1-0.2,0.1-0.2c0.6-0.1,1.2-0.1,1.9-0.1c0.1,0,0.2,0,0.3,0c0.1,0,0.2-0.1,0.2-0.1c0.1-0.1,0.1-0.1,0.2-0.2
	c0-0.1,0.1-0.2,0.1-0.3c0-0.2-0.1-0.4-0.2-0.5c-0.1-0.1-0.3-0.2-0.5-0.2c-0.5,0-0.9,0-1.3,0c0.1-0.2,0.1-0.4,0.2-0.6
	c0-0.1,0.1-0.2,0-0.3c0-0.1,0-0.2-0.1-0.3c0-0.1-0.1-0.2-0.2-0.2c-0.1-0.1-0.1-0.1-0.2-0.1c0,0,0,0,0,0
	C16.8,20.3,16.8,20.2,16.7,20.2z"/>
<path d="M26.8,20.8c-0.1,0.8-0.2,1.5-0.3,2.3c0,0,0,0,0,0c-0.3-0.1-0.6-0.2-0.9-0.2c-0.2,0-0.4,0-0.5,0.1c-0.2,0.1-0.3,0.2-0.3,0.4
	c0,0.2,0,0.4,0.1,0.5c0.1,0.2,0.2,0.3,0.4,0.3c0.5,0.1,1.1,0.3,1.7,0.5c0.2,0.1,0.4,0.1,0.6,0.2c0.1,0,0.2,0,0.3,0
	c0.1,0,0.2,0,0.3-0.1s0.2-0.1,0.2-0.2c0.1-0.1,0.1-0.2,0.1-0.2c0-0.1,0-0.2,0-0.3c0-0.1,0-0.2-0.1-0.3c0-0.1-0.1-0.2-0.2-0.2
	c-0.1-0.1-0.2-0.1-0.2-0.1l0,0l-0.1,0c0-0.1,0.1-0.1,0.1-0.2c0.1-0.8,0.2-1.6,0.3-2.4c0-0.2,0-0.4-0.2-0.5c-0.1-0.1-0.3-0.2-0.5-0.2
	c0,0,0,0,0,0c-0.2,0-0.4,0-0.5,0.1C27,20.4,26.9,20.6,26.8,20.8z"/>
<path d="M32.8,25.1c-0.1-0.1-0.2-0.1-0.2-0.1v0c-0.8-0.3-1.5-0.5-2.3-0.8c-0.1,0-0.2,0-0.3,0c-0.1,0-0.2,0-0.3,0.1
	c-0.1,0-0.2,0.1-0.2,0.2c-0.1,0.1-0.1,0.2-0.1,0.2c0,0.1,0,0.2,0,0.3c0,0.1,0,0.2,0.1,0.3c0,0.1,0.1,0.2,0.2,0.2
	c0.1,0.1,0.2,0.1,0.2,0.1c0.7,0.2,1.5,0.5,2.2,0.7c0.1,0,0.2,0.1,0.3,0.1c0.1,0,0.2,0,0.3-0.1c0.1,0,0.2-0.1,0.2-0.2
	C33,26.1,33,26,33,25.9c0-0.1,0-0.2,0-0.3c0-0.1,0-0.2-0.1-0.3C33,25.3,32.9,25.2,32.8,25.1z"/>
<path d="M40.5,17.6c-0.1,0-0.2,0.1-0.2,0.2c-0.1,0.1-0.1,0.1-0.1,0.2c0,0.1,0,0.2,0,0.3c0,0.1,0,0.2,0.1,0.3
	c0.2,0.5,0.4,1.1,0.5,1.6c0,0.2,0.1,0.3,0.3,0.5c0.1,0.1,0.3,0.2,0.5,0.1c0.2,0,0.3-0.1,0.5-0.3S42,20.2,42,20
	c-0.1-0.7-0.3-1.4-0.6-2c-0.1-0.2-0.2-0.3-0.4-0.4C40.8,17.5,40.6,17.5,40.5,17.6z"/>
</svg>
