<?xml version="1.0" encoding="utf-8"?>
<!-- Generator: Adobe Illustrator 21.1.0, SVG Export Plug-In . SVG Version: 6.00 Build 0)  -->
<svg version="1.1" id="Layer_1" xmlns="http://www.w3.org/2000/svg" xmlns:xlink="http://www.w3.org/1999/xlink" x="0px" y="0px"
	 viewBox="0 0 55 55" style="enable-background:new 0 0 55 55;" xml:space="preserve">
<style type="text/css">
	.st0{fill:none;}
	.st1{fill:#FFFFFF;}
	.st2{fill:#E8424D;}
	.st3{fill:#252C41;}
</style>
<path class="st0" d="M8.3,45.2C8.3,45.2,8.3,45.2,8.3,45.2c2.1,2.2,4.5,4.1,7.2,5.5C12.8,49.3,10.3,47.5,8.3,45.2z"/>
<path class="st0" d="M18.9,52.2c-1.1-0.4-2.2-0.9-3.2-1.4C16.7,51.4,17.7,51.8,18.9,52.2z"/>
<circle class="st1" cx="21.6" cy="40.5" r="3.4"/>
<path class="st1" d="M17,13.8h-6.5v10.9v1.5c0,2.1,1.7,3.9,3.9,3.9h10.4l-4.7-14C19.7,14.6,18.4,13.8,17,13.8z"/>
<path class="st1" d="M8.3,35.8c2.4,0,4.3,1.8,4.7,4.1c0.1,0,0.1,0,0.2,0H17c0.3-2.3,2.3-4,4.6-4c2.4,0,4.3,1.8,4.6,4h2.8v-8.6H14.4
	c-2.9,0-5.2-2.3-5.2-5.2v-0.8H4.3c-1.3,0-2.5,0.8-3,1.9c0,0.1,0,0.2,0,0.3c0,4.1,1,7.9,2.6,11.3C4.6,37.1,6.3,35.8,8.3,35.8z"/>
<path class="st1" d="M44.6,29.3h-4.5v4.6c0,0.4-0.3,0.7-0.7,0.7c-0.4,0-0.7-0.3-0.7-0.7v-4.6h-4.5v10.5h10.3V29.3z"/>
<path class="st1" d="M44.6,17.4h-4.5v4.7c0,0.4-0.3,0.7-0.7,0.7c-0.4,0-0.7-0.3-0.7-0.7v-4.7h-4.5V28h10.3V17.4z"/>
<path class="st1" d="M11.7,40.5c0-1.9-1.5-3.4-3.4-3.4c-1.9,0-3.4,1.5-3.4,3.4c0,0.1,0,0.1,0,0.2c0.6,1,1.2,1.9,1.9,2.8
	c0.4,0.2,0.9,0.3,1.4,0.3C10.1,43.9,11.7,42.4,11.7,40.5z"/>
<path class="st2" d="M27.5,1.3C13.9,1.3,2.7,11.7,1.4,24.9c0.8-0.6,1.8-1,2.8-1h4.9V13.1c0-0.4,0.3-0.7,0.7-0.7H17
	c2,0,3.7,1.3,4.3,3.1l4.8,14.4h2.9v-19c0-0.4,0.3-0.7,0.7-0.7s0.7,0.3,0.7,0.7v28.9h2.5V16.8c0-0.4,0.3-0.7,0.7-0.7h11.7
	c0.4,0,0.7,0.3,0.7,0.7v23.7c0,0.4-0.3,0.7-0.7,0.7H33.6h-3.9h-3.5c-0.3,2.3-2.3,4-4.6,4c-2.4,0-4.3-1.8-4.6-4h-3.9
	c-0.1,0-0.1,0-0.2,0c-0.3,2.3-2.3,4.1-4.7,4.1c0,0,0,0,0,0c2.1,2.2,4.5,4.1,7.2,5.5c0,0,0.1,0,0.1,0.1c1,0.5,2.1,1,3.2,1.4
	c0.6,0.2,1.2,0.4,1.8,0.6c0.9,0.2,1.8,0.4,2.7,0.6c1.4,0.2,2.8,0.3,4.2,0.3c14.4,0,26.2-11.8,26.2-26.2S41.9,1.3,27.5,1.3z"/>
<path class="st3" d="M12.9,41.2c0.1,0,0.1,0,0.2,0H17c0.3,2.3,2.3,4,4.6,4c2.4,0,4.3-1.8,4.6-4h3.5h3.9h11.7c0.4,0,0.7-0.3,0.7-0.7
	V16.8c0-0.4-0.3-0.7-0.7-0.7H33.6c-0.4,0-0.7,0.3-0.7,0.7v23.1h-2.5V10.9c0-0.4-0.3-0.7-0.7-0.7s-0.7,0.3-0.7,0.7v19h-2.9l-4.8-14.4
	c-0.6-1.9-2.4-3.1-4.3-3.1H9.9c-0.4,0-0.7,0.3-0.7,0.7v10.9H4.3c-1.1,0-2.1,0.4-2.8,1l-0.1,2.3c0.5-1.1,1.6-1.9,3-1.9h4.9v0.8
	c0,2.9,2.3,5.2,5.2,5.2h14.7v8.6h-2.8c-0.3-2.3-2.3-4-4.6-4c-2.4,0-4.3,1.8-4.6,4h-3.9c-0.1,0-0.1,0-0.2,0c-0.3-2.3-2.3-4.1-4.7-4.1
	c-2,0-3.7,1.3-4.4,3l1,1.9c0-0.1,0-0.1,0-0.2c0-1.9,1.5-3.4,3.4-3.4c1.9,0,3.4,1.5,3.4,3.4c0,1.9-1.5,3.4-3.4,3.4
	c-0.5,0-1-0.1-1.4-0.3l1.4,1.7C10.7,45.2,12.6,43.5,12.9,41.2z M34.3,17.4h4.5v4.7c0,0.4,0.3,0.7,0.7,0.7c0.4,0,0.7-0.3,0.7-0.7
	v-4.7h4.5V28H34.3V17.4z M34.3,29.3h4.5v4.6c0,0.4,0.3,0.7,0.7,0.7c0.4,0,0.7-0.3,0.7-0.7v-4.6h4.5v10.5H34.3V29.3z M14.4,29.9
	c-2.1,0-3.9-1.7-3.9-3.9v-1.5V13.8H17c1.4,0,2.6,0.9,3.1,2.2l4.7,14H14.4z M21.6,37.1c1.9,0,3.4,1.5,3.4,3.4c0,1.9-1.5,3.4-3.4,3.4
	c-1.9,0-3.4-1.5-3.4-3.4C18.3,38.7,19.8,37.1,21.6,37.1z"/>
<path class="st1" d="M27.5,0C12.6,0,0.4,12,0,26.8c0,0.2,0,0.5,0,0.7c0,2.6,0.4,5,1,7.4c0.5,1.7,1.1,3.4,1.9,5
	c0.9,1.7,1.9,3.3,3.1,4.8c5,6.3,12.8,10.3,21.5,10.3C42.7,55,55,42.7,55,27.5S42.7,0,27.5,0z M27.5,53.7c-1.4,0-2.8-0.1-4.2-0.3
	c-0.9-0.1-1.8-0.3-2.7-0.6c-0.6-0.2-1.2-0.3-1.8-0.6c-1.1-0.4-2.2-0.9-3.2-1.4c0,0-0.1,0-0.1-0.1c-2.7-1.4-5.1-3.3-7.2-5.5
	c0,0,0,0,0,0l0,0c0,0,0,0,0,0l-1.4-1.7c-0.7-0.9-1.3-1.9-1.9-2.8l-1-1.9c-1.7-3.4-2.6-7.3-2.6-11.3c0-0.1,0-0.2,0-0.3l0.1-2.3
	C2.7,11.7,13.9,1.3,27.5,1.3c14.4,0,26.2,11.8,26.2,26.2S41.9,53.7,27.5,53.7z"/>
<path class="st3" d="M15.6,50.8c0,0-0.1,0-0.1-0.1C15.5,50.8,15.6,50.8,15.6,50.8z"/>
<path class="st3" d="M23.3,53.4c-0.9-0.1-1.8-0.3-2.7-0.6C21.5,53,22.4,53.2,23.3,53.4z"/>
<polygon class="st3" points="8.3,45.2 8.3,45.2 8.3,45.2 "/>
</svg>
