<?xml version="1.0" encoding="utf-8"?>
<!-- Generator: Adobe Illustrator 21.1.0, SVG Export Plug-In . SVG Version: 6.00 Build 0)  -->
<svg version="1.1" id="Layer_1" xmlns="http://www.w3.org/2000/svg" xmlns:xlink="http://www.w3.org/1999/xlink" x="0px" y="0px"
	 viewBox="0 0 56.3 56.3" style="enable-background:new 0 0 56.3 56.3;" xml:space="preserve">
<style type="text/css">
	.st0{fill:#FFFFFF;}
	.st1{fill:#E8424D;}
</style>
<g>
	<circle class="st0" cx="46.2" cy="46" r="0.6"/>
</g>
<g>
	<path class="st1" d="M28.2,1.3c-14.8,0-26.8,12-26.8,26.8S13.3,55,28.2,55S55,43,55,28.2S43,1.3,28.2,1.3z"/>
	<path class="st0" d="M28.2,0C12.6,0,0,12.6,0,28.2s12.6,28.2,28.2,28.2s28.2-12.6,28.2-28.2S43.7,0,28.2,0z M28.2,55
		C13.3,55,1.3,43,1.3,28.2s12-26.8,26.8-26.8S55,13.3,55,28.2S43,55,28.2,55z"/>
</g>
<g>
	<path class="st0" d="M3.7,23.4h2.9v3.2h3.2v-3.2h2.9v9.2H9.8v-3.7H6.6v3.7H3.7V23.4z"/>
	<path class="st0" d="M20.4,31.1h-3.3l-0.5,1.5h-3l3.5-9.2h3.2l3.5,9.2h-3L20.4,31.1z M19.8,29.1l-1-3.3l-1,3.3H19.8z"/>
	<path class="st0" d="M30.9,28.9l2.5,0.8c-0.2,0.7-0.4,1.3-0.8,1.8c-0.4,0.5-0.8,0.8-1.4,1.1c-0.5,0.2-1.2,0.4-2.1,0.4
		c-1,0-1.9-0.1-2.5-0.4c-0.6-0.3-1.2-0.8-1.7-1.5c-0.5-0.7-0.7-1.7-0.7-2.8c0-1.5,0.4-2.7,1.2-3.5c0.8-0.8,2-1.2,3.5-1.2
		c1.2,0,2.1,0.2,2.8,0.7c0.7,0.5,1.2,1.2,1.5,2.2l-2.6,0.6c-0.1-0.3-0.2-0.5-0.3-0.6c-0.2-0.2-0.4-0.4-0.6-0.5
		c-0.2-0.1-0.5-0.2-0.8-0.2c-0.7,0-1.2,0.3-1.5,0.8c-0.3,0.4-0.4,1-0.4,1.8c0,1,0.2,1.7,0.5,2.1c0.3,0.4,0.8,0.6,1.3,0.6
		c0.6,0,1-0.2,1.3-0.5C30.5,29.9,30.8,29.5,30.9,28.9z"/>
	<path class="st0" d="M41.1,28.9l2.5,0.8c-0.2,0.7-0.4,1.3-0.8,1.8c-0.4,0.5-0.8,0.8-1.4,1.1c-0.5,0.2-1.2,0.4-2.1,0.4
		c-1,0-1.9-0.1-2.5-0.4c-0.6-0.3-1.2-0.8-1.7-1.5c-0.5-0.7-0.7-1.7-0.7-2.8c0-1.5,0.4-2.7,1.2-3.5c0.8-0.8,2-1.2,3.5-1.2
		c1.2,0,2.1,0.2,2.8,0.7c0.7,0.5,1.2,1.2,1.5,2.2L41,26.7c-0.1-0.3-0.2-0.5-0.3-0.6c-0.2-0.2-0.4-0.4-0.6-0.5
		c-0.2-0.1-0.5-0.2-0.8-0.2c-0.7,0-1.2,0.3-1.5,0.8c-0.3,0.4-0.4,1-0.4,1.8c0,1,0.2,1.7,0.5,2.1c0.3,0.4,0.8,0.6,1.3,0.6
		c0.6,0,1-0.2,1.3-0.5C40.8,29.9,41,29.5,41.1,28.9z"/>
	<path class="st0" d="M45,23.4h4.8c1.1,0,1.8,0.2,2.4,0.7c0.5,0.5,0.8,1.2,0.8,2.1c0,0.9-0.3,1.7-0.9,2.2c-0.6,0.5-1.4,0.8-2.6,0.8
		H48v3.4H45V23.4z M48,27.4h0.7c0.6,0,1-0.1,1.2-0.3c0.2-0.2,0.3-0.4,0.3-0.7c0-0.3-0.1-0.5-0.3-0.7c-0.2-0.2-0.6-0.3-1.1-0.3H48
		V27.4z"/>
</g>
<g>
	<path class="st0" d="M13.6,16.1l-3-2.9l0.5-0.5l1.2,1.1l0.9-1L12,11.7l0.5-0.5l3,2.9L15,14.6l-1.3-1.3l-1,1l1.3,1.3L13.6,16.1z"/>
	<path class="st0" d="M14.9,11.9l-0.6,0.3c-0.1-0.3-0.2-0.5-0.1-0.7c0-0.2,0.2-0.4,0.4-0.6c0.2-0.2,0.4-0.3,0.6-0.3
		c0.2,0,0.3,0,0.4,0.1c0.1,0.1,0.3,0.2,0.5,0.5l0.6,0.7c0.2,0.2,0.3,0.3,0.4,0.4c0.1,0.1,0.2,0.2,0.3,0.2L17,12.9l-0.3-0.2
		c0,0.2,0,0.3-0.1,0.5c-0.1,0.1-0.1,0.2-0.3,0.3c-0.2,0.2-0.4,0.2-0.6,0.2c-0.2,0-0.4-0.1-0.6-0.4C15,13.2,15,13,14.9,12.9
		s0-0.3,0-0.4c0-0.1,0.1-0.3,0.3-0.5c0.2-0.2,0.3-0.4,0.4-0.6c-0.1-0.1-0.2-0.2-0.2-0.2c-0.1,0-0.1,0-0.2,0c-0.1,0-0.2,0.1-0.2,0.1
		c-0.1,0.1-0.2,0.2-0.2,0.2C14.8,11.6,14.8,11.7,14.9,11.9z M16,11.8c0,0.1-0.1,0.2-0.2,0.3c-0.1,0.2-0.2,0.3-0.2,0.4
		c0,0.1,0,0.2,0.1,0.3c0.1,0.1,0.2,0.1,0.3,0.2c0.1,0,0.2,0,0.3-0.1c0.1-0.1,0.1-0.1,0.2-0.2c0-0.1,0-0.2,0-0.3
		c0-0.1-0.1-0.2-0.3-0.4L16,11.8z"/>
	<path class="st0" d="M17.4,12.5L17.1,12l0.1-1.6c0-0.3,0-0.4,0.1-0.6c-0.1,0-0.1,0.1-0.3,0.2l-0.7,0.5l-0.3-0.6l1.8-1.1L18,9.3
		l-0.1,1.6l-0.1,0.5c0.2-0.1,0.2-0.2,0.3-0.2l0.9-0.5l0.4,0.6L17.4,12.5z"/>
	<path class="st0" d="M19,9.2l-0.6,0.1c-0.1-0.3,0-0.6,0-0.7c0.1-0.2,0.3-0.4,0.6-0.5c0.3-0.1,0.5-0.2,0.6-0.2C19.8,7.9,20,8,20.1,8
		c0.1,0.1,0.2,0.3,0.4,0.6l0.4,0.8c0.1,0.2,0.2,0.4,0.3,0.5c0.1,0.1,0.2,0.2,0.3,0.3l-0.6,0.3l-0.2-0.3c0,0.2-0.1,0.3-0.2,0.4
		c-0.1,0.1-0.2,0.2-0.3,0.3c-0.2,0.1-0.4,0.1-0.6,0c-0.2-0.1-0.4-0.2-0.5-0.5c-0.1-0.2-0.1-0.3-0.1-0.4c0-0.1,0-0.3,0.1-0.4
		c0.1-0.1,0.2-0.3,0.4-0.4c0.2-0.2,0.4-0.3,0.5-0.5c-0.1-0.2-0.1-0.2-0.2-0.3c0,0-0.1-0.1-0.2-0.1c-0.1,0-0.2,0-0.3,0.1
		c-0.1,0.1-0.2,0.1-0.2,0.2C19,8.9,19,9,19,9.2z M20.1,9.4c-0.1,0.1-0.2,0.2-0.3,0.3c-0.2,0.1-0.3,0.2-0.3,0.3c0,0.1,0,0.2,0,0.3
		c0,0.1,0.1,0.2,0.2,0.2c0.1,0,0.2,0,0.3,0c0.1,0,0.2-0.1,0.2-0.2c0.1-0.1,0.1-0.2,0.1-0.3c0-0.1-0.1-0.2-0.2-0.5L20.1,9.4z"/>
	<path class="st0" d="M22.3,10.1l-0.6,0.2l-1-2.8l0.6-0.2l0.1,0.4c0-0.2,0.1-0.4,0.1-0.5C21.6,7.1,21.6,7,21.7,7
		c0.1-0.1,0.3-0.1,0.5,0l0,0.7c-0.1,0-0.2-0.1-0.3,0c-0.1,0-0.2,0.1-0.2,0.2c0,0.1-0.1,0.2,0,0.4c0,0.2,0.1,0.5,0.3,0.9L22.3,10.1z"
		/>
	<path class="st0" d="M25.4,9.2l-0.6,0.1l-0.1-0.4c-0.1,0.2-0.1,0.3-0.3,0.5c-0.1,0.1-0.2,0.2-0.4,0.2c-0.3,0.1-0.5,0-0.8-0.2
		c-0.3-0.2-0.5-0.6-0.6-1.1c-0.1-0.5-0.1-0.9,0-1.2s0.4-0.5,0.6-0.6c0.1,0,0.3,0,0.4,0c0.1,0,0.3,0.1,0.4,0.2l-0.3-1.4l0.6-0.2
		L25.4,9.2z M23.3,8.1c0.1,0.3,0.1,0.5,0.2,0.6c0.1,0.1,0.2,0.2,0.3,0.2c0.1,0,0.2,0.1,0.3,0c0.1,0,0.2-0.1,0.3-0.3
		c0.1-0.2,0.1-0.4,0-0.7c-0.1-0.3-0.2-0.6-0.3-0.7c-0.1-0.1-0.3-0.2-0.4-0.1c-0.1,0-0.3,0.1-0.3,0.3C23.2,7.6,23.2,7.8,23.3,8.1z"/>
	<path class="st0" d="M30.8,9l-0.8,0L29.8,8l-1.4,0l-0.3,0.9l-0.7,0l1.4-4.1l0.7,0L30.8,9z M29.6,7.3l-0.5-1.5l-0.5,1.5L29.6,7.3z"
		/>
	<path class="st0" d="M33.1,9.4l-0.7-0.1l0.2-1.5c0-0.3,0.1-0.5,0.1-0.6c0-0.1,0-0.2-0.1-0.3c-0.1-0.1-0.1-0.1-0.2-0.1
		c-0.1,0-0.2,0-0.3,0.1C32,6.9,32,7,31.9,7.1c-0.1,0.1-0.1,0.3-0.2,0.7l-0.2,1.3L30.9,9l0.5-3L32,6.2l-0.1,0.4
		c0.1-0.1,0.3-0.3,0.4-0.3c0.1-0.1,0.3-0.1,0.5-0.1c0.2,0,0.3,0.1,0.5,0.2c0.1,0.1,0.2,0.3,0.2,0.4c0,0.2,0,0.4,0,0.7L33.1,9.4z"/>
	<path class="st0" d="M34.5,7.6L34,7.3c0.2-0.3,0.3-0.4,0.5-0.5c0.2-0.1,0.4-0.1,0.8,0c0.3,0.1,0.5,0.2,0.6,0.3
		c0.1,0.1,0.2,0.2,0.2,0.4c0,0.1,0,0.4-0.1,0.7l-0.3,0.9c-0.1,0.2-0.1,0.4-0.1,0.6c0,0.1,0,0.3,0,0.4l-0.6-0.2l0-0.3
		c-0.1,0.1-0.3,0.2-0.4,0.2c-0.1,0-0.3,0-0.4,0c-0.2-0.1-0.4-0.2-0.5-0.4c-0.1-0.2-0.1-0.4,0-0.7c0-0.2,0.1-0.3,0.2-0.4
		C33.8,8.1,34,8.1,34.1,8c0.1,0,0.3-0.1,0.6,0c0.3,0,0.5,0,0.7,0c0-0.2,0.1-0.3,0.1-0.3s0-0.1-0.1-0.2c-0.1,0-0.1-0.1-0.2-0.1
		c-0.1,0-0.2,0-0.3,0C34.7,7.4,34.6,7.5,34.5,7.6z M35.2,8.5c-0.1,0-0.2,0-0.4,0c-0.2,0-0.4,0-0.4,0.1c-0.1,0-0.1,0.1-0.2,0.2
		c0,0.1,0,0.2,0,0.3c0,0.1,0.1,0.2,0.2,0.2c0.1,0,0.2,0,0.3,0c0.1,0,0.2-0.1,0.2-0.2C35,9,35.1,8.9,35.2,8.6L35.2,8.5z"/>
	<path class="st0" d="M35.8,10.2l1.5-3.9l0.6,0.2l-1.5,3.9L35.8,10.2z"/>
	<path class="st0" d="M37.8,7.7l0.6,0.3L38,10.2l1.5-1.6l0.6,0.3L38,11.1l-0.4,0.4c-0.2,0.2-0.3,0.3-0.4,0.3
		c-0.1,0.1-0.2,0.1-0.4,0.1c-0.1,0-0.3,0-0.4-0.1c-0.1-0.1-0.2-0.1-0.3-0.2l0.2-0.6c0.1,0.1,0.2,0.1,0.2,0.2c0.1,0.1,0.2,0.1,0.3,0
		c0.1,0,0.2-0.1,0.4-0.3L37.8,7.7z"/>
	<path class="st0" d="M39.1,10.8l0.6,0.3c-0.1,0.3-0.1,0.5,0.2,0.7c0.1,0.1,0.2,0.1,0.3,0.1c0.1,0,0.2-0.1,0.2-0.1
		c0-0.1,0.1-0.1,0-0.2c0-0.1-0.1-0.1-0.1-0.2c-0.4-0.4-0.6-0.7-0.6-0.9c-0.1-0.2,0-0.5,0.1-0.7c0.2-0.2,0.4-0.4,0.6-0.4
		c0.2,0,0.5,0,0.8,0.2c0.3,0.2,0.4,0.4,0.5,0.6c0.1,0.2,0.1,0.4,0,0.7l-0.6-0.2c0.1-0.2,0-0.4-0.2-0.6c-0.1-0.1-0.2-0.1-0.3-0.1
		c-0.1,0-0.1,0-0.2,0.1c0,0.1,0,0.1,0,0.2c0,0.1,0.2,0.2,0.4,0.5c0.3,0.3,0.4,0.5,0.4,0.7c0,0.2,0,0.4-0.2,0.6
		c-0.2,0.2-0.4,0.4-0.6,0.4c-0.3,0-0.6,0-0.9-0.2c-0.3-0.2-0.4-0.4-0.5-0.6C39,11.4,39,11.1,39.1,10.8z"/>
	<path class="st0" d="M40.9,13l1.9-2.4l0.5,0.4l-1.9,2.4L40.9,13z M43,10.4l0.5-0.6l0.5,0.4l-0.5,0.6L43,10.4z"/>
	<path class="st0" d="M42.1,12.9l0.6,0.4c-0.2,0.3-0.2,0.5,0.1,0.7c0.1,0.1,0.2,0.2,0.3,0.2c0.1,0,0.2,0,0.2-0.1
		c0,0,0.1-0.1,0.1-0.1c0-0.1,0-0.1-0.1-0.2c-0.3-0.5-0.5-0.8-0.5-1c0-0.2,0.1-0.5,0.3-0.7c0.2-0.2,0.4-0.3,0.7-0.3
		c0.2,0,0.5,0.1,0.7,0.4c0.2,0.2,0.4,0.4,0.4,0.7c0,0.2,0,0.4-0.2,0.7l-0.5-0.3c0.1-0.2,0.1-0.4-0.1-0.6c-0.1-0.1-0.2-0.2-0.3-0.2
		c-0.1,0-0.1,0-0.2,0.1c0,0-0.1,0.1,0,0.2c0,0.1,0.1,0.3,0.3,0.6c0.2,0.3,0.3,0.6,0.3,0.8c0,0.2-0.1,0.4-0.3,0.6
		c-0.2,0.2-0.4,0.3-0.7,0.3c-0.3,0-0.5-0.1-0.8-0.4c-0.2-0.2-0.4-0.5-0.4-0.7C41.9,13.4,41.9,13.2,42.1,12.9z"/>
</g>
<g>
	<path class="st0" d="M9.9,38.7l0.1,0.7c-0.5,0.1-0.8,0.1-1.1,0c-0.3-0.1-0.5-0.4-0.7-0.7c-0.2-0.4-0.2-0.8,0-1.2
		c0.2-0.5,0.6-0.8,1.2-1.1c0.6-0.3,1.2-0.4,1.7-0.3c0.4,0.1,0.8,0.4,1,0.8c0.2,0.3,0.2,0.7,0.1,1c-0.1,0.2-0.3,0.5-0.6,0.7L11,38.2
		c0.2-0.1,0.3-0.3,0.3-0.5c0.1-0.2,0-0.3,0-0.5c-0.1-0.2-0.3-0.4-0.6-0.4c-0.3-0.1-0.6,0-1.1,0.3c-0.5,0.2-0.8,0.5-0.9,0.7
		s-0.1,0.5,0,0.7c0.1,0.2,0.2,0.3,0.4,0.3C9.4,38.8,9.6,38.8,9.9,38.7z"/>
	<path class="st0" d="M9.7,41.3l-0.4-0.6l2.5-1.6l0.3,0.5l-0.4,0.2c0.2,0,0.4,0,0.5,0c0.1,0,0.2,0.1,0.2,0.2
		c0.1,0.1,0.1,0.3,0.1,0.4l-0.7,0.2c0-0.1,0-0.2-0.1-0.3c-0.1-0.1-0.1-0.1-0.2-0.1c-0.1,0-0.2,0-0.4,0.1c-0.2,0.1-0.4,0.2-0.8,0.5
		L9.7,41.3z"/>
	<path class="st0" d="M10.4,42.4l2.4-1.8l0.4,0.5l-2.4,1.8L10.4,42.4z M13.1,40.3l0.6-0.4l0.4,0.5l-0.6,0.4L13.1,40.3z"/>
	<path class="st0" d="M14.4,42.4l-0.5,0.4l-0.3-0.3l-0.9,0.8c-0.2,0.2-0.3,0.3-0.3,0.3c0,0.1,0,0.1,0,0.2c0,0,0.1,0.1,0.2,0.1
		l-0.4,0.5c-0.2-0.1-0.3-0.2-0.4-0.3c-0.1-0.1-0.2-0.3-0.2-0.4c0-0.1,0-0.3,0.1-0.4c0.1-0.1,0.2-0.3,0.5-0.5l1-0.9L13,41.8l0.5-0.4
		l0.2,0.2l0.4-0.4l0.8,0.2l-0.8,0.7L14.4,42.4z"/>
	<path class="st0" d="M12.5,44.8l2.1-2.1l0.5,0.5L13,45.3L12.5,44.8z M14.9,42.4l0.5-0.5l0.5,0.5l-0.5,0.5L14.9,42.4z"/>
	<path class="st0" d="M16.7,45.7l-0.6-0.3c0.2-0.3,0.1-0.5-0.1-0.7c-0.1-0.1-0.3-0.1-0.4-0.1c-0.2,0-0.3,0.2-0.6,0.4
		c-0.2,0.3-0.3,0.5-0.4,0.7s0,0.3,0.2,0.4c0.1,0.1,0.2,0.1,0.3,0.1c0.1,0,0.3-0.1,0.4-0.2l0.4,0.5c-0.6,0.5-1.1,0.5-1.6,0.1
		c-0.3-0.3-0.5-0.6-0.4-0.9c0-0.4,0.2-0.7,0.5-1c0.3-0.4,0.7-0.6,1-0.7c0.3-0.1,0.7,0,0.9,0.2c0.2,0.2,0.4,0.4,0.4,0.6
		S16.8,45.3,16.7,45.7z"/>
	<path class="st0" d="M17.5,46.2l-0.4-0.4c0.2-0.2,0.4-0.3,0.7-0.4c0.2,0,0.5,0,0.7,0.2c0.2,0.1,0.4,0.3,0.5,0.4
		c0.1,0.1,0.1,0.3,0.1,0.4s-0.1,0.4-0.3,0.7L18.2,48c-0.1,0.2-0.2,0.4-0.3,0.5c0,0.1-0.1,0.3-0.1,0.4l-0.6-0.3l0.1-0.3
		c-0.2,0.1-0.3,0.1-0.5,0.1c-0.1,0-0.3-0.1-0.4-0.1c-0.2-0.1-0.3-0.3-0.4-0.5c0-0.2,0-0.4,0.1-0.7c0.1-0.1,0.2-0.3,0.3-0.3
		c0.1-0.1,0.2-0.1,0.4-0.1c0.1,0,0.3,0,0.6,0.1c0.3,0.1,0.5,0.2,0.7,0.2c0.1-0.1,0.1-0.2,0.1-0.3c0-0.1,0-0.1,0-0.2
		c0-0.1-0.1-0.1-0.2-0.2C18,46.1,17.9,46,17.8,46C17.7,46.1,17.6,46.1,17.5,46.2z M17.9,47.2c-0.1,0-0.2-0.1-0.4-0.1
		c-0.2-0.1-0.3-0.1-0.4-0.1c-0.1,0-0.2,0.1-0.2,0.2c-0.1,0.1-0.1,0.2-0.1,0.3c0,0.1,0.1,0.2,0.2,0.2c0.1,0,0.2,0.1,0.3,0.1
		c0.1,0,0.2,0,0.3-0.1c0.1-0.1,0.2-0.2,0.3-0.4L17.9,47.2z"/>
	<path class="st0" d="M18.5,49.2l1.8-3.7l0.6,0.3l-1.8,3.7L18.5,49.2z"/>
	<path class="st0" d="M25.2,49.8l0.6,0.4c-0.2,0.4-0.4,0.7-0.7,0.9c-0.3,0.2-0.6,0.2-1,0.1c-0.4-0.1-0.8-0.3-1-0.7
		c-0.2-0.5-0.3-1-0.1-1.7c0.1-0.7,0.4-1.2,0.8-1.5c0.3-0.3,0.8-0.4,1.2-0.3c0.4,0.1,0.7,0.3,0.9,0.6c0.1,0.2,0.2,0.5,0.2,0.9l-0.7,0
		c0-0.2,0-0.4-0.2-0.6c-0.1-0.1-0.2-0.2-0.4-0.3c-0.3-0.1-0.5,0-0.7,0.2c-0.2,0.2-0.4,0.5-0.5,1c-0.1,0.5-0.1,0.9,0,1.1
		c0.1,0.2,0.3,0.4,0.5,0.5c0.2,0,0.4,0,0.5-0.1C24.9,50.3,25,50.1,25.2,49.8z"/>
	<path class="st0" d="M26.4,50c0-0.3,0.1-0.6,0.2-0.8c0.1-0.2,0.3-0.4,0.5-0.5c0.2-0.1,0.4-0.2,0.7-0.1c0.4,0,0.7,0.2,0.9,0.5
		c0.2,0.3,0.3,0.7,0.3,1.1c0,0.3-0.1,0.6-0.2,0.8c-0.1,0.2-0.3,0.4-0.5,0.5c-0.2,0.1-0.4,0.2-0.7,0.2c-0.4,0-0.7-0.2-0.9-0.5
		C26.4,50.9,26.3,50.5,26.4,50z M27,50.1c0,0.3,0,0.5,0.1,0.7c0.1,0.2,0.3,0.2,0.4,0.3c0.2,0,0.3-0.1,0.4-0.2
		c0.1-0.1,0.2-0.4,0.2-0.7c0-0.3,0-0.5-0.1-0.7c-0.1-0.2-0.3-0.2-0.4-0.3c-0.2,0-0.3,0.1-0.4,0.2C27.1,49.5,27,49.8,27,50.1z"/>
	<path class="st0" d="M32,51.5l-0.7,0.1L31.2,50c0-0.3-0.1-0.5-0.1-0.6s-0.1-0.2-0.2-0.2c-0.1,0-0.2-0.1-0.2-0.1
		c-0.1,0-0.2,0.1-0.3,0.1c-0.1,0.1-0.1,0.2-0.2,0.3c0,0.1,0,0.4,0,0.7l0.1,1.4l-0.7,0.1l-0.3-3l0.6-0.1l0,0.4
		c0.1-0.2,0.2-0.3,0.3-0.4c0.1-0.1,0.3-0.2,0.4-0.2c0.2,0,0.4,0,0.5,0.1s0.2,0.2,0.3,0.4s0.1,0.4,0.1,0.7L32,51.5z"/>
	<path class="st0" d="M33.4,48.1l0.1,0.6l-0.4,0.1l0.2,1.2c0.1,0.3,0.1,0.4,0.1,0.4c0,0.1,0.1,0.1,0.2,0.1c0.1,0,0.1-0.1,0.2-0.1
		L34,51c-0.1,0.1-0.3,0.2-0.5,0.2c-0.2,0-0.3,0-0.4,0c-0.1-0.1-0.2-0.2-0.3-0.3c0-0.1-0.1-0.3-0.2-0.6L32.4,49L32.1,49L32,48.4
		l0.3-0.1l-0.1-0.6l0.6-0.6l0.2,1L33.4,48.1z"/>
	<path class="st0" d="M35.2,50.7l-0.6,0.2L33.7,48l0.6-0.2l0.1,0.4c0-0.2,0.1-0.4,0.2-0.5c0.1-0.1,0.1-0.1,0.3-0.2
		c0.1,0,0.3,0,0.5,0l0,0.7c-0.1-0.1-0.2-0.1-0.3,0c-0.1,0-0.2,0.1-0.2,0.2c0,0.1-0.1,0.2,0,0.4c0,0.2,0.1,0.5,0.2,0.9L35.2,50.7z"/>
	<path class="st0" d="M35.9,48.9c-0.1-0.3-0.2-0.5-0.1-0.8c0-0.3,0.1-0.5,0.2-0.7c0.1-0.2,0.3-0.3,0.5-0.4c0.4-0.2,0.7-0.1,1.1,0.1
		c0.3,0.2,0.6,0.5,0.7,0.9c0.1,0.3,0.2,0.6,0.2,0.8c0,0.3-0.1,0.5-0.2,0.7c-0.1,0.2-0.3,0.3-0.5,0.4c-0.3,0.1-0.7,0.1-1,0
		S36.1,49.4,35.9,48.9z M36.5,48.7c0.1,0.3,0.3,0.5,0.4,0.6c0.2,0.1,0.3,0.1,0.5,0c0.2-0.1,0.3-0.2,0.3-0.4c0-0.2,0-0.4-0.1-0.7
		c-0.1-0.3-0.3-0.5-0.4-0.6s-0.3-0.1-0.5,0c-0.2,0.1-0.3,0.2-0.3,0.4C36.4,48.2,36.4,48.4,36.5,48.7z"/>
	<path class="st0" d="M39.5,49l-2-3.6l0.6-0.3l2,3.6L39.5,49z"/>
	<path class="st0" d="M43.3,46.6l-2.8-3.1l0.8-0.8c0.3-0.3,0.5-0.4,0.6-0.5c0.2-0.1,0.4-0.1,0.7,0c0.2,0.1,0.5,0.2,0.7,0.5
		c0.2,0.2,0.3,0.4,0.4,0.7c0.1,0.2,0,0.4,0,0.6c-0.1,0.2-0.3,0.4-0.6,0.7l-0.3,0.3l1,1.2L43.3,46.6z M41.5,43.6l0.8,0.9l0.3-0.3
		c0.2-0.2,0.3-0.3,0.4-0.4c0-0.1,0.1-0.2,0-0.3c0-0.1-0.1-0.2-0.2-0.3c-0.1-0.1-0.2-0.2-0.3-0.2c-0.1,0-0.2,0-0.3,0
		c-0.1,0-0.2,0.2-0.5,0.3L41.5,43.6z"/>
	<path class="st0" d="M44.5,43.3c-0.2-0.2-0.4-0.4-0.5-0.6c-0.1-0.2-0.2-0.5-0.1-0.7c0-0.2,0.1-0.4,0.3-0.6c0.3-0.3,0.6-0.5,1-0.4
		c0.4,0,0.7,0.2,1.1,0.4c0.2,0.2,0.4,0.4,0.5,0.7c0.1,0.3,0.2,0.5,0.1,0.7c0,0.2-0.1,0.4-0.3,0.6c-0.2,0.3-0.5,0.4-0.9,0.5
		C45.3,43.8,44.9,43.6,44.5,43.3z M45,42.8c0.2,0.2,0.5,0.3,0.6,0.3c0.2,0,0.4-0.1,0.5-0.2c0.1-0.1,0.1-0.3,0.1-0.5
		c0-0.2-0.2-0.4-0.4-0.6c-0.2-0.2-0.4-0.3-0.6-0.3c-0.2,0-0.4,0.1-0.5,0.2c-0.1,0.1-0.1,0.3-0.1,0.5C44.6,42.4,44.8,42.6,45,42.8z"
		/>
	<path class="st0" d="M44.9,39.8l-0.6-0.4l0.4-0.6l0.6,0.4L44.9,39.8z M47.8,41.6L45.3,40l0.4-0.6l2.5,1.7L47.8,41.6z"/>
	<path class="st0" d="M49.7,38.3l-0.3,0.6L48,38.2c-0.3-0.1-0.5-0.2-0.6-0.3c-0.1,0-0.2,0-0.3,0C47.1,38,47,38,47,38.1
		c-0.1,0.1-0.1,0.2,0,0.3c0,0.1,0.1,0.2,0.2,0.3c0.1,0.1,0.3,0.2,0.6,0.4l1.2,0.6l-0.3,0.6L46,38.9l0.3-0.5l0.4,0.2
		c-0.1-0.2-0.2-0.3-0.2-0.5c0-0.2,0-0.3,0.1-0.5c0.1-0.2,0.2-0.3,0.4-0.4c0.1-0.1,0.3-0.1,0.5-0.1c0.2,0,0.4,0.1,0.6,0.2L49.7,38.3z
		"/>
	<path class="st0" d="M47.6,35.3l0.6,0.2L48.1,36l1.1,0.4c0.2,0.1,0.4,0.1,0.4,0.1c0.1,0,0.1,0,0.2-0.1c0-0.1,0-0.1,0-0.3l0.6,0.2
		c0,0.2,0,0.3-0.1,0.5c-0.1,0.2-0.1,0.3-0.3,0.3c-0.1,0.1-0.2,0.1-0.4,0.1c-0.1,0-0.3-0.1-0.6-0.2l-1.2-0.5l-0.1,0.3l-0.6-0.2
		l0.1-0.3l-0.6-0.2l-0.2-0.8l1,0.4L47.6,35.3z"/>
</g>
<g>
	<g>
		<path class="st0" d="M38.1,38.6c-2.8,2.7-6.5,4.1-10.3,4.1c-3.9-0.1-7.5-1.7-10.2-4.4c-0.9-0.9-1.6-1.9-2.2-2.9h-1.6
			c0.7,1.4,1.6,2.7,2.8,3.9c3,3.1,6.9,4.8,11.2,4.9c0.1,0,0.2,0,0.3,0c4.2,0,8.1-1.6,11.1-4.5c1.3-1.3,2.4-2.7,3.2-4.3h-1.6
			C40,36.5,39.1,37.6,38.1,38.6z"/>
	</g>
	<g>
		<path class="st0" d="M28.3,13.6c5.1,0.1,9.5,2.8,12,6.8H42c-2.7-4.8-7.8-8.2-13.7-8.3C22.2,12,16.8,15.4,14,20.4h1.7
			C18.3,16.3,23,13.5,28.3,13.6z"/>
	</g>
</g>
<g>
	<circle class="st0" cx="26.6" cy="7" r="0.6"/>
</g>
<g>
	<circle class="st0" cx="21.6" cy="48.5" r="0.6"/>
</g>
<g>
	<circle class="st0" cx="40.4" cy="46" r="0.6"/>
</g>
</svg>
