<?xml version="1.0" encoding="utf-8"?>
<!-- Generator: Adobe Illustrator 21.1.0, SVG Export Plug-In . SVG Version: 6.00 Build 0)  -->
<svg version="1.1" id="Layer_1" xmlns="http://www.w3.org/2000/svg" xmlns:xlink="http://www.w3.org/1999/xlink" x="0px" y="0px"
	 viewBox="0 0 47 47" style="enable-background:new 0 0 47 47;" xml:space="preserve">
<style type="text/css">
	.st0{fill:#F34E4E;}
</style>
<path class="st0" d="M31.6,33.9c0.9-0.2,1.7-0.4,2.6-0.6c0.1,1.7-1,3.3-1.5,3.9h-1.7C31.2,36.1,31.5,34.6,31.6,33.9z M39.3,14.7
	c0,0-0.1,0-0.1-0.1c0,0,0,0,0,0c-2.8-2.2-7-3.5-11.7-3.4c-0.8,0-1.6,0-2.3,0.1c-0.1,0.2-0.2,0.6-0.2,1c-0.1,0.3-0.3,0.5-0.6,0.5
	c0,0,0,0,0,0c-0.1,0.5-0.2,1.1-0.3,1.7c0.3,0.1,0.5,0.4,0.5,0.7c-0.1,1-0.2,2-0.2,2.9c0,0.4-0.3,0.6-0.6,0.6c0,0,0,0,0,0
	c0,0-0.1,0-0.1,0c0,0.6-0.1,1.2-0.1,1.8c0.1,0,0.1,0,0.2-0.1c0.4,0,0.7,0.3,0.7,0.6c0.1,1,0.2,2,0.3,2.9c0.1,0.4-0.2,0.7-0.5,0.8
	c0,0-0.1,0-0.1,0c0,0,0,0,0,0c0.2,0.5,0.3,1.1,0.6,1.6c0.3-0.1,0.7,0.1,0.8,0.4c0.3,0.9,0.6,1.8,1,2.7c0.1,0.3,0.1,0.5-0.1,0.7
	c0.3,0.6,0.5,1.1,0.8,1.6c0.3-0.1,0.6,0,0.8,0.2c0.2,0.3,0.4,0.6,0.6,0.9c2.6-0.2,5.3-0.7,7.7-1.7C35,29.2,34.3,26,34.3,23
	c0-0.4,0.3-0.7,0.7-0.6c0.4,0,0.6,0.3,0.6,0.7c0,3.7,1.2,7.6,2.3,9c1,1.3,1.2,4,1.2,5.3h2.3c0.3-1.4,1.3-5.5,1.8-8
	c0.6-2.8,0.7-5.3-0.8-10.2C42,17.5,40.9,16,39.3,14.7z"/>
<path d="M46.7,13.7c-3.2-2.1-6-0.9-7-0.3c-3-2.2-7.2-3.5-12-3.5c-0.1,0-0.1,0-0.2,0C19.3,10,14.9,12,14.8,12c0,0,0,0-0.1,0
	c-4.3-4.4-8.1-3.7-8.3-3.7C6.2,8.5,6.1,8.6,6,8.8c-0.1,0.2-0.1,0.4,0,0.5L8.1,15c-1,0.8-3.7,3.4-5.2,6.8H0.6c-0.2,0-0.4,0.1-0.5,0.2
	C0,22.2,0,22.4,0,22.6l0.8,6c0,0.2,0.1,0.4,0.3,0.5c0.2,0.1,5,2.9,8.1,3.3v5.3c0,0.4,0.3,0.7,0.6,0.7h2.6c0.1,0,0.2,0,0.4-0.1
	c0.1-0.1,2-1.4,2.8-5.2c0.2,0.1,0.5,0.1,0.8,0.2c0.6,1.2,1.5,3.4,1.3,4.3c0,0.2,0,0.4,0.1,0.6c0.1,0.2,0.3,0.3,0.5,0.3h2.5
	c0.2,0,0.5-0.1,0.6-0.4c0.1-0.2,1-2.1,1.1-3.8c1.2,0.1,2.4,0.2,3.7,0.2c1.3,0,2.7-0.1,4.1-0.2c-0.2,1.2-0.5,2.9-0.8,3.5
	c-0.1,0.2-0.1,0.4,0,0.6c0.1,0.2,0.3,0.3,0.5,0.3H33c0.2,0,0.4-0.1,0.5-0.2c0.1-0.1,2.2-2.7,1.9-5.4c0.4-0.1,0.8-0.3,1.2-0.5
	c0.1,0.2,0.2,0.3,0.3,0.5c0.8,1.1,1,4.1,1,5.1c0,0.2,0.1,0.3,0.2,0.5c0.1,0.1,0.3,0.2,0.5,0.2H42c0.3,0,0.6-0.2,0.6-0.5
	c0,0,0.1-0.4,0.2-1c0.1-0.6,0.3-1.4,0.5-2.4c0.4-1.7,0.8-3.7,1.2-5.1c0.7-3,0.8-5.7-0.8-10.8c-0.5-1.7-1.5-3.2-2.9-4.5
	c1-0.5,2.9-1,5.2,0.5c0.1,0.1,0.2,0.1,0.4,0.1c0.2,0,0.4-0.1,0.5-0.3C47.1,14.3,47,13.9,46.7,13.7z M20.3,37h-1.4
	c0-1.1-0.6-2.5-1-3.5c1,0.2,2.1,0.4,3.2,0.5C21.1,35,20.7,36.2,20.3,37z M32.7,37.2h-1.7c0.3-1.1,0.5-2.6,0.6-3.3
	c0.9-0.2,1.7-0.4,2.6-0.6C34.2,34.9,33.1,36.6,32.7,37.2z M42.5,19.2c1.5,4.9,1.4,7.3,0.8,10.2c-0.5,2.4-1.5,6.5-1.8,8h-2.3
	c0-1.3-0.2-4-1.2-5.3c-1.1-1.5-2.3-5.3-2.3-9c0-0.4-0.3-0.7-0.6-0.7c-0.4,0-0.7,0.3-0.7,0.6c0,3.1,0.7,6.2,1.7,8.2
	c-2.4,1-5.1,1.5-7.7,1.7c-0.2-0.3-0.4-0.6-0.6-0.9c-0.2-0.3-0.5-0.3-0.8-0.2c0,0-0.1,0-0.1,0.1c-0.3,0.2-0.4,0.6-0.2,0.9
	c0.1,0.1,0.1,0.2,0.2,0.3c-6.9,0.1-13.1-1.8-13.2-1.9c-0.3-0.1-0.7,0.1-0.8,0.4c-0.1,0.3,0.1,0.7,0.4,0.8c0.1,0,0.5,0.2,1.1,0.3
	c-0.6,2.7-1.7,4-2.1,4.3h-1.7v-5.2c0-0.4-0.3-0.7-0.6-0.7c-2.3,0-6.6-2.4-7.8-3l-0.6-4.9h2c0.3,0,0.5-0.2,0.6-0.4
	c1.2-3,3.5-5.4,4.7-6.4l0.6,1.5c0.1,0.3,0.3,0.4,0.6,0.4c0.1,0,0.2,0,0.2,0c0.3-0.1,0.5-0.5,0.4-0.8l-3-7.7c1.4,0.1,4.3,0.7,7.4,4.6
	c0.2,0.3,0.6,0.3,0.9,0.1c0.3-0.2,0.3-0.6,0.1-0.9c-0.1-0.1-0.2-0.3-0.3-0.4c0.9-0.3,3.7-1.3,8.2-1.7c0,0.2-0.1,0.4-0.2,0.7
	c-0.1,0.4,0.1,0.7,0.5,0.8c0,0,0.1,0,0.1,0c0,0,0,0,0,0c0.3,0,0.6-0.2,0.6-0.5c0.1-0.4,0.2-0.8,0.2-1c0.7,0,1.5-0.1,2.3-0.1
	c4.8-0.1,8.9,1.2,11.7,3.4c0,0,0,0,0,0c0,0,0.1,0.1,0.1,0.1C40.9,16,42,17.5,42.5,19.2z M24.4,26.3C24.4,26.3,24.4,26.3,24.4,26.3
	c0.4-0.1,0.7,0.1,0.8,0.4c0.3,0.9,0.6,1.8,1,2.7c0.1,0.3,0.1,0.5-0.1,0.7c-0.1,0.1-0.1,0.1-0.2,0.1c-0.1,0-0.2,0.1-0.3,0.1
	c-0.2,0-0.5-0.1-0.6-0.4c-0.4-0.9-0.8-1.9-1.1-2.9C23.9,26.8,24.1,26.4,24.4,26.3z M23.3,20.5c0.1,0,0.1,0,0.2-0.1
	c0.4,0,0.7,0.3,0.7,0.6c0.1,1,0.2,2,0.3,2.9c0.1,0.4-0.2,0.7-0.5,0.8c0,0-0.1,0-0.1,0c0,0,0,0,0,0c-0.3,0-0.6-0.2-0.6-0.5
	c-0.2-1-0.3-2-0.4-3C22.9,20.8,23.1,20.6,23.3,20.5z M23.8,14.5C23.9,14.5,23.9,14.5,23.8,14.5c0.4,0.1,0.6,0.4,0.6,0.7
	c-0.1,1-0.2,2-0.2,2.9c0,0.4-0.3,0.6-0.6,0.6c0,0,0,0,0,0c0,0-0.1,0-0.1,0c-0.3-0.1-0.5-0.3-0.5-0.6c0-1,0.1-2,0.2-3
	C23.1,14.7,23.5,14.4,23.8,14.5z"/>
</svg>
