<?xml version="1.0" encoding="utf-8"?>
<!-- Generator: Adobe Illustrator 21.1.0, SVG Export Plug-In . SVG Version: 6.00 Build 0)  -->
<svg version="1.1" id="Layer_1" xmlns="http://www.w3.org/2000/svg" xmlns:xlink="http://www.w3.org/1999/xlink" x="0px" y="0px"
	 viewBox="0 0 58 58" style="enable-background:new 0 0 58 58;" xml:space="preserve">
<style type="text/css">
	.st0{fill:#30519F;}
	.st1{fill:#FFFFFF;}
	.st2{fill:#E8424D;}
	.st3{fill:#252C41;}
</style>
<rect x="29.2" y="1.5" class="st0" width="0.3" height="1.6"/>
<path class="st1" d="M15.6,46.2c0,0,2.8,0.6,7.9,1.1c5.2,0.4,7.7-0.4,11-1.5c0,0,0.1,0,0.1,0c-2.3-1.3-3.1-3.6-3.1-3.7
	c-0.1-0.3,0.1-0.7,0.4-0.8c0.3-0.1,0.7,0.1,0.8,0.4c0,0.1,1,2.9,4,3.5c3-0.8,6.7-1.6,8.1-1.9l0.9-6.6c-0.5-0.3-1.6-1-3.4-2.4
	c-2.9-2.2-4.9-5.2-5.6-8.4c-0.1-0.3-0.1-0.7-0.2-1c-0.5-2.8-1.1-5.9-6.4-9c-0.5-0.2-1.8-0.9-2.8-1.1l-2.8,5.6
	c-0.2,0.4-0.7,0.5-1,0.3c-0.4-0.2-0.5-0.7-0.3-1l4.7-9.4c-2.3,0.6-6.6,1.9-9.2,3.4c-3.3,1.9-3.3,6.5-3.3,6.5c0,0.4-0.3,0.8-0.8,0.8
	c0,0,0,0,0,0c-0.4,0-0.8-0.3-0.8-0.8c0-0.2,0-3.7,2.2-6.3l-7.5-0.5c-1.5,1.9-2.7,4-3.6,6.4c-1.2,3-1.8,6.2-1.8,9.4
	c0,7.6,3.3,14.8,9.1,19.8c0.2,0.2,0.4,0.3,0.6,0.5l1.9-2.7C14.9,46.3,15.2,46.2,15.6,46.2z M29.2,25.3c1.5,0,2.7,1.2,2.7,2.7
	c0,1.5-1.2,2.7-2.7,2.7c-1.5,0-2.7-1.2-2.7-2.7C26.4,26.5,27.7,25.3,29.2,25.3z"/>
<path class="st1" d="M39.4,18.3l2.2-5.2c-1,0-2.6,0-4.2,0.3c-1.7,0.3-3.5,1.7-4.3,2.5c1.8,1.4,2.9,2.8,3.5,4.1
	C38.4,19.9,39.4,18.4,39.4,18.3z"/>
<path class="st2" d="M29,3.1c-7.6,0-14.6,3.2-19.4,8.7l8,0.5c0.1,0,0.1-0.1,0.2-0.1c3.9-2.2,11-3.9,11.3-4c0.3-0.1,0.6,0,0.8,0.3
	c0.2,0.2,0.2,0.6,0.1,0.8l-2,4c1.4,0.4,2.8,1.1,2.9,1.2c0.3,0.2,0.7,0.4,1,0.6c0.9-0.9,3.1-2.8,5.4-3.1c2.8-0.4,5.5-0.2,5.6-0.2
	c0.3,0,0.5,0.2,0.6,0.4c0.1,0.2,0.2,0.5,0.1,0.7L40.8,19c-0.1,0.2-1.3,2.1-3.5,2.5c0.4,1,0.5,2,0.7,3c0.1,0.3,0.1,0.7,0.2,1
	c0.6,2.9,2.4,5.6,5,7.5c2.7,2,3.7,2.5,3.7,2.5c0.3,0.2,0.4,0.5,0.4,0.8l-1.1,7.7c0,0.3-0.3,0.6-0.6,0.7c-0.1,0-7.3,1.5-10.6,2.6
	c-3.4,1.2-6.1,2.1-11.6,1.6c-4-0.3-6.6-0.8-7.6-1l-1.6,2.4c4.3,3.1,9.6,4.7,14.9,4.7c14.3,0,25.9-11.6,25.9-25.9S43.3,3.1,29,3.1z"
	/>
<g>
	<path class="st3" d="M29,1.5C17.6,1.5,7.5,8.4,3.4,19c-1.2,3.2-1.9,6.5-1.9,10c0,8.1,3.5,15.7,9.7,20.9c0.4,0.3,0.8,0.7,1.3,1
		c0,0,0.1,0.1,0.1,0.1c0,0,0,0,0.1,0c4.7,3.5,10.5,5.4,16.4,5.4c15.2,0,27.5-12.3,27.5-27.5S44.2,1.5,29,1.5z M12.2,48.8
		C6.4,43.8,3.1,36.6,3.1,29c0-3.2,0.6-6.4,1.8-9.4c0.9-2.3,2.1-4.5,3.6-6.4l7.5,0.5c-2.2,2.6-2.2,6.1-2.2,6.3c0,0.4,0.4,0.8,0.8,0.8
		c0,0,0,0,0,0c0.4,0,0.8-0.4,0.8-0.8c0,0,0-4.7,3.3-6.5c2.6-1.5,6.9-2.8,9.2-3.4l-4.7,9.4c-0.2,0.4,0,0.9,0.3,1c0.4,0.2,0.9,0,1-0.3
		l2.8-5.6c1,0.2,2.4,0.9,2.8,1.1c5.3,3.2,5.9,6.3,6.4,9c0.1,0.3,0.1,0.7,0.2,1c0.7,3.3,2.7,6.3,5.6,8.4c1.8,1.3,2.8,2,3.4,2.4
		l-0.9,6.6c-1.4,0.3-5.1,1.1-8.1,1.9c-3-0.6-4-3.4-4-3.5c-0.1-0.3-0.5-0.5-0.8-0.4c-0.3,0.1-0.5,0.5-0.4,0.8c0,0.1,0.8,2.5,3.1,3.7
		c0,0-0.1,0-0.1,0c-3.2,1.1-5.8,2-11,1.5c-5.1-0.4-7.9-1.1-7.9-1.1c-0.3-0.1-0.6,0.1-0.8,0.3l-1.9,2.7
		C12.6,49.1,12.4,48.9,12.2,48.8z M33.1,15.9c0.9-0.8,2.6-2.2,4.3-2.5c1.6-0.2,3.2-0.3,4.2-0.3l-2.2,5.2c0,0.1-1,1.6-2.8,1.7
		C35.9,18.7,34.9,17.3,33.1,15.9z M29,54.9c-5.4,0-10.6-1.7-14.9-4.7l1.6-2.4c1,0.2,3.6,0.7,7.6,1c5.5,0.5,8.2-0.5,11.6-1.6
		c3.4-1.1,10.6-2.6,10.6-2.6c0.3-0.1,0.6-0.3,0.6-0.7l1.1-7.7c0-0.3-0.1-0.6-0.4-0.8c0,0-1-0.5-3.7-2.5c-2.6-1.9-4.4-4.6-5-7.5
		c-0.1-0.3-0.1-0.6-0.2-1c-0.2-0.9-0.4-1.9-0.7-3c2.2-0.4,3.4-2.3,3.5-2.5l2.7-6.3c0.1-0.2,0.1-0.5-0.1-0.7
		c-0.1-0.2-0.4-0.4-0.6-0.4c-0.1,0-2.8-0.2-5.6,0.2c-2.3,0.3-4.5,2.2-5.4,3.1c-0.3-0.2-0.6-0.4-1-0.6c-0.1,0-1.5-0.8-2.9-1.2l2-4
		c0.1-0.3,0.1-0.6-0.1-0.8c-0.2-0.2-0.5-0.3-0.8-0.3c-0.3,0.1-7.4,1.8-11.3,4c-0.1,0-0.1,0.1-0.2,0.1l-8-0.5
		C14.4,6.3,21.4,3.1,29,3.1c14.3,0,25.9,11.6,25.9,25.9S43.3,54.9,29,54.9z"/>
	<circle class="st3" cx="29.2" cy="28" r="2.7"/>
</g>
<g>
	<path class="st1" d="M29,0C13,0,0,13,0,29s13,29,29,29s29-13,29-29S45,0,29,0z M29,56.5C13.8,56.5,1.5,44.2,1.5,29
		C1.5,13.8,13.8,1.5,29,1.5c15.2,0,27.5,12.3,27.5,27.5C56.5,44.2,44.2,56.5,29,56.5z"/>
</g>
</svg>
