<?xml version="1.0" encoding="utf-8"?>
<!-- Generator: Adobe Illustrator 21.1.0, SVG Export Plug-In . SVG Version: 6.00 Build 0)  -->
<svg version="1.1" id="Layer_1" xmlns="http://www.w3.org/2000/svg" xmlns:xlink="http://www.w3.org/1999/xlink" x="0px" y="0px"
	 viewBox="0 0 55 55" style="enable-background:new 0 0 55 55;" xml:space="preserve">
<style type="text/css">
	.st0{fill:#FFFFFF;}
	.st1{fill:#E8424D;}
	.st2{fill:#252C41;}
</style>
<g>
	<path class="st0" d="M14.1,44.7c0,0,2.8,0.6,7.9,1.1c5.2,0.4,7.7-0.4,11-1.5c0,0,0.1,0,0.1,0c-2.3-1.3-3.1-3.6-3.1-3.7
		c-0.1-0.3,0.1-0.7,0.4-0.8c0.3-0.1,0.7,0.1,0.8,0.4c0,0.1,1,2.9,4,3.5c3-0.8,6.7-1.6,8.1-1.9l0.9-6.6c-0.5-0.3-1.6-1-3.4-2.4
		c-2.9-2.2-4.9-5.2-5.6-8.4c-0.1-0.3-0.1-0.7-0.2-1c-0.5-2.8-1.1-5.9-6.4-9c-0.5-0.2-1.8-0.9-2.8-1.1L23,18.7
		c-0.2,0.4-0.7,0.5-1,0.3c-0.4-0.2-0.5-0.7-0.3-1l4.7-9.4c-2.3,0.6-6.6,1.9-9.2,3.4c-3.3,1.9-3.3,6.5-3.3,6.5c0,0.4-0.3,0.8-0.8,0.8
		c0,0,0,0,0,0c-0.4,0-0.8-0.3-0.8-0.8c0-0.2,0-3.7,2.2-6.3l-7.5-0.5c-1.5,1.9-2.7,4-3.6,6.4c-1.2,3-1.8,6.2-1.8,9.4
		c0,7.6,3.3,14.8,9.1,19.8c0.2,0.2,0.4,0.3,0.6,0.5l1.9-2.7C13.4,44.8,13.7,44.7,14.1,44.7z M27.7,23.8c1.5,0,2.7,1.2,2.7,2.7
		c0,1.5-1.2,2.7-2.7,2.7c-1.5,0-2.7-1.2-2.7-2.7C24.9,25,26.2,23.8,27.7,23.8z"/>
	<path class="st0" d="M37.9,16.8l2.2-5.2c-1,0-2.6,0-4.2,0.3c-1.7,0.3-3.5,1.7-4.3,2.5c1.8,1.4,2.9,2.8,3.5,4.1
		C36.9,18.4,37.9,16.9,37.9,16.8z"/>
	<path class="st1" d="M27.5,1.6c-7.6,0-14.6,3.2-19.4,8.7l8,0.5c0.1,0,0.1-0.1,0.2-0.1c3.9-2.2,11-3.9,11.3-4c0.3-0.1,0.6,0,0.8,0.3
		c0.2,0.2,0.2,0.6,0.1,0.8l-2,4c1.4,0.4,2.8,1.1,2.9,1.2c0.3,0.2,0.7,0.4,1,0.6c0.9-0.9,3.1-2.8,5.4-3.1c2.8-0.4,5.5-0.2,5.6-0.2
		c0.3,0,0.5,0.2,0.6,0.4c0.1,0.2,0.2,0.5,0.1,0.7l-2.7,6.3c-0.1,0.2-1.3,2.1-3.5,2.5c0.4,1,0.5,2,0.7,3c0.1,0.3,0.1,0.7,0.2,1
		c0.6,2.9,2.4,5.6,5,7.5c2.7,2,3.7,2.5,3.7,2.5c0.3,0.2,0.4,0.5,0.4,0.8l-1.1,7.7c0,0.3-0.3,0.6-0.6,0.7c-0.1,0-7.3,1.5-10.6,2.6
		c-3.4,1.2-6.1,2.1-11.6,1.6c-4-0.3-6.6-0.8-7.6-1l-1.6,2.4c4.3,3.1,9.6,4.7,14.9,4.7c14.3,0,25.9-11.6,25.9-25.9S41.8,1.6,27.5,1.6
		z"/>
	<path class="st2" d="M21.8,47.3c5.5,0.5,8.2-0.5,11.6-1.6c3.4-1.1,10.6-2.6,10.6-2.6c0.3-0.1,0.6-0.3,0.6-0.7l1.1-7.7
		c0-0.3-0.1-0.6-0.4-0.8c0,0-1-0.5-3.7-2.5c-2.6-1.9-4.4-4.6-5-7.5c-0.1-0.3-0.1-0.6-0.2-1c-0.2-0.9-0.4-1.9-0.7-3
		c2.2-0.4,3.4-2.3,3.5-2.5l2.7-6.3c0.1-0.2,0.1-0.5-0.1-0.7c-0.1-0.2-0.4-0.4-0.6-0.4c-0.1,0-2.8-0.2-5.6,0.2
		c-2.3,0.3-4.5,2.2-5.4,3.1c-0.3-0.2-0.6-0.4-1-0.6c-0.1,0-1.5-0.8-2.9-1.2l2-4c0.1-0.3,0.1-0.6-0.1-0.8c-0.2-0.2-0.5-0.3-0.8-0.3
		c-0.3,0.1-7.4,1.8-11.3,4c-0.1,0-0.1,0.1-0.2,0.1l-8-0.5l-1.2,1.5l7.5,0.5c-2.2,2.6-2.2,6.1-2.2,6.3c0,0.4,0.4,0.8,0.8,0.8
		c0,0,0,0,0,0c0.4,0,0.8-0.4,0.8-0.8c0,0,0-4.7,3.3-6.5c2.6-1.5,6.9-2.8,9.2-3.4L21.6,18c-0.2,0.4,0,0.9,0.3,1c0.4,0.2,0.9,0,1-0.3
		l2.8-5.6c1,0.2,2.4,0.9,2.8,1.1c5.3,3.2,5.9,6.3,6.4,9c0.1,0.3,0.1,0.7,0.2,1c0.7,3.3,2.7,6.3,5.6,8.4c1.8,1.3,2.8,2,3.4,2.4
		l-0.9,6.6c-1.4,0.3-5.1,1.1-8.1,1.9c-3-0.6-4-3.4-4-3.5c-0.1-0.3-0.5-0.5-0.8-0.4c-0.3,0.1-0.5,0.5-0.4,0.8c0,0.1,0.8,2.5,3.1,3.7
		c0,0-0.1,0-0.1,0c-3.2,1.1-5.8,2-11,1.5c-5.1-0.4-7.9-1.1-7.9-1.1c-0.3-0.1-0.6,0.1-0.8,0.3l-1.9,2.7l1.2,0.9l1.6-2.4
		C15.3,46.6,17.8,47,21.8,47.3z M35.1,18.5c-0.7-1.3-1.8-2.7-3.5-4.1c0.9-0.8,2.6-2.2,4.3-2.5c1.6-0.2,3.2-0.3,4.2-0.3l-2.2,5.2
		C37.9,16.9,36.9,18.4,35.1,18.5z"/>
	<path class="st0" d="M27.5,0C16.1,0,6,6.9,1.9,17.5C0.6,20.7,0,24.1,0,27.5c0,8.1,3.5,15.7,9.7,20.9c0.4,0.3,0.8,0.7,1.3,1
		c0,0,0.1,0.1,0.1,0.1c0,0,0,0,0.1,0c4.7,3.5,10.5,5.4,16.4,5.4C42.7,55,55,42.7,55,27.5S42.7,0,27.5,0z M27.5,53.4
		c-5.4,0-10.6-1.7-14.9-4.7l-1.2-0.9c-0.2-0.2-0.4-0.3-0.6-0.5c-5.8-4.9-9.1-12.1-9.1-19.8c0-3.2,0.6-6.4,1.8-9.4
		c0.9-2.3,2.1-4.5,3.6-6.4l1.2-1.5c4.8-5.4,11.8-8.7,19.4-8.7c14.3,0,25.9,11.6,25.9,25.9S41.8,53.4,27.5,53.4z"/>
	<circle class="st2" cx="27.7" cy="26.5" r="2.7"/>
</g>
</svg>
